<?xml version="1.0" standalone="no"?>
<!DOCTYPE svg PUBLIC "-//W3C//DTD SVG 20010904//EN"
 "http://www.w3.org/TR/2001/REC-SVG-20010904/DTD/svg10.dtd">
<svg version="1.0" xmlns="http://www.w3.org/2000/svg"
 width="2000.000000pt" height="2000.000000pt" viewBox="0 0 2000.000000 2000.000000"
 preserveAspectRatio="xMidYMid meet">

<g transform="translate(0.000000,2000.000000) scale(0.100000,-0.100000)"
fill="#000000" stroke="none">
<path d="M7623 17675 c-43 -30 -39 -53 57 -345 51 -153 100 -292 111 -309 47
-77 159 -54 159 32 0 19 -34 126 -76 238 -42 112 -87 237 -101 276 -36 106
-94 147 -150 108z"/>
<path d="M10142 17259 c-38 -9 -99 -31 -137 -48 -38 -17 -161 -58 -274 -90
-240 -69 -422 -133 -759 -265 -383 -151 -391 -155 -407 -187 -33 -63 -11 -143
47 -171 85 -41 889 -314 1231 -417 141 -43 259 -80 261 -82 2 -2 6 -148 9
-325 5 -245 3 -325 -6 -336 -7 -8 -32 -30 -57 -48 -150 -114 -499 -424 -807
-719 -222 -212 -563 -568 -618 -645 -103 -146 -44 -282 137 -316 46 -9 367
-40 558 -54 410 -30 1074 -41 1615 -27 481 13 575 20 634 51 62 31 86 73 86
150 0 59 -4 72 -42 135 -68 114 -133 187 -489 552 -186 192 -426 443 -533 558
-107 116 -216 233 -243 261 -49 50 -49 51 -39 95 5 24 12 195 15 379 4 184 8
362 11 395 2 33 7 209 10 390 3 182 8 396 11 476 7 170 0 231 -30 266 -32 37
-97 44 -184 22z m-97 -219 c23 -26 13 -65 -23 -84 -29 -15 -753 -241 -887
-277 -66 -17 -117 -39 -93 -39 4 0 125 -36 270 -79 144 -43 362 -107 483 -141
121 -34 230 -69 243 -76 26 -17 30 -65 6 -88 -8 -9 -28 -16 -43 -16 -29 0
-521 139 -847 240 -316 98 -338 109 -336 171 2 64 -8 60 492 210 442 132 672
198 696 199 11 0 29 -9 39 -20z m93 -1872 c7 -7 12 -25 12 -41 0 -24 -27 -57
-162 -193 -144 -145 -167 -164 -195 -164 -46 0 -72 39 -52 79 8 15 86 95 174
179 162 153 191 172 223 140z m344 -266 c104 -104 114 -126 78 -162 -33 -33
-59 -25 -118 38 -77 82 -132 152 -132 168 0 19 36 54 57 54 9 0 61 -44 115
-98z m-306 -47 c21 -32 20 -34 -123 -190 -182 -199 -210 -218 -254 -174 -36
36 -18 64 149 232 170 170 194 184 228 132z m-524 -157 c9 -7 19 -23 23 -35 5
-19 -16 -46 -134 -171 -208 -221 -230 -238 -276 -208 -18 12 -25 26 -25 47 0
25 22 51 149 174 157 153 216 205 235 205 7 0 19 -6 28 -12z m1202 -230 c74
-78 96 -108 96 -129 0 -34 -38 -64 -69 -54 -12 3 -61 51 -111 105 -69 76 -90
106 -90 128 0 35 16 52 51 52 22 0 47 -21 123 -102z m-1252 -215 c10 -9 18
-26 18 -37 0 -30 -235 -276 -263 -276 -47 0 -71 40 -53 85 17 39 235 244 260
245 11 0 28 -7 38 -17z m-462 -63 c11 -11 20 -27 20 -35 0 -16 -50 -75 -186
-217 -76 -80 -98 -98 -122 -98 -39 0 -66 31 -58 67 8 35 281 303 308 303 10 0
27 -9 38 -20z m2122 -128 c134 -133 146 -155 111 -194 -33 -36 -63 -23 -149
65 -170 174 -184 198 -147 239 31 35 53 22 185 -110z"/>
<path d="M14352 17178 c-7 -7 -12 -17 -12 -24 0 -6 -7 -17 -15 -24 -8 -7 -13
-16 -10 -20 3 -5 1 -11 -4 -15 -6 -3 -7 -13 -4 -23 3 -9 2 -13 -3 -9 -4 4 -25
-27 -45 -70 -27 -56 -34 -80 -26 -85 8 -5 7 -8 -4 -8 -19 0 -33 -26 -22 -42 3
-7 1 -8 -5 -4 -11 6 -17 -12 -13 -36 0 -5 -3 -8 -9 -8 -5 0 -7 -7 -4 -15 4 -8
1 -15 -5 -15 -19 0 -34 -40 -20 -56 10 -12 9 -13 -6 -7 -15 5 -17 3 -12 -11 4
-10 3 -15 -3 -11 -6 3 -10 2 -10 -4 0 -6 -14 -40 -30 -76 -17 -37 -27 -71 -24
-77 4 -7 2 -8 -4 -4 -11 7 -16 -7 -15 -41 1 -7 -3 -10 -8 -7 -16 9 -10 -57 8
-87 35 -58 107 -59 137 -1 16 31 7 60 -14 47 -9 -6 -11 -4 -6 4 5 7 14 10 22
7 14 -5 47 50 38 65 -3 5 -1 9 4 9 5 0 16 18 24 39 12 29 13 42 4 51 -8 8 -6
9 8 4 13 -5 17 -4 13 3 -4 6 -4 13 1 15 13 5 55 110 58 143 1 17 3 33 3 38 1
4 6 6 12 5 13 -4 51 91 42 105 -3 6 -1 7 4 4 12 -8 26 20 17 34 -3 5 0 9 7 9
7 0 9 8 6 21 -3 13 0 22 10 26 10 4 13 14 8 32 -4 19 -3 22 4 12 8 -12 11 -10
16 11 9 35 3 73 -12 74 -7 1 -16 3 -20 4 -5 1 -17 2 -28 1 l-20 -1 20 9 c12 5
25 5 33 -1 8 -7 12 -7 12 0 0 23 -77 31 -98 10z m74 -37 c-7 -11 19 -33 28
-24 4 4 4 -1 0 -11 -7 -17 -8 -17 -19 -3 -7 9 -15 14 -18 11 -3 -3 -4 2 -2 13
5 24 4 23 11 23 3 0 3 -4 0 -9z m-3 -66 c-3 -9 -8 -14 -10 -11 -3 3 -2 9 2 15
9 16 15 13 8 -4z m-120 -50 c-3 -9 -8 -14 -10 -11 -3 3 -2 9 2 15 9 16 15 13
8 -4z m10 -40 c-3 -9 -8 -14 -10 -11 -3 3 -2 9 2 15 9 16 15 13 8 -4z m19 -97
c-8 -8 -9 -4 -5 13 4 13 8 18 11 10 2 -7 -1 -18 -6 -23z m-190 -275 c-3 -16
-7 -22 -10 -15 -4 13 4 42 11 42 2 0 2 -12 -1 -27z m65 -109 c-3 -3 -12 -4
-19 -1 -8 3 -5 6 6 6 11 1 17 -2 13 -5z"/>
<path d="M12863 17090 c-27 -11 -30 -30 -38 -213 -4 -94 -2 -136 5 -132 5 3
10 1 10 -4 0 -6 -5 -11 -11 -11 -7 0 -9 -10 -5 -26 4 -15 2 -32 -5 -40 -14
-18 -4 -71 19 -102 12 -16 31 -24 60 -27 36 -3 44 0 60 23 23 33 38 87 21 77
-8 -5 -7 0 1 15 18 33 9 282 -11 306 -9 12 -10 15 -1 10 21 -12 12 81 -10 110
-24 30 -32 30 -47 2 l-11 -23 6 23 c6 24 -5 27 -43 12z m-7 -66 c-4 -9 -9 -15
-11 -12 -3 3 -3 13 1 22 4 9 9 15 11 12 3 -3 3 -13 -1 -22z m24 -464 c0 -5 -5
-10 -11 -10 -5 0 -7 5 -4 10 3 6 8 10 11 10 2 0 4 -4 4 -10z"/>
<path d="M11789 16568 c-305 -23 -595 -221 -738 -505 -123 -245 -119 -603 9
-905 95 -222 316 -435 610 -587 230 -119 420 -169 670 -178 237 -8 400 25 400
81 0 14 -9 31 -20 39 -18 13 -30 12 -88 0 -76 -17 -251 -22 -362 -10 -330 36
-670 193 -904 417 -175 168 -249 322 -291 608 -24 160 -2 304 70 467 125 284
412 465 740 468 235 3 380 -75 462 -249 121 -255 38 -548 -187 -653 -76 -36
-193 -37 -262 -3 -134 66 -217 203 -189 310 12 42 71 105 114 121 57 22 104
14 146 -24 82 -75 165 -18 95 65 -116 138 -367 86 -444 -91 -32 -76 -26 -191
14 -274 103 -209 363 -301 570 -202 201 96 306 275 306 519 0 163 -57 312
-161 423 -123 131 -301 183 -560 163z"/>
<path d="M7888 16040 c-321 -58 -529 -314 -505 -620 10 -125 59 -243 132 -315
122 -122 342 -160 499 -87 80 38 139 96 177 175 38 80 41 186 8 274 -43 115
-158 191 -270 181 -64 -7 -113 -41 -144 -102 -54 -107 -16 -257 59 -238 32 8
36 21 29 104 -5 73 -5 77 20 102 56 55 151 17 200 -79 44 -88 25 -188 -52
-265 -63 -63 -126 -84 -231 -78 -192 11 -306 137 -317 353 -4 75 -2 101 17
155 128 382 621 454 983 145 249 -213 397 -575 397 -975 0 -115 6 -130 51
-130 45 0 52 35 46 238 -7 236 -39 376 -130 561 -85 176 -220 342 -352 436
-82 58 -209 120 -297 145 -82 23 -247 34 -320 20z"/>
<path d="M5866 15953 c-14 -8 -32 -11 -38 -7 -6 4 -8 3 -4 -4 4 -6 -1 -10 -11
-9 -24 1 -114 -44 -107 -54 3 -5 -2 -6 -10 -3 -9 4 -18 -1 -22 -10 -3 -9 -11
-16 -18 -16 -19 -1 -161 -117 -158 -130 1 -6 -2 -9 -7 -6 -13 8 -122 -94 -114
-107 3 -5 2 -7 -4 -4 -13 8 -86 -67 -76 -78 5 -4 3 -5 -4 -1 -13 7 -26 -9 -31
-39 -1 -11 -10 -27 -19 -35 -15 -14 -16 -13 -4 3 8 9 12 20 9 23 -5 4 -16 -7
-74 -79 -8 -10 -11 -23 -8 -30 4 -7 3 -9 -1 -4 -5 4 -17 0 -27 -10 -20 -18
-25 -38 -6 -27 7 4 8 3 4 -5 -4 -6 -11 -9 -16 -6 -5 3 -17 -7 -27 -22 -10 -15
-24 -33 -32 -39 -8 -7 -11 -16 -6 -24 5 -8 4 -11 -2 -7 -6 4 -17 0 -24 -9 -10
-13 -10 -17 2 -26 12 -8 12 -9 -1 -5 -22 7 -92 -94 -84 -120 4 -13 3 -15 -4
-4 -15 21 -25 -5 -12 -31 10 -20 10 -21 -3 -6 -10 13 -16 15 -25 6 -15 -15
-15 -31 0 -22 7 4 8 3 4 -5 -4 -6 -12 -9 -17 -6 -5 4 -15 -7 -21 -22 -7 -15
-21 -37 -30 -47 -20 -22 -15 -38 10 -30 14 5 14 4 3 -4 -8 -6 -20 -8 -28 -5
-9 4 -11 0 -7 -11 4 -10 1 -16 -9 -16 -9 0 -18 -8 -21 -18 -3 -10 -22 -42 -41
-72 -27 -42 -35 -63 -31 -87 2 -18 0 -30 -5 -27 -5 3 -7 9 -4 14 3 5 1 11 -4
14 -11 7 -35 -49 -26 -64 3 -6 1 -9 -7 -8 -7 2 -12 -5 -12 -14 1 -10 -2 -16
-6 -13 -4 3 -25 -27 -45 -67 -21 -39 -32 -67 -25 -63 17 10 5 -11 -23 -42 -10
-12 -16 -26 -13 -31 3 -6 -1 -12 -9 -16 -8 -3 -15 -11 -15 -18 0 -7 -16 -44
-35 -82 -35 -66 -35 -69 -18 -90 10 -11 11 -15 3 -8 -8 6 -17 12 -21 12 -6 0
-73 -156 -74 -170 0 -3 -8 -24 -17 -45 -60 -141 -122 -340 -112 -357 4 -6 3
-8 -3 -5 -9 6 -21 -28 -28 -78 -1 -5 -7 -23 -13 -38 -7 -16 -12 -37 -12 -48 0
-28 -16 -55 -58 -97 -34 -34 -93 -140 -141 -255 l-21 -49 -55 65 c-59 70 -129
113 -165 102 -27 -9 -43 -41 -35 -73 9 -37 61 -138 92 -178 29 -39 30 -38 -72
-53 -142 -22 -205 -52 -205 -100 0 -63 81 -77 267 -45 52 9 97 14 100 11 3 -3
-7 -50 -21 -105 -30 -114 -34 -193 -10 -216 19 -19 18 -19 53 -1 34 17 77 84
116 178 15 37 30 67 33 67 2 0 25 -15 51 -34 149 -109 275 -119 256 -21 -5 23
-50 125 -93 207 -2 3 30 26 70 50 40 24 99 68 131 98 48 45 59 61 59 88 1 37
-14 52 -50 52 -25 0 -174 -55 -241 -89 -23 -12 -45 -20 -50 -17 -13 8 24 181
44 207 10 13 38 40 61 59 40 33 100 101 75 86 -6 -4 -11 -2 -11 4 0 6 8 9 18
6 12 -4 27 3 43 21 13 14 19 23 12 19 -6 -3 -14 -2 -18 3 -3 6 3 8 14 6 24 -4
94 53 84 68 -3 6 -1 7 5 3 7 -4 12 -2 12 4 0 6 4 9 9 5 5 -3 21 9 36 27 15 18
24 27 20 19 -4 -7 19 8 51 34 74 59 84 70 62 62 -10 -3 -20 -2 -23 3 -3 4 7 7
22 5 26 -3 43 7 98 53 12 9 14 13 5 7 -13 -8 -13 -8 -3 6 7 9 9 20 5 25 -4 4
1 2 11 -5 16 -13 35 -7 57 20 3 3 15 11 28 18 20 11 21 15 10 29 -12 15 -11
16 4 3 16 -12 26 -8 84 30 37 24 74 50 82 59 9 8 18 15 21 15 3 0 5 4 3 8 -1
4 3 7 10 5 18 -3 78 30 78 43 0 6 5 7 10 4 6 -3 10 -1 10 4 0 6 6 11 14 11 7
0 19 7 26 15 7 8 17 12 23 8 6 -3 7 -1 3 5 -4 7 -2 12 5 12 8 0 7 5 -2 18 -13
15 -12 16 3 3 10 -7 15 -18 12 -23 -4 -5 18 4 47 22 74 42 74 42 88 65 11 17
12 17 7 2 -5 -15 10 -10 71 24 43 23 80 46 81 51 2 4 8 6 12 3 5 -3 18 3 29
14 11 11 22 17 24 14 9 -8 147 73 140 82 -5 4 -3 5 4 2 15 -9 45 2 37 14 -3 5
3 6 12 2 13 -5 15 -3 9 7 -5 8 -4 11 3 6 13 -8 83 24 76 36 -3 4 2 5 10 2 10
-4 16 -1 16 7 0 7 3 9 7 6 3 -4 11 -3 17 2 6 5 67 37 134 71 98 49 122 66 117
79 -5 12 -3 13 6 4 16 -16 54 2 68 34 9 20 14 23 25 14 11 -9 16 -9 21 0 4 6
1 15 -6 20 -8 5 -9 9 -3 9 5 0 15 -5 21 -11 14 -14 183 95 199 129 6 12 15 26
19 30 5 4 5 1 1 -5 -4 -7 -3 -13 2 -13 16 0 22 13 12 26 -8 9 -6 12 7 10 11 0
17 5 17 16 -1 10 2 15 7 13 4 -3 13 4 19 15 6 11 8 20 4 20 -3 0 -1 6 5 14 8
9 8 21 0 45 -11 32 -24 40 -33 19 -2 -7 -4 -4 -3 7 1 11 -2 22 -8 24 -5 2 -15
11 -21 19 -6 8 -16 12 -22 8 -7 -4 -12 -2 -12 5 0 8 -10 9 -30 5 -18 -3 -29
-2 -25 3 3 5 -42 9 -105 9 -65 0 -108 -4 -104 -9 3 -6 -11 -7 -35 -3 -30 5
-44 2 -56 -10 -9 -9 -22 -16 -28 -16 -7 0 -6 4 3 10 13 8 13 10 -2 10 -9 0
-19 -4 -23 -9 -3 -6 -14 -8 -25 -6 -11 2 -22 0 -25 -6 -4 -5 -1 -9 6 -9 7 0 9
-3 6 -6 -4 -4 -13 -2 -21 5 -13 11 -66 4 -126 -17 -32 -11 -39 -10 -33 6 4 10
2 13 -5 8 -6 -3 -13 -2 -16 2 -3 5 7 9 22 8 17 0 26 4 24 13 -1 7 2 10 7 6 13
-7 65 19 92 46 17 17 18 23 7 37 -12 15 -11 16 4 3 10 -7 15 -18 11 -24 -7
-12 2 -7 82 47 33 22 66 47 73 55 9 10 11 11 6 2 -4 -8 14 0 39 18 26 18 47
37 47 42 0 6 4 8 9 5 5 -4 24 9 42 26 18 18 38 32 44 30 7 -1 19 5 26 15 12
15 12 16 -3 10 -12 -4 -18 -1 -18 9 0 12 4 13 20 4 26 -14 45 -4 29 16 -6 7
-16 11 -22 7 -6 -3 -7 -1 -3 5 5 9 13 8 30 -4 23 -14 26 -13 61 21 21 19 42
35 47 35 6 0 8 7 5 15 -4 8 -1 17 5 21 7 4 8 3 4 -4 -13 -22 5 -12 50 25 24
21 42 43 40 50 -3 6 2 17 10 23 8 7 14 9 14 5 0 -14 30 17 45 48 17 34 20 50
5 27 -8 -13 -10 -12 -10 3 0 9 5 17 10 17 19 0 10 29 -16 49 -30 23 -49 28
-38 9 6 -10 4 -10 -7 0 -21 20 -164 11 -229 -15 -8 -4 -19 -7 -23 -7 -4 -1
-12 -8 -17 -16 -7 -11 -10 -12 -10 -2 0 10 -9 8 -36 -7 -19 -12 -33 -17 -29
-12 3 5 -12 2 -34 -7 -22 -9 -37 -20 -35 -24 3 -4 -2 -5 -10 -2 -14 6 -96 -31
-107 -48 -3 -5 -9 -9 -13 -9 -24 3 -30 0 -16 -10 12 -8 11 -9 -6 -4 -13 3 -31
-2 -47 -15 -14 -11 -30 -20 -36 -20 -6 0 -15 -9 -21 -20 -6 -10 -16 -17 -24
-14 -7 3 -28 -10 -47 -28 -18 -18 -29 -27 -25 -20 12 19 -149 -94 -190 -133
-33 -32 -74 -59 -101 -67 -23 -6 -24 -6 -9 11 9 10 13 21 9 26 -5 4 -3 5 4 1
8 -4 15 2 19 19 3 14 9 24 12 21 9 -9 43 43 36 55 -4 7 -3 9 3 6 6 -4 17 1 24
10 12 14 12 16 -1 9 -8 -4 -6 0 4 8 18 14 15 20 -6 17 -4 0 -5 6 -1 15 4 12 8
13 14 3 6 -10 11 -10 23 0 9 8 16 17 16 22 0 5 17 33 37 61 21 29 30 47 20 39
-15 -12 -17 -12 -11 3 4 10 1 16 -7 16 -8 0 -1 9 15 19 17 11 33 18 37 15 10
-6 30 31 22 40 -3 3 -1 6 5 6 15 0 55 77 47 90 -3 6 -1 10 5 10 6 0 8 5 5 10
-3 6 -1 10 6 10 6 0 9 8 6 20 -3 11 -2 18 3 15 9 -5 20 43 20 87 0 17 -4 27
-10 23 -5 -3 -8 0 -5 7 2 7 -1 20 -8 29 -30 39 -91 48 -141 22z m84 -13 c-6
-11 -13 -20 -16 -20 -2 0 0 9 6 20 6 11 13 20 16 20 2 0 0 -9 -6 -20z m21 -13
c-10 -9 -11 -8 -5 6 3 10 9 15 12 12 3 -3 0 -11 -7 -18z m-215 -63 c2 -12 -1
-13 -12 -3 -7 6 -11 16 -8 21 7 11 17 3 20 -18z m-21 -14 c3 -6 -1 -7 -9 -4
-18 7 -21 14 -7 14 6 0 13 -4 16 -10z m-95 -40 c0 -5 -5 -10 -11 -10 -5 0 -7
5 -4 10 3 6 8 10 11 10 2 0 4 -4 4 -10z m340 -54 c0 -3 -4 -8 -10 -11 -5 -3
-10 -1 -10 4 0 6 5 11 10 11 6 0 10 -2 10 -4z m-335 -36 c3 -6 -1 -7 -9 -4
-18 7 -21 14 -7 14 6 0 13 -4 16 -10z m63 -19 c47 -44 41 -71 -31 -148 -27
-29 -29 -34 -16 -50 12 -16 12 -17 -2 -6 -17 14 -39 0 -39 -25 0 -7 -4 -11 -9
-8 -4 3 -18 -5 -30 -18 -16 -17 -19 -25 -10 -28 9 -3 7 -7 -5 -11 -10 -4 -15
-3 -11 3 3 6 -3 10 -14 10 -22 0 -36 -16 -21 -23 6 -3 5 -4 -2 -3 -7 2 -13 7
-13 13 0 6 -11 24 -25 40 -14 15 -30 35 -35 43 -7 13 -6 13 7 2 14 -11 17 -10
23 9 4 12 26 43 48 68 23 25 30 37 17 26 -40 -34 -59 -43 -23 -12 18 16 31 33
28 37 -3 4 3 6 13 3 10 -2 27 6 41 21 21 22 22 28 10 43 -12 16 -12 17 1 7 11
-9 22 -7 43 6 20 12 24 19 15 23 -7 3 -8 6 -3 6 6 1 25 -12 43 -28z m49 15 c0
-8 -6 -12 -15 -9 -11 5 -11 7 0 14 7 5 13 9 14 9 0 0 1 -6 1 -14z m-194 -59
c4 3 7 1 7 -5 0 -17 -16 -15 -31 6 -12 15 -12 16 2 5 9 -7 19 -10 22 -6z m370
-2 c-3 -9 -8 -14 -10 -11 -3 3 -2 9 2 15 9 16 15 13 8 -4z m598 -16 c-13 -10
-28 -19 -35 -19 -6 0 1 8 17 18 15 9 27 21 27 26 0 5 3 6 8 2 4 -4 -4 -16 -17
-27z m-1108 -18 c5 -19 -15 -23 -30 -6 -4 4 -2 5 5 1 7 -4 12 -1 12 8 0 22 7
20 13 -3z m962 -19 c-3 -3 -11 0 -18 7 -9 10 -8 11 6 5 10 -3 15 -9 12 -12z
m41 -7 c-1 -8 -5 -17 -8 -21 -5 -4 -4 16 1 34 3 9 9 -1 7 -13z m81 1 c18 -1
33 2 33 7 0 4 4 7 8 7 5 0 8 -27 8 -59 0 -33 -3 -58 -7 -56 -4 3 -9 -2 -13
-10 -3 -8 -13 -15 -23 -15 -25 -1 -58 -28 -58 -47 0 -9 -6 -18 -13 -19 -7 -1
-8 0 -2 3 5 2 7 9 4 14 -3 6 -11 6 -20 -2 -7 -6 -11 -16 -7 -22 3 -5 2 -7 -4
-4 -10 6 -61 -7 -97 -25 -11 -6 -16 -6 -12 0 7 12 -20 36 -33 28 -5 -3 -11 1
-14 9 -4 9 -1 12 9 8 9 -3 14 1 14 12 0 10 -5 14 -12 9 -7 -4 -10 -4 -6 1 4 4
2 15 -5 24 -11 14 -10 14 6 2 17 -13 22 -8 19 20 -1 4 17 13 39 22 23 9 38 21
35 26 -4 5 2 9 11 9 29 -2 95 43 89 59 -4 9 -2 11 6 7 6 -4 26 -7 45 -8z
m-643 -5 c3 -5 -1 -11 -9 -14 -9 -4 -12 -1 -8 9 6 16 10 17 17 5z m903 -16 c0
-8 -4 -12 -9 -9 -5 3 -6 10 -3 15 9 13 12 11 12 -6z m-487 1 c0 -2 -7 -7 -16
-10 -8 -3 -12 -2 -9 4 6 10 25 14 25 6z m60 -6 c8 -5 12 -11 10 -14 -3 -2 -14
2 -24 10 -22 15 -10 19 14 4z m-992 -16 c-4 -11 -28 -14 -28 -4 0 8 22 20 28
14 2 -1 2 -6 0 -10z m118 1 c-1 -8 -5 -17 -8 -21 -5 -4 -4 16 1 34 3 9 9 -1 7
-13z m249 5 c-3 -5 -12 -10 -18 -10 -7 0 -6 4 3 10 19 12 23 12 15 0z m15 -19
c0 -14 -29 -21 -36 -9 -4 6 -3 8 4 4 6 -3 13 -2 17 4 8 12 15 13 15 1z m27 -6
c0 -8 -4 -12 -9 -9 -5 3 -6 10 -3 15 9 13 12 11 12 -6z m538 -25 c4 -6 3 -9
-2 -8 -4 1 -19 -4 -33 -11 l-25 -12 25 20 c30 24 27 24 35 11z m391 -15 c1 -9
-4 -11 -14 -7 -10 4 -12 7 -4 10 7 2 9 9 5 15 -3 7 -2 8 2 4 5 -4 10 -14 11
-22z m-896 11 c0 -3 -4 -8 -10 -11 -5 -3 -10 -1 -10 4 0 6 5 11 10 11 6 0 10
-2 10 -4z m10 -30 c0 -3 -4 -8 -10 -11 -5 -3 -10 -1 -10 4 0 6 5 11 10 11 6 0
10 -2 10 -4z m737 -22 c-3 -3 -12 -4 -19 -1 -8 3 -5 6 6 6 11 1 17 -2 13 -5z
m-940 -26 c-3 -8 -6 -5 -6 6 -1 11 2 17 5 13 3 -3 4 -12 1 -19z m204 -11 c-10
-9 -11 -8 -5 6 3 10 9 15 12 12 3 -3 0 -11 -7 -18z m799 -4 c0 -3 -7 -2 -16 1
-12 4 -14 1 -9 -13 3 -11 2 -22 -3 -24 -6 -4 -9 40 -3 50 2 4 31 -9 31 -14z
m-1125 -3 c3 -6 -1 -7 -9 -4 -18 7 -21 14 -7 14 6 0 13 -4 16 -10z m440 -49
c3 -5 2 -12 -3 -15 -5 -3 -9 1 -9 9 0 17 3 19 12 6z m-349 -23 c0 -10 -1 -18
-3 -18 -1 0 -7 8 -12 18 -7 13 -6 19 2 19 7 0 13 -9 13 -19z m-100 0 c4 -7 3
-8 -4 -4 -7 4 -12 2 -12 -5 0 -7 -3 -10 -6 -6 -6 5 3 27 11 27 2 0 7 -5 11
-12z m265 -5 c13 -16 12 -17 -3 -4 -14 11 -18 11 -18 1 0 -8 -3 -11 -6 -7 -5
5 3 27 10 27 2 0 10 -8 17 -17z m-211 -3 c-13 -9 -13 -10 0 -11 8 -1 19 -1 23
0 5 1 6 -3 3 -8 -4 -5 -2 -12 2 -15 16 -10 4 -55 -22 -86 -15 -18 -23 -38 -20
-48 5 -13 4 -14 -4 -3 -8 11 -14 8 -28 -15 -20 -32 -62 -73 -90 -90 -18 -11
-64 2 -64 19 0 5 -4 6 -9 3 -5 -3 -15 2 -22 12 -13 15 -12 16 4 3 15 -12 17
-11 17 18 0 30 16 53 130 184 13 15 32 27 41 27 10 0 21 5 24 10 3 6 12 10 18
10 7 0 6 -4 -3 -10z m910 1 c0 -5 -7 -11 -14 -14 -10 -4 -13 -1 -9 9 6 15 23
19 23 5z m-524 -13 c4 -7 3 -8 -5 -4 -6 4 -26 -2 -45 -13 -18 -11 -36 -18 -39
-14 -11 11 3 22 20 16 12 -5 14 -3 8 7 -5 8 -4 11 1 7 6 -3 16 -2 24 4 20 12
27 11 36 -3z m-326 -40 c0 -19 -16 -5 -17 14 -2 18 0 20 7 8 5 -8 10 -18 10
-22z m486 1 c25 -21 17 -67 -18 -98 -18 -16 -28 -33 -24 -40 4 -6 12 -9 17 -6
5 4 9 1 9 -4 0 -14 -6 -14 -29 1 -28 17 -51 -5 -47 -47 1 -19 -2 -31 -7 -28
-5 3 -7 14 -4 24 7 26 -6 24 -43 -7 -20 -17 -45 -27 -70 -29 -22 -1 -37 1 -35
5 2 4 -2 15 -9 25 -12 17 -10 65 3 65 3 0 12 9 19 21 8 12 9 18 3 14 -18 -11
-12 -1 11 19 18 16 20 16 15 2 -6 -14 -2 -14 23 4 17 12 30 24 30 27 0 3 -8
-1 -17 -8 -16 -13 -17 -12 -4 3 7 10 17 15 22 12 11 -7 69 36 69 52 0 15 65
10 86 -7z m-952 -17 c3 -5 -1 -9 -9 -9 -8 0 -12 4 -9 9 3 4 7 8 9 8 2 0 6 -4
9 -8z m476 -13 c-7 -11 -14 -18 -17 -15 -3 3 0 12 7 21 18 21 23 19 10 -6z
m345 11 c-3 -5 -12 -10 -18 -10 -7 0 -6 4 3 10 19 12 23 12 15 0z m-321 -36
c3 -8 2 -12 -4 -9 -6 3 -10 10 -10 16 0 14 7 11 14 -7z m-274 -29 c0 -1 -10
-10 -22 -21 -14 -12 -18 -13 -10 -3 6 9 10 18 7 21 -3 2 2 5 10 5 8 0 15 -1
15 -2z m474 -7 c-3 -4 -11 -5 -19 -1 -21 7 -19 12 4 10 11 0 18 -5 15 -9z
m396 2 c8 -5 11 -10 5 -10 -5 0 -17 5 -25 10 -8 5 -10 10 -5 10 6 0 17 -5 25
-10z m-130 -4 c0 -2 -7 -7 -16 -10 -8 -3 -12 -2 -9 4 6 10 25 14 25 6z m110
-16 c0 -5 -2 -10 -4 -10 -3 0 -8 5 -11 10 -3 6 -1 10 4 10 6 0 11 -4 11 -10z
m-383 -15 c4 -4 3 -5 -4 -1 -6 3 -14 2 -18 -4 -4 -6 -11 -8 -16 -4 -5 3 -7 9
-4 14 6 10 31 7 42 -5z m-790 -10 c0 -8 -4 -15 -9 -15 -10 0 -11 14 -1 23 9
10 10 9 10 -8z m464 -26 c-5 -13 -10 -19 -10 -12 -1 15 10 45 15 40 3 -2 0
-15 -5 -28z m544 -88 c3 -5 1 -12 -5 -16 -5 -3 -10 1 -10 9 0 18 6 21 15 7z
m-63 -25 c10 6 11 4 0 -7 -10 -11 -15 -10 -30 6 -15 17 -15 18 0 6 9 -7 23 -9
30 -5z m523 -6 c-3 -5 -12 -10 -18 -10 -7 0 -6 4 3 10 19 12 23 12 15 0z
m-1554 -32 c-10 -11 -11 -9 -5 6 6 15 4 17 -6 11 -9 -6 -11 -4 -5 4 5 9 10 10
18 2 8 -8 7 -14 -2 -23z m1359 6 c0 -3 -13 -3 -29 -2 -16 1 -28 5 -26 9 5 6
55 0 55 -7z m230 2 c0 -2 -9 -6 -20 -9 -11 -3 -18 -1 -14 4 5 9 34 13 34 5z
m-950 -20 c0 -2 -8 -10 -17 -17 -16 -13 -17 -12 -4 4 13 16 21 21 21 13z
m-102 -20 c-7 -8 -15 -12 -17 -11 -5 6 10 25 20 25 5 0 4 -6 -3 -14z m46 -18
c-5 -8 3 -9 25 -5 26 6 36 2 56 -19 26 -28 24 -46 -8 -81 -11 -13 -17 -23 -12
-23 5 0 -5 -12 -23 -26 -17 -15 -29 -32 -25 -38 3 -6 2 -8 -2 -3 -10 8 -45
-20 -45 -37 -1 -6 -18 -23 -40 -38 -36 -25 -41 -26 -66 -13 -15 8 -30 12 -33
10 -4 -2 -5 15 -3 38 3 28 13 52 31 71 14 16 21 26 15 23 -6 -3 -11 0 -11 7 0
8 6 12 14 9 16 -6 78 52 69 66 -4 5 -2 12 4 16 6 4 8 10 6 14 -3 4 1 8 9 8 12
0 12 -4 -2 -21 -14 -17 -12 -16 9 3 16 14 25 31 23 42 -2 11 0 17 6 14 5 -4 6
-11 3 -17z m478 -20 c-7 -7 -12 -8 -12 -2 0 14 12 26 19 19 2 -3 -1 -11 -7
-17z m173 -28 c3 -6 -1 -7 -9 -4 -18 7 -21 14 -7 14 6 0 13 -4 16 -10z m59 -6
c3 -8 2 -12 -4 -9 -6 3 -10 10 -10 16 0 14 7 11 14 -7z m-587 -16 c-3 -8 -6
-5 -6 6 -1 11 2 17 5 13 3 -3 4 -12 1 -19z m470 7 c0 -8 -4 -12 -9 -9 -5 3 -6
10 -3 15 9 13 12 11 12 -6z m123 -21 c2 -3 5 -30 6 -60 1 -38 -2 -52 -9 -45
-9 9 -55 -14 -77 -39 -3 -3 -18 -12 -34 -20 -16 -8 -43 -28 -60 -45 -16 -16
-26 -23 -22 -15 4 8 0 6 -8 -4 -9 -11 -16 -16 -16 -10 0 5 -10 -2 -21 -16 -11
-14 -18 -19 -14 -12 5 9 0 11 -18 8 -14 -2 -28 -1 -32 2 -4 4 -12 7 -18 7 -14
0 -16 64 -4 82 5 7 5 18 1 24 -4 7 -3 9 3 6 9 -6 130 65 143 83 3 4 14 9 25
12 13 2 19 10 17 23 -2 17 -1 18 8 5 9 -13 12 -13 23 1 7 9 21 19 32 21 22 5
66 0 75 -8z m-822 -14 c-7 -10 -14 -17 -17 -15 -4 4 18 35 25 35 2 0 -1 -9 -8
-20z m-313 -30 c4 -6 9 -8 13 -6 4 2 7 -16 7 -40 0 -24 -3 -44 -6 -44 -4 0
-14 -12 -24 -26 -12 -18 -13 -24 -4 -19 8 3 6 0 -3 -8 -21 -17 -98 -147 -98
-165 0 -24 -43 -51 -81 -52 -27 0 -38 5 -46 23 -21 42 -22 56 -8 71 8 7 11 16
8 20 -4 3 -1 6 5 6 12 0 48 59 44 73 -1 4 3 7 8 7 6 0 10 8 10 17 0 9 3 13 7
10 7 -8 76 101 76 120 0 7 4 10 8 7 4 -2 10 0 14 6 3 5 19 10 35 10 16 0 32
-5 35 -10z m924 -13 c0 -9 -2 -8 -6 1 -2 6 -10 9 -15 6 -7 -4 -8 -2 -4 5 9 13
26 5 25 -12z m-704 3 c3 -5 1 -10 -4 -10 -6 0 -11 5 -11 10 0 6 2 10 4 10 3 0
8 -4 11 -10z m-15 -35 c0 -5 -5 -3 -10 5 -5 8 -10 20 -10 25 0 6 5 3 10 -5 5
-8 10 -19 10 -25z m1273 20 c4 -8 3 -16 -1 -19 -4 -3 -9 4 -9 15 -2 23 3 25
10 4z m-685 -70 c-3 -3 -9 2 -12 12 -6 14 -5 15 5 6 7 -7 10 -15 7 -18z m-947
2 c-6 -8 -8 -17 -4 -21 4 -4 0 -4 -10 0 -17 6 -17 7 0 20 23 17 28 18 14 1z
m1484 3 c3 -6 -1 -7 -9 -4 -18 7 -21 14 -7 14 6 0 13 -4 16 -10z m-1102 -21
c-8 -8 -13 -7 -18 2 -5 8 -4 10 3 5 7 -4 12 -2 12 5 0 7 3 9 7 6 4 -4 2 -12
-4 -18z m902 -9 c3 -5 1 -10 -4 -10 -6 0 -11 5 -11 10 0 6 2 10 4 10 3 0 8 -4
11 -10z m-15 -20 c8 -5 11 -10 5 -10 -5 0 -17 5 -25 10 -8 5 -10 10 -5 10 6 0
17 -5 25 -10z m-1116 -46 c5 -14 4 -15 -9 -4 -13 11 -18 10 -31 -6 -14 -18
-15 -18 -4 4 13 26 35 29 44 6z m983 1 c0 -8 -4 -12 -9 -9 -5 3 -6 10 -3 15 9
13 12 11 12 -6z m-216 -28 c-10 -9 -11 -8 -5 6 3 10 9 15 12 12 3 -3 0 -11 -7
-18z m173 -5 c3 -5 -1 -9 -9 -9 -8 0 -12 4 -9 9 3 4 7 8 9 8 2 0 6 -4 9 -8z
m-1213 -46 c5 3 9 0 9 -6 0 -15 -23 -7 -26 8 -1 7 0 8 3 2 2 -5 9 -8 14 -4z
m1384 -6 c4 -6 -1 -7 -11 -3 -13 5 -15 3 -9 -7 5 -9 4 -11 -4 -6 -6 4 -9 12
-6 17 8 12 22 12 30 -1z m-1192 -15 c4 -8 3 -16 -1 -19 -4 -3 -9 4 -9 15 -2
23 3 25 10 4z m457 -40 c0 -12 -19 -12 -23 0 -4 9 -1 12 9 8 7 -3 14 -7 14 -8z
m150 -14 c24 -26 20 -48 -20 -93 -20 -24 -35 -49 -33 -56 3 -6 9 -10 13 -7 5
3 11 1 15 -4 3 -6 -3 -8 -15 -6 -11 2 -20 0 -20 -6 0 -5 5 -9 11 -9 5 0 7 -5
3 -11 -10 -16 -27 17 -18 34 4 6 -2 4 -14 -7 -12 -10 -19 -23 -15 -29 3 -5 2
-7 -4 -4 -6 4 -20 -4 -32 -17 -22 -23 -22 -25 -4 -35 10 -6 13 -11 5 -11 -8 0
-10 -5 -6 -12 4 -8 3 -10 -2 -5 -5 5 -9 14 -9 20 0 8 -16 11 -47 9 -38 -3 -48
0 -57 15 -10 20 -11 94 0 87 3 -2 44 36 90 84 75 78 87 87 114 83 17 -2 37
-11 45 -20z m40 9 c0 -5 -2 -10 -4 -10 -3 0 -8 5 -11 10 -3 6 -1 10 4 10 6 0
11 -4 11 -10z m-162 -17 c-10 -2 -18 -12 -18 -20 0 -9 -3 -14 -6 -10 -12 11 5
37 23 36 17 -1 17 -2 1 -6z m176 -11 c3 -5 -1 -9 -9 -9 -8 0 -15 4 -15 9 0 4
4 8 9 8 6 0 12 -4 15 -8z m356 -1 c0 -5 -7 -12 -16 -15 -14 -5 -15 -4 -4 9 14
17 20 19 20 6z m-1165 -21 c-3 -5 -14 -10 -23 -9 -14 0 -13 2 3 9 27 11 27 11
20 0z m55 5 c0 -7 -30 -13 -34 -7 -3 4 4 9 15 9 10 1 19 0 19 -2z m110 -27 c0
-5 5 -6 12 -2 7 4 8 3 4 -4 -5 -8 1 -12 14 -12 12 0 18 5 15 10 -3 6 2 9 12 7
10 -1 18 -7 18 -12 0 -5 -6 -9 -12 -7 -15 3 -18 -14 -4 -22 5 -3 11 -19 13
-35 3 -18 0 -28 -6 -24 -6 4 -7 -1 -2 -13 4 -10 4 -15 0 -11 -11 11 -43 -43
-36 -61 3 -10 1 -13 -6 -8 -10 6 -39 -30 -35 -44 1 -3 -16 -25 -37 -49 -34
-40 -42 -45 -84 -46 -25 -1 -46 2 -46 7 0 5 6 6 13 2 8 -6 8 -3 -1 9 -8 9 -11
21 -7 26 3 6 1 20 -6 32 -7 14 -7 19 0 15 5 -4 26 17 46 46 35 52 44 75 26 63
-5 -3 -12 -1 -16 4 -3 6 3 8 14 6 14 -3 27 6 42 28 12 18 34 45 48 61 16 18
20 27 10 23 -9 -3 -16 0 -16 7 0 7 6 13 14 13 7 0 13 -4 13 -9z m406 0 c5 -7
3 -8 -6 -3 -10 6 -12 4 -7 -9 4 -9 3 -14 -2 -11 -5 3 -12 1 -16 -5 -4 -6 -11
-8 -16 -5 -5 4 -9 1 -9 -5 0 -6 -5 -8 -11 -4 -8 4 -7 9 2 15 7 4 16 6 21 3 4
-2 12 5 18 16 12 23 16 24 26 8z m472 2 c1 -2 6 -3 11 -4 5 0 12 -4 15 -8 3
-5 3 -6 -1 -3 -3 3 -12 0 -20 -7 -11 -9 -13 -8 -11 3 2 8 -4 13 -14 11 -9 -1
-19 1 -22 6 -4 7 33 8 42 2z m-238 -6 c0 -8 -19 -13 -24 -6 -3 5 1 9 9 9 8 0
15 -2 15 -3z m191 -11 c13 -16 12 -17 -3 -4 -10 7 -18 15 -18 17 0 8 8 3 21
-13z m-228 -20 c-4 -10 -2 -14 4 -10 5 3 10 -1 10 -9 0 -10 -4 -11 -10 -5 -7
7 -17 6 -31 -1 -18 -10 -18 -8 4 15 30 31 31 32 23 10z m-689 -41 c2 -4 -4 -8
-14 -8 -10 0 -16 4 -14 8 3 4 9 8 14 8 5 0 11 -4 14 -8z m766 -2 c-8 -5 -19
-10 -25 -10 -5 0 -3 5 5 10 8 5 20 10 25 10 6 0 3 -5 -5 -10z m75 0 c-3 -5
-12 -10 -18 -10 -7 0 -6 4 3 10 19 12 23 12 15 0z m-1225 -52 c0 -5 -7 -3 -15
6 -8 8 -15 18 -15 22 0 3 7 1 15 -6 8 -7 15 -17 15 -22z m-27 -35 c-3 -7 -7
-13 -10 -13 -3 0 -3 7 0 15 4 8 2 17 -3 20 -6 4 -10 11 -10 18 0 6 6 2 14 -8
8 -11 12 -25 9 -32z m371 11 c3 -8 2 -12 -4 -9 -6 3 -10 10 -10 16 0 14 7 11
14 -7z m-260 -6 c-3 -4 0 -17 6 -28 7 -14 8 -26 2 -33 -11 -14 -27 -77 -23
-94 1 -7 -3 -13 -10 -13 -6 0 -8 -7 -5 -16 4 -10 2 -13 -6 -8 -7 5 -9 2 -5 -9
3 -9 2 -17 -2 -19 -5 -2 -11 -14 -15 -28 -7 -24 -6 -24 8 -6 19 24 21 8 2 -16
-7 -10 -16 -15 -19 -12 -7 7 -22 -65 -18 -85 1 -7 -2 -10 -8 -6 -6 3 -11 -1
-11 -10 0 -9 4 -14 8 -11 5 3 9 -1 9 -9 0 -11 -4 -12 -13 -4 -10 8 -21 5 -44
-11 -17 -12 -29 -16 -28 -10 2 7 -3 15 -11 18 -9 3 -11 0 -7 -9 4 -8 0 -5 -8
5 -9 11 -16 24 -16 29 0 5 -8 3 -17 -4 -16 -12 -17 -12 -7 1 12 15 29 85 27
108 0 6 3 12 8 12 5 0 8 3 7 8 -1 4 6 25 16 47 9 21 18 46 19 55 2 8 6 20 9
26 4 6 16 36 28 67 12 31 29 61 38 67 19 11 93 9 86 -2z m43 -20 c-3 -8 -6 -5
-6 6 -1 11 2 17 5 13 3 -3 4 -12 1 -19z m407 -34 c5 -14 4 -15 -9 -4 -17 14
-19 20 -6 20 5 0 12 -7 15 -16z m436 2 c0 -2 -7 -7 -16 -10 -8 -3 -12 -2 -9 4
6 10 25 14 25 6z m-1078 -38 c-7 -7 -12 -8 -12 -2 0 14 12 26 19 19 2 -3 -1
-11 -7 -17z m45 -10 c-3 -8 -6 -5 -6 6 -1 11 2 17 5 13 3 -3 4 -12 1 -19z
m539 -8 c0 -12 -4 -16 -9 -11 -5 5 -6 14 -3 20 10 15 12 14 12 -9z m-196 -20
c-6 -11 -13 -20 -16 -20 -2 0 0 9 6 20 6 11 13 20 16 20 2 0 0 -9 -6 -20z
m-414 -18 c-17 -16 -18 -16 -5 5 7 12 15 20 18 17 3 -2 -3 -12 -13 -22z m589
18 c3 -5 1 -10 -4 -10 -6 0 -11 5 -11 10 0 6 2 10 4 10 3 0 8 -4 11 -10z m372
-5 c0 -8 -4 -12 -9 -9 -5 3 -6 10 -3 15 9 13 12 11 12 -6z m-917 -39 c0 -3 -4
-8 -10 -11 -5 -3 -10 -1 -10 4 0 6 5 11 10 11 6 0 10 -2 10 -4z m490 -10 c0
-2 -7 -7 -16 -10 -8 -3 -12 -2 -9 4 6 10 25 14 25 6z m-518 -35 c7 11 9 11 6
1 -5 -17 -23 -17 -24 0 -1 9 1 8 4 -1 3 -12 5 -12 14 0z m828 15 c0 -3 -4 -8
-10 -11 -5 -3 -10 -1 -10 4 0 6 5 11 10 11 6 0 10 -2 10 -4z m-103 -44 c-10
-10 -17 -24 -17 -31 0 -7 -5 -9 -11 -6 -7 5 -2 16 12 31 26 28 40 33 16 6z
m-749 -17 c-3 -3 -9 2 -12 12 -6 14 -5 15 5 6 7 -7 10 -15 7 -18z m216 9 c3
-8 2 -12 -4 -9 -6 3 -10 10 -10 16 0 14 7 11 14 -7z m566 12 c0 -2 -8 -10 -17
-17 -16 -13 -17 -12 -4 4 13 16 21 21 21 13z m-823 -78 c-3 -8 -6 -5 -6 6 -1
11 2 17 5 13 3 -3 4 -12 1 -19z m693 -10 c0 -4 -4 -8 -9 -8 -6 0 -12 4 -15 8
-3 5 1 9 9 9 8 0 15 -4 15 -9z m-720 -28 c0 -5 -5 -10 -11 -10 -5 0 -7 5 -4
10 3 6 8 10 11 10 2 0 4 -4 4 -10z m659 -13 c-2 -2 -11 -8 -20 -15 -12 -9 -16
-9 -16 1 0 7 9 14 20 14 11 1 18 1 16 0z m-101 -42 c-3 -3 -9 2 -12 12 -6 14
-5 15 5 6 7 -7 10 -15 7 -18z m-383 -25 c3 -6 -1 -7 -9 -4 -18 7 -21 14 -7 14
6 0 13 -4 16 -10z m-15 -15 c0 -7 -30 -13 -34 -7 -3 4 4 9 15 9 10 1 19 0 19
-2z m251 -78 c-10 -9 -11 -8 -5 6 3 10 9 15 12 12 3 -3 0 -11 -7 -18z m-464
-49 c-3 -8 -6 -5 -6 6 -1 11 2 17 5 13 3 -3 4 -12 1 -19z m359 -7 c-4 -5 -1
-11 6 -13 8 -3 6 -6 -4 -10 -11 -5 -15 -2 -13 10 5 23 4 22 11 22 3 0 3 -4 0
-9z m-73 -54 c3 -8 -1 -14 -8 -14 -7 0 -11 6 -8 14 3 7 6 13 8 13 2 0 5 -6 8
-13z m-355 -172 c-3 -3 -9 2 -12 12 -6 14 -5 15 5 6 7 -7 10 -15 7 -18z m44
-87 c-10 -9 -16 -8 -30 7 -16 18 -16 18 1 6 16 -13 22 -8 17 14 -1 6 4 4 11
-2 10 -10 10 -16 1 -25z m63 22 c-3 -5 -1 -10 6 -10 7 0 10 -3 6 -6 -9 -9 -28
6 -22 17 4 5 8 9 11 9 3 0 2 -4 -1 -10z m-92 -65 c-4 -11 -1 -13 13 -8 16 6
17 5 4 -9 -11 -11 -17 -12 -22 -4 -11 16 -10 48 2 41 5 -3 7 -12 3 -20z"/>
<path d="M4026 15819 c3 -5 -4 -9 -15 -9 -37 0 -58 -81 -25 -94 8 -3 13 -10
10 -15 -10 -16 6 -42 22 -36 12 4 13 3 2 -10 -10 -12 -10 -15 0 -15 8 0 11 -3
7 -6 -3 -3 -1 -19 5 -35 9 -25 12 -28 26 -17 13 11 14 11 5 -6 -8 -14 -5 -29
10 -60 11 -22 23 -43 27 -46 4 -3 13 -22 19 -42 7 -21 17 -38 22 -38 5 0 8 -3
8 -7 -3 -21 2 -33 13 -27 7 5 8 3 4 -5 -9 -14 12 -71 26 -71 5 0 6 -4 3 -10
-3 -5 -1 -10 5 -10 6 0 8 -4 5 -10 -3 -5 -1 -10 4 -10 6 0 10 -3 10 -7 -3 -20
2 -34 11 -28 5 3 7 0 4 -9 -4 -11 1 -14 23 -12 15 1 35 6 43 11 13 8 13 6 1
-8 -7 -9 -18 -14 -24 -10 -6 4 -8 0 -4 -10 4 -11 2 -14 -8 -10 -8 3 -12 10 -8
16 4 6 1 7 -6 2 -9 -5 -7 -13 10 -31 22 -24 35 -32 25 -16 -3 5 1 9 8 9 8 0
12 -7 8 -15 -4 -12 0 -14 19 -9 13 4 28 7 33 7 5 0 3 6 -3 14 -10 12 -9 13 7
9 11 -2 24 1 28 9 13 19 14 79 1 71 -6 -3 -7 -1 -3 5 9 14 -33 114 -45 106 -5
-3 -6 1 -3 9 3 8 -2 21 -10 30 -8 8 -12 17 -9 21 4 3 1 6 -5 6 -7 0 -11 3 -11
8 3 20 -2 25 -12 12 -8 -12 -9 -10 -4 7 3 13 2 31 -4 40 -6 10 -11 12 -11 6 0
-7 -5 -13 -10 -13 -7 0 -7 6 -1 18 12 22 -11 58 -31 46 -7 -4 -10 -4 -6 1 4 4
3 17 -3 29 -10 20 -10 20 5 2 9 -11 16 -16 16 -12 0 14 -43 80 -57 89 -7 4
-13 17 -13 29 0 24 -37 88 -51 88 -6 0 -8 4 -5 8 9 15 -39 63 -66 66 -15 2
-25 -1 -22 -5z m49 -28 c-6 -5 -25 10 -25 20 0 5 6 4 14 -3 8 -7 12 -15 11
-17z m75 -90 c0 -5 -7 -12 -16 -15 -14 -5 -15 -4 -4 9 14 17 20 19 20 6z m0
-187 c0 -8 -19 -13 -24 -6 -3 5 1 9 9 9 8 0 15 -2 15 -3z m-3 -84 c1 -11 -2
-20 -7 -20 -6 0 -7 17 -1 38 3 8 7 -1 8 -18z m117 2 c3 -5 -1 -9 -9 -9 -8 0
-12 4 -9 9 3 4 7 8 9 8 2 0 6 -4 9 -8z m17 -55 c-10 -9 -11 -8 -5 6 3 10 9 15
12 12 3 -3 0 -11 -7 -18z m-87 -73 c3 -8 2 -12 -4 -9 -6 3 -10 10 -10 16 0 14
7 11 14 -7z m193 -139 c4 -4 3 -5 -4 -2 -6 4 -13 2 -15 -5 -3 -8 -6 -6 -10 4
-7 17 15 19 29 3z"/>
<path d="M16284 15684 c-102 -69 -569 -456 -584 -484 -31 -58 18 -130 89 -130
35 0 46 7 98 58 32 31 153 138 267 237 283 244 266 227 266 269 0 74 -65 98
-136 50z"/>
<path d="M5884 15565 c-17 -13 -17 -14 -2 -15 9 0 20 5 23 11 11 17 0 20 -21
4z"/>
<path d="M3065 15171 c3 -7 0 -8 -9 -5 -22 8 -20 -13 2 -25 9 -6 12 -11 5 -11
-6 0 -15 5 -18 10 -9 15 -25 2 -25 -21 0 -14 4 -18 13 -13 9 6 9 5 0 -7 -15
-18 -10 -25 47 -70 53 -42 76 -56 67 -42 -3 5 0 10 7 10 8 0 12 -6 10 -12 -7
-17 41 -46 54 -33 7 7 10 4 9 -8 -1 -12 10 -25 28 -34 17 -9 64 -38 105 -65
41 -27 83 -48 92 -47 10 0 21 -4 24 -10 5 -7 2 -8 -7 -4 -8 4 -3 -2 11 -13 16
-13 33 -19 48 -16 12 3 22 1 22 -5 0 -6 -6 -8 -12 -4 -10 6 -10 4 0 -8 7 -9
27 -22 45 -29 18 -7 37 -20 44 -29 7 -8 13 -12 13 -7 0 4 9 -2 20 -13 46 -46
138 -12 147 53 3 22 0 25 -21 23 -17 -2 -23 1 -19 11 4 10 9 11 18 3 18 -15
32 8 15 23 -10 9 -11 9 -5 -2 5 -9 4 -12 -3 -7 -6 4 -9 12 -6 19 2 7 -6 18
-18 24 -71 32 -114 50 -120 52 -5 0 -17 10 -29 22 -15 15 -24 18 -33 9 -15
-12 -46 -4 -46 12 0 6 -7 7 -16 4 -9 -3 -12 -2 -9 5 4 6 13 8 21 5 21 -8 17
13 -3 22 -10 4 -36 19 -58 32 -22 14 -41 24 -43 22 -1 -1 -10 4 -19 13 -8 9
-22 14 -29 11 -7 -3 -16 0 -20 6 -5 7 -2 8 7 4 8 -4 5 0 -6 8 -11 9 -25 14
-33 11 -7 -2 -15 2 -19 11 -5 13 -7 13 -14 2 -7 -10 -9 -9 -9 4 0 23 -20 34
-32 17 -8 -11 -9 -11 -5 2 6 19 -47 54 -65 43 -7 -4 -8 -3 -4 4 8 13 -23 31
-42 25 -7 -3 -11 1 -10 9 2 9 -10 14 -36 16 -25 2 -36 0 -31 -7z m40 -11 c-3
-5 -12 -10 -18 -10 -7 0 -6 4 3 10 19 12 23 12 15 0z m-35 -100 c0 -5 -2 -10
-4 -10 -3 0 -8 5 -11 10 -3 6 -1 10 4 10 6 0 11 -4 11 -10z m85 -40 c-3 -5
-12 -10 -18 -10 -7 0 -6 4 3 10 19 12 23 12 15 0z m39 -38 c3 -5 -1 -9 -9 -9
-8 0 -12 4 -9 9 3 4 7 8 9 8 2 0 6 -4 9 -8z m156 -42 c0 -5 -2 -10 -4 -10 -3
0 -8 5 -11 10 -3 6 -1 10 4 10 6 0 11 -4 11 -10z m124 -9 c3 -5 -1 -14 -8 -20
-12 -10 -13 -8 -9 8 6 23 9 25 17 12z m-134 -21 c0 -5 -2 -10 -4 -10 -3 0 -8
5 -11 10 -3 6 -1 10 4 10 6 0 11 -4 11 -10z m45 -58 c-3 -3 -11 0 -18 7 -9 10
-8 11 6 5 10 -3 15 -9 12 -12z m280 -11 c3 -5 0 -13 -6 -17 -8 -5 -9 -3 -4 6
6 10 4 12 -9 7 -10 -4 -15 -3 -11 3 8 13 22 13 30 1z m40 -31 c3 -6 -1 -7 -9
-4 -18 7 -21 14 -7 14 6 0 13 -4 16 -10z m-110 -28 c-3 -3 -11 0 -18 7 -9 10
-8 11 6 5 10 -3 15 -9 12 -12z m-38 2 c-3 -3 -12 -4 -19 -1 -8 3 -5 6 6 6 11
1 17 -2 13 -5z m28 -24 c-3 -5 -12 -10 -18 -10 -7 0 -6 4 3 10 19 12 23 12 15
0z m-1 -32 c-3 -4 -11 -5 -19 -1 -21 7 -19 12 4 10 11 0 18 -5 15 -9z m194
-33 c-3 -3 -9 2 -12 12 -6 14 -5 15 5 6 7 -7 10 -15 7 -18z"/>
<path d="M14915 15044 c-108 -17 -249 -82 -337 -156 -168 -141 -277 -401 -278
-664 0 -363 171 -739 446 -979 79 -69 115 -81 134 -46 17 32 13 40 -53 109
-150 159 -229 266 -299 407 -193 385 -153 813 97 1061 165 164 377 206 570
114 159 -76 276 -275 245 -416 -33 -148 -172 -274 -303 -274 -92 0 -177 52
-216 133 -47 98 -8 217 72 217 41 0 62 -14 97 -64 33 -50 59 -63 90 -46 33 18
27 79 -12 131 -78 101 -218 120 -301 41 -54 -51 -72 -98 -72 -192 0 -73 4 -92
28 -138 134 -256 490 -253 656 7 170 264 26 607 -304 727 -62 23 -198 37 -260
28z"/>
<path d="M13281 14970 c-18 -4 -45 -20 -60 -35 -14 -15 -19 -24 -11 -20 8 3 5
-2 -6 -12 -28 -23 -47 -60 -38 -74 4 -6 0 -15 -7 -20 -11 -6 -14 -34 -13 -114
1 -107 13 -148 34 -115 7 11 10 11 10 2 0 -7 -6 -15 -14 -18 -14 -5 -11 -44 4
-44 4 0 12 -12 18 -26 7 -15 17 -23 25 -19 17 9 -19 -21 -97 -80 -97 -73 -592
-647 -869 -1008 -145 -188 -334 -459 -354 -505 -24 -59 12 -134 83 -170 50
-26 128 -33 449 -41 l340 -9 73 24 c163 55 338 55 458 0 l54 -25 213 9 c623
28 683 34 730 81 27 28 29 34 25 89 -5 63 -57 179 -239 529 -171 328 -551 952
-625 1025 -66 67 -81 78 -88 65 -2 -5 -3 -4 -2 3 2 7 8 13 14 13 6 0 18 9 26
20 17 23 21 39 7 30 -5 -3 -13 0 -17 6 -4 8 -3 9 4 5 7 -4 12 -2 12 4 0 6 5 8
10 5 6 -4 10 12 10 40 0 25 5 78 12 116 9 55 9 72 -1 78 -7 5 -10 18 -6 33 13
50 -49 147 -96 151 -10 1 -19 5 -19 9 0 9 -2 9 -49 -2z m128 -78 c-1 -15 -2
-15 -6 1 -2 9 -9 14 -15 11 -7 -4 -8 -2 -4 5 10 15 26 4 25 -17z m-139 3 c-7
-9 -15 -13 -17 -11 -7 7 7 26 19 26 6 0 6 -6 -2 -15z m-102 -250 c-3 -3 -9 2
-12 12 -6 14 -5 15 5 6 7 -7 10 -15 7 -18z m111 -179 c9 -11 9 -16 -1 -22 -7
-4 -10 -4 -6 1 4 4 3 14 -3 22 -6 7 -9 13 -6 13 2 0 10 -6 16 -14z m-61 -159
c29 -23 10 -59 -110 -209 -67 -84 -129 -159 -137 -165 -34 -27 -91 7 -91 54 0
24 236 309 273 329 21 12 41 9 65 -9z m248 -179 c26 -40 77 -120 115 -176 77
-115 87 -154 45 -173 -58 -27 -81 -3 -219 227 -84 141 -88 194 -15 194 24 0
35 -11 74 -72z m-218 -140 c29 -29 12 -65 -100 -214 -139 -183 -168 -214 -202
-214 -32 0 -61 40 -53 73 6 22 253 331 284 355 21 15 55 16 71 0z m-460 -180
c30 -30 13 -65 -104 -214 -64 -82 -125 -157 -136 -166 -25 -22 -56 -23 -80 -1
-38 34 -24 61 117 231 115 138 140 162 163 162 16 0 33 -5 40 -12z m1055 -300
c33 -26 237 -360 237 -389 0 -56 -58 -78 -97 -36 -43 45 -223 360 -223 388 0
42 47 63 83 37z m-977 -163 c22 -33 18 -41 -81 -170 -85 -111 -118 -134 -153
-109 -38 26 -34 61 16 123 151 188 182 210 218 156z m-486 -94 c5 -11 10 -28
10 -38 0 -10 -44 -76 -98 -148 -85 -113 -101 -130 -129 -133 -32 -3 -63 25
-63 58 0 16 49 84 148 204 52 63 67 76 92 76 19 0 33 -7 40 -19z"/>
<path d="M3556 14912 c-3 -6 -1 -14 5 -17 15 -10 25 3 12 16 -7 7 -13 7 -17 1z"/>
<path d="M7233 14590 c-104 -69 -106 -288 -3 -504 16 -33 27 -62 25 -65 -3 -2
-51 10 -108 27 -174 54 -287 61 -418 27 -199 -53 -279 -238 -159 -369 94 -102
287 -157 498 -141 50 4 92 3 91 -2 0 -4 -30 -32 -66 -62 -121 -100 -209 -245
-220 -363 -9 -105 30 -163 130 -189 103 -28 224 31 388 189 97 93 108 101 120
85 12 -14 12 -16 0 -8 -11 6 -13 3 -9 -13 4 -12 2 -20 -2 -17 -9 6 -11 -10
-13 -117 -1 -36 -5 -64 -9 -61 -5 2 -9 -22 -10 -54 -1 -32 -3 -71 -4 -88 -2
-16 -6 -135 -9 -262 -5 -178 -4 -233 6 -233 8 0 8 -4 -1 -15 -7 -9 -15 -13
-18 -10 -3 3 -12 -1 -21 -8 -14 -11 -14 -10 -2 6 19 24 1 43 -27 28 -21 -11
-25 0 -8 27 5 8 1 21 -10 33 -18 20 -40 27 -29 9 3 -6 -1 -7 -10 -3 -12 4 -13
8 -5 13 8 5 1 15 -20 30 -26 18 -36 21 -55 12 -18 -8 -27 -7 -42 4 -10 9 -12
13 -5 9 7 -4 12 0 12 9 0 9 -6 16 -14 16 -8 0 -22 3 -32 7 -12 4 -15 3 -10 -5
5 -8 2 -10 -8 -6 -9 3 -16 11 -16 16 0 6 -6 8 -14 5 -7 -3 -18 -1 -23 4 -5 5
-22 10 -38 13 -17 2 -50 12 -75 23 -25 11 -47 17 -50 12 -3 -4 -12 -4 -20 1
-13 9 -13 10 0 10 8 1 -2 10 -22 20 -20 11 -40 24 -43 30 -4 6 -11 7 -17 4 -6
-4 -5 -10 3 -16 11 -8 11 -9 -1 -5 -8 2 -15 8 -16 13 -2 22 -17 44 -31 44 -8
0 -13 6 -10 13 3 7 -3 24 -13 37 -16 22 -20 23 -37 10 -16 -13 -17 -13 -6 1 7
9 9 20 5 24 -4 5 -1 5 5 1 9 -5 11 -2 7 8 -3 9 -10 16 -15 16 -4 0 -6 6 -3 13
2 7 -3 21 -12 32 -8 11 -13 14 -9 8 3 -7 1 -13 -4 -13 -14 0 -14 17 -1 25 7 4
6 14 -2 28 -7 12 -13 24 -13 27 -9 39 -19 59 -25 55 -5 -3 -6 5 -2 17 4 16 2
19 -8 13 -8 -5 -11 -4 -7 3 8 12 -2 44 -12 37 -4 -2 -8 1 -8 8 0 40 -97 147
-150 165 -54 18 -107 -5 -98 -42 3 -12 2 -15 -1 -8 -12 26 -24 -1 -24 -54 0
-40 3 -53 12 -48 8 5 9 2 5 -10 -6 -16 11 -105 23 -116 3 -3 6 -16 8 -30 1
-14 5 -32 9 -40 3 -8 7 -19 7 -25 6 -47 19 -95 26 -95 4 0 6 -9 3 -20 -3 -11
0 -20 6 -20 5 0 8 -7 5 -15 -4 -8 -1 -15 6 -15 6 0 9 -4 6 -9 -6 -9 37 -147
56 -184 5 -10 14 -15 21 -10 8 4 7 1 -1 -10 -12 -14 -11 -21 4 -47 10 -16 22
-31 26 -31 4 -1 14 -2 20 -3 7 0 14 -10 15 -21 2 -15 1 -16 -5 -5 -4 8 -13 16
-20 18 -9 1 -8 -5 4 -23 9 -14 23 -24 30 -21 9 3 11 0 7 -11 -4 -10 -2 -14 4
-10 6 4 10 -1 9 -11 0 -9 4 -16 9 -15 6 0 16 -5 23 -13 7 -8 10 -14 7 -14 -11
0 49 -47 80 -62 17 -8 36 -13 44 -10 8 3 11 0 7 -7 -7 -11 17 -16 58 -12 10 0
25 -4 32 -10 11 -9 14 -8 14 2 0 12 2 12 9 0 6 -9 18 -11 42 -6 39 9 167 10
189 2 8 -3 35 -8 60 -11 25 -2 56 -8 69 -12 17 -5 22 -4 17 4 -4 7 -2 12 4 12
6 0 10 -7 8 -16 -2 -9 6 -21 16 -28 11 -6 27 -18 36 -26 9 -8 31 -26 48 -40
77 -61 86 -71 75 -89 -6 -10 -9 -32 -7 -51 2 -18 6 -76 9 -129 8 -126 12 -185
15 -191 1 -3 1 -22 0 -42 -1 -21 2 -43 6 -49 4 -7 9 -41 10 -76 2 -36 7 -70
11 -76 4 -7 6 -20 5 -29 -2 -9 9 -67 23 -130 15 -62 27 -121 27 -131 -1 -9 2
-16 6 -13 4 2 8 -9 8 -26 1 -17 7 -34 14 -38 7 -4 10 -15 7 -24 -4 -9 -1 -29
5 -44 6 -15 13 -36 15 -47 10 -55 25 -97 31 -88 4 6 7 -8 8 -30 0 -23 7 -55
14 -72 7 -16 14 -33 15 -37 2 -5 4 -11 5 -15 1 -5 2 -11 1 -15 0 -4 5 -5 13
-2 7 3 16 -2 19 -10 4 -10 1 -13 -9 -9 -17 6 -17 -1 -4 -46 6 -22 6 -39 -1
-50 -8 -13 -9 -12 -4 6 4 16 0 26 -14 35 -12 7 -21 17 -21 22 0 18 -52 76 -62
70 -7 -4 -8 -2 -4 5 7 10 -86 140 -107 149 -4 2 -14 17 -23 33 -8 17 -20 27
-26 23 -6 -4 -8 -3 -5 3 4 6 -13 32 -38 58 -39 43 -46 47 -62 35 -15 -12 -16
-12 -5 0 15 17 16 40 1 40 -5 0 -7 -5 -3 -12 4 -7 3 -8 -5 -4 -6 4 -8 12 -5
18 3 5 -11 27 -32 49 -36 37 -64 53 -48 27 4 -7 3 -8 -4 -4 -6 4 -9 13 -5 21
6 18 -8 19 -27 3 -12 -11 -13 -11 -3 1 8 10 9 20 1 37 -6 13 -14 24 -17 24
-13 0 -11 82 3 109 9 16 13 31 10 34 -4 3 1 16 9 28 9 11 13 28 10 37 -5 11
-3 13 8 7 8 -4 11 -5 7 0 -4 4 -1 20 7 36 8 15 12 36 8 45 -4 12 -3 15 5 10 8
-5 13 1 14 16 2 30 4 40 12 59 4 9 8 27 10 40 2 13 6 31 9 39 29 79 33 341 5
324 -6 -4 -9 -1 -6 7 5 14 -17 69 -28 69 -3 0 -2 -5 2 -12 4 -7 3 -8 -5 -4 -6
4 -9 12 -5 17 8 14 -52 67 -95 86 -42 18 -92 10 -133 -20 -32 -23 -72 -92 -63
-106 3 -5 0 -11 -6 -13 -15 -5 -24 -284 -10 -293 6 -3 8 -12 5 -19 -3 -8 -1
-17 5 -21 6 -3 11 -12 11 -18 0 -7 -4 -6 -10 3 -7 11 -8 2 -4 -30 5 -39 11
-67 29 -144 2 -10 10 -25 17 -34 11 -13 11 -14 0 -8 -10 6 -11 2 -7 -17 5 -19
2 -25 -14 -30 -11 -3 -20 -2 -19 2 2 19 -4 22 -19 10 -16 -12 -17 -12 -6 2 11
13 10 19 -6 33 -20 18 -47 13 -35 -6 5 -7 2 -8 -5 -4 -7 5 -10 11 -7 14 4 3
-4 17 -16 30 -13 14 -17 22 -10 18 6 -4 12 -3 12 3 0 13 -120 117 -132 113 -5
-1 -7 2 -4 7 10 16 -15 25 -26 10 -8 -11 -9 -11 -5 2 7 20 -137 144 -154 133
-7 -4 -9 -3 -6 3 9 15 -62 76 -80 69 -8 -4 -11 -1 -8 5 4 6 0 9 -11 7 -10 -2
-19 3 -20 10 -1 6 -2 17 -3 23 0 6 -8 8 -17 5 -8 -3 -12 -2 -9 4 3 6 3 15 -1
21 -4 8 -9 7 -15 -2 -9 -14 -5 125 7 256 16 172 2 425 -25 445 -3 3 -7 17 -8
33 -2 41 -12 64 -22 48 -6 -10 -10 -9 -14 4 -4 9 -3 13 3 10 19 -12 10 35 -10
55 -11 11 -20 22 -20 25 0 3 0 10 0 16 0 5 -4 7 -10 4 -5 -3 -10 1 -10 9 0 9
-5 16 -11 16 -6 0 -8 -7 -5 -17 4 -10 4 -14 0 -10 -4 4 -13 2 -20 -4 -8 -7
-14 -7 -19 1 -4 6 -1 9 7 8 7 -2 12 5 12 14 -1 10 2 15 7 12 5 -3 9 0 9 5 0 6
-7 11 -16 11 -8 0 -13 4 -10 9 7 11 -62 48 -101 56 -47 8 -98 -13 -138 -56
-31 -35 -34 -43 -23 -57 7 -9 8 -13 2 -9 -15 9 -38 -19 -31 -37 3 -7 1 -18 -5
-24 -14 -14 -1 -102 15 -102 8 0 7 -3 -2 -9 -8 -5 -11 -16 -6 -30 3 -11 8 -33
11 -47 3 -15 9 -35 14 -45 6 -10 10 -27 10 -38 0 -12 5 -21 11 -21 5 0 8 -4 5
-9 -7 -10 51 -161 70 -182 8 -9 11 -19 7 -22 -3 -4 -1 -7 5 -7 7 0 11 -3 10
-7 -3 -16 15 -43 25 -36 6 3 7 1 3 -5 -4 -6 1 -26 10 -43 13 -26 14 -33 2 -40
-7 -5 -14 -4 -16 2 -7 19 -114 80 -130 74 -9 -3 -13 -3 -9 1 3 4 -3 15 -15 25
-26 23 -32 24 -24 4 3 -8 3 -15 0 -15 -2 0 -9 11 -14 25 -5 14 -16 25 -25 25
-8 0 -15 3 -15 8 0 4 -9 13 -21 20 -12 8 -18 9 -15 4 3 -5 -2 -16 -12 -23 -15
-13 -16 -12 -4 2 11 14 9 22 -13 47 -14 17 -25 32 -24 34 7 10 -14 47 -23 42
-7 -4 -8 -2 -4 5 5 7 -3 29 -18 51 -14 22 -26 43 -26 46 0 4 -11 22 -25 40
-14 18 -25 36 -25 40 0 17 -52 74 -62 68 -6 -4 -8 -3 -5 3 8 12 -29 68 -45 68
-7 1 -12 7 -10 13 3 17 -125 145 -138 137 -6 -3 -10 1 -10 10 0 11 -5 15 -16
11 -8 -3 -12 -2 -9 3 3 5 -5 17 -17 25 -30 21 -44 20 -27 -1 13 -16 12 -17 -3
-4 -10 7 -16 17 -13 21 6 10 -7 20 -33 25 -10 2 -35 14 -55 28 -21 14 -48 24
-62 23 -13 -2 -22 1 -19 5 15 25 -174 33 -221 9 -16 -8 -34 -25 -40 -38 -5
-12 -15 -22 -22 -22 -15 0 -36 -37 -28 -50 3 -6 2 -10 -3 -10 -13 0 -10 -63 3
-72 6 -5 6 -8 -1 -8 -9 0 -9 -11 -2 -40 6 -23 15 -37 21 -33 5 3 7 1 4 -5 -11
-17 3 -41 21 -35 14 4 14 3 3 -5 -12 -9 -12 -13 -2 -26 7 -9 17 -14 21 -11 4
3 7 -3 6 -13 0 -9 5 -16 12 -14 8 1 11 -1 8 -6 -6 -10 48 -63 107 -106 31 -23
41 -25 53 -15 12 10 13 9 9 -3 -8 -21 75 -71 93 -56 7 6 15 8 19 4 3 -3 1 -6
-6 -6 -7 0 -9 -5 -6 -10 4 -6 11 -8 16 -5 5 4 9 1 9 -4 0 -6 3 -10 8 -9 4 1
25 -6 47 -16 44 -19 71 -27 97 -29 9 -1 14 -6 11 -11 -4 -5 1 -7 10 -3 10 3
17 2 17 -3 0 -6 3 -9 8 -8 4 1 38 -8 76 -20 38 -11 73 -19 78 -16 4 3 8 0 8
-7 0 -8 11 -9 33 -5 23 4 28 3 17 -4 -13 -8 -13 -10 1 -10 19 0 141 -60 151
-75 5 -7 8 -7 8 0 0 6 5 2 11 -7 5 -9 16 -15 23 -12 7 3 16 -2 19 -10 6 -15
127 -96 137 -93 3 1 16 -8 30 -20 13 -13 29 -23 36 -23 6 0 17 -7 24 -15 7 -9
20 -13 29 -10 8 3 12 3 8 -1 -4 -4 0 -16 10 -26 15 -17 15 -18 0 -18 -21 0
-22 -9 -1 -25 15 -11 15 -12 0 -12 -9 0 -16 4 -16 9 0 5 -4 7 -9 3 -5 -3 -13
0 -17 6 -4 8 -3 9 4 5 7 -4 12 -2 12 5 0 6 -8 9 -20 6 -11 -3 -20 0 -20 5 0 8
-38 9 -117 5 -128 -6 -226 -24 -216 -40 3 -6 1 -7 -6 -3 -41 26 -185 -94 -167
-139 3 -8 0 -15 -6 -17 -6 -2 -8 -16 -3 -36 3 -18 10 -30 15 -27 4 3 6 -3 4
-12 -3 -11 9 -31 33 -54 37 -36 103 -76 103 -63 0 4 7 0 16 -7 19 -16 180 -24
189 -9 3 5 12 7 20 3 8 -3 23 -2 33 3 9 4 26 8 37 9 42 3 135 27 140 35 3 5
11 7 18 5 15 -6 207 61 222 77 7 8 6 9 -2 4 -7 -4 -13 -2 -13 3 0 14 17 14 25
1 4 -6 18 -3 38 7 18 9 34 17 37 18 3 0 11 4 18 9 7 4 16 5 19 2 4 -3 0 -6 -7
-6 -9 0 -7 -5 5 -14 11 -8 26 -11 34 -8 8 3 12 1 8 -5 -7 -12 59 -70 74 -65 5
1 9 -5 9 -13 0 -17 34 -37 45 -27 5 4 6 2 2 -4 -3 -5 23 -36 58 -67 63 -56 90
-73 64 -39 -13 15 -12 16 3 3 10 -7 16 -17 13 -21 -2 -4 5 -16 17 -26 13 -12
18 -13 13 -4 -5 8 -10 23 -10 34 -2 17 -1 18 11 2 6 -9 11 -25 9 -34 -2 -9 -4
-21 -4 -27 -1 -5 -21 -10 -45 -10 -24 0 -42 4 -39 9 3 5 -6 7 -21 4 -14 -3
-29 -2 -31 2 -3 5 -16 7 -30 5 -14 -1 -28 2 -31 6 -7 13 -142 11 -149 -1 -4
-6 -15 -8 -25 -5 -10 3 -36 -2 -57 -11 -21 -9 -43 -18 -50 -20 -42 -8 -109
-80 -93 -99 5 -6 5 -16 -2 -25 -8 -12 -9 -12 -4 3 3 9 1 17 -4 17 -16 0 -32
-84 -21 -105 3 -5 6 -17 6 -25 0 -8 5 -14 12 -13 8 2 10 -4 6 -14 -4 -11 -3
-14 5 -9 8 4 10 2 6 -7 -8 -21 70 -75 135 -94 41 -11 77 -14 150 -9 53 3 106
6 118 6 12 0 25 5 28 10 4 6 11 8 16 4 15 -9 269 57 262 69 -3 6 -1 7 5 3 6
-3 34 3 64 14 46 17 106 24 93 12 -2 -3 37 -49 87 -104 60 -65 97 -97 106 -93
11 4 12 2 4 -7 -8 -10 -4 -19 13 -34 15 -14 26 -17 28 -10 2 6 3 1 1 -10 -3
-19 16 -48 27 -41 2 1 3 0 2 -2 -6 -9 19 -41 28 -36 5 4 8 2 7 -4 -2 -5 6 -17
17 -26 11 -9 13 -13 5 -9 -12 5 -12 4 -4 -5 9 -10 17 -9 38 4 24 16 26 16 20
1 -3 -9 -10 -14 -14 -11 -4 3 -11 -2 -14 -11 -3 -9 6 -31 22 -52 15 -20 30
-41 34 -47 4 -5 19 -25 34 -42 14 -18 23 -37 19 -43 -9 -15 -35 -12 -35 4 0
10 -8 13 -24 10 -14 -2 -27 0 -31 6 -4 6 1 7 12 3 21 -7 12 3 -30 35 -16 12
-35 18 -44 15 -11 -4 -14 -2 -9 5 5 8 0 12 -13 12 -11 0 -23 5 -27 11 -3 6
-15 9 -25 6 -11 -3 -17 -2 -14 2 13 22 -204 37 -270 18 -11 -3 -26 -6 -33 -6
-7 -1 -11 -5 -8 -10 4 -5 -3 -7 -14 -4 -12 3 -22 -1 -26 -11 -3 -9 -10 -13
-15 -10 -5 3 -14 2 -21 -2 -8 -5 -6 -10 8 -16 15 -7 14 -8 -6 -4 -13 3 -55 -6
-92 -19 -82 -30 -181 -35 -206 -11 -2 3 -14 0 -26 -6 -17 -9 -19 -8 -9 3 11
10 2 18 -45 41 -31 16 -62 26 -69 24 -7 -3 -17 2 -22 11 -5 10 -22 17 -44 17
-19 1 -35 3 -35 6 1 20 -4 21 -17 4 -13 -16 -15 -16 -13 -2 2 9 0 16 -3 15 -3
-1 -13 4 -22 12 -25 20 -181 25 -201 6 -8 -9 -22 -12 -32 -8 -14 5 -16 3 -10
-13 5 -14 4 -16 -4 -8 -13 13 -70 -3 -70 -19 0 -4 -4 -5 -10 -2 -5 3 -10 2
-10 -4 0 -5 6 -12 13 -14 9 -4 9 -6 0 -6 -6 -1 -14 3 -18 9 -4 6 -15 5 -30 -2
-13 -6 -22 -15 -18 -21 3 -6 1 -7 -5 -3 -14 8 -55 -18 -45 -28 4 -4 1 -5 -7
-2 -22 8 -92 -45 -105 -79 -14 -36 -4 -81 24 -112 11 -11 17 -24 13 -29 -4 -4
1 -4 10 -1 12 4 15 2 11 -8 -3 -9 3 -18 13 -22 11 -3 32 -17 48 -30 46 -38
229 -115 254 -106 6 3 12 0 12 -7 0 -6 5 -8 12 -4 7 5 5 11 -7 21 -11 7 -14
13 -8 13 12 0 31 -20 32 -35 1 -5 7 -10 14 -10 6 0 18 -4 25 -8 6 -5 16 -6 21
-3 5 4 11 2 13 -4 1 -5 21 -12 43 -13 22 -2 47 -7 55 -10 8 -4 42 -8 75 -9 33
-2 63 -7 68 -13 4 -6 11 -4 17 5 5 8 10 10 10 5 0 -12 87 -18 94 -6 3 5 18 7
33 5 31 -4 131 22 151 38 6 6 12 7 12 4 0 -4 18 3 40 15 21 12 37 26 34 30 -3
5 3 6 12 2 10 -4 22 0 30 11 6 10 14 17 16 16 12 -3 67 24 62 32 -3 5 0 8 7 7
20 -4 80 12 75 19 -2 4 26 8 64 10 47 2 85 -3 126 -17 32 -11 63 -17 69 -14 5
4 7 2 3 -2 -5 -5 13 -21 40 -36 37 -21 50 -24 61 -15 12 8 13 8 7 -1 -4 -8 -1
-13 8 -13 9 0 16 -4 16 -8 0 -13 114 -42 120 -31 4 5 15 3 26 -6 12 -9 43 -14
89 -15 58 0 74 -4 88 -20 9 -11 14 -20 12 -20 -3 0 2 -11 11 -25 9 -14 13 -25
10 -25 -4 0 1 -15 11 -32 9 -18 18 -35 18 -38 11 -43 19 -59 28 -53 5 3 7 1 4
-5 -11 -16 3 -42 22 -42 14 0 14 -2 1 -10 -11 -7 -11 -10 -2 -10 7 0 11 -4 8
-8 -9 -14 33 -94 45 -86 8 4 9 3 5 -5 -10 -16 13 -83 26 -75 6 4 8 2 5 -4 -9
-14 3 -43 14 -36 5 3 6 -1 4 -9 -3 -7 1 -27 10 -43 8 -16 15 -35 15 -41 0 -7
4 -13 8 -13 4 0 8 -9 9 -20 1 -11 14 -43 28 -72 15 -29 26 -54 26 -55 -5 -16
1 -33 11 -27 6 4 8 3 5 -3 -7 -11 36 -137 44 -129 2 2 5 -10 5 -27 1 -17 6
-33 13 -35 6 -2 9 -8 5 -13 -3 -5 -1 -9 5 -9 6 0 7 -7 4 -17 -4 -10 -2 -14 4
-10 7 5 9 -1 5 -15 -5 -21 -4 -22 14 -8 17 14 18 14 5 -2 -11 -15 -10 -26 5
-75 17 -59 34 -89 34 -63 0 7 3 10 6 7 4 -4 1 -13 -6 -22 -11 -13 -10 -19 6
-37 11 -12 13 -18 5 -13 -10 6 -13 4 -9 -6 3 -8 11 -41 18 -74 7 -33 17 -65
22 -72 5 -7 7 -16 5 -20 -9 -14 19 -118 30 -118 6 0 15 -4 20 -9 5 -5 3 -6 -4
-2 -7 4 -13 3 -13 -3 0 -21 34 -30 62 -15 15 8 28 17 28 20 0 3 -6 2 -12 -1
-7 -4 -5 0 5 8 18 15 18 26 -3 150 -7 37 -15 67 -19 67 -3 0 -7 11 -7 25 -3
51 -37 156 -46 143 -5 -8 -6 -2 -2 15 4 16 2 27 -5 27 -6 0 -8 7 -5 15 3 8 2
20 -2 27 -5 7 -9 15 -10 18 -4 21 -18 67 -23 75 -6 11 -8 17 -10 41 0 8 -5 13
-10 10 -5 -3 -9 0 -8 7 1 39 -4 58 -15 51 -6 -4 -8 -3 -4 4 7 11 -12 63 -28
73 -5 4 -6 11 -2 17 7 12 -18 75 -26 66 -3 -3 -6 1 -5 8 1 22 -15 78 -23 78
-3 0 -7 6 -7 13 0 7 -12 40 -28 72 -15 33 -27 64 -26 69 1 5 -5 6 -13 3 -9 -4
-18 -1 -22 5 -4 6 -3 8 4 4 6 -3 13 -2 16 3 3 5 -1 11 -9 15 -8 3 -12 12 -9
19 3 8 -8 40 -24 71 -23 46 -31 54 -42 43 -12 -10 -12 -9 -2 4 10 13 10 23 1
43 -7 14 -16 26 -21 26 -5 0 -6 5 -3 10 3 6 1 10 -5 10 -6 0 -9 4 -5 9 8 14
-47 121 -58 114 -6 -3 -7 -1 -4 4 4 6 -2 30 -12 54 -31 73 -34 84 -32 96 1 8
-5 10 -16 6 -15 -6 -16 -4 -6 8 11 14 1 75 -24 139 -3 8 -7 20 -8 26 -10 46
-39 131 -48 143 -6 7 -13 29 -14 49 -1 19 -6 38 -10 41 -4 3 -8 11 -8 16 0 31
-39 144 -48 138 -6 -3 -7 -1 -3 6 4 6 2 28 -5 49 -7 20 -12 40 -11 45 1 4 -3
7 -8 7 -6 0 -10 6 -9 13 4 35 -2 57 -17 57 -13 0 -15 7 -11 35 3 19 2 37 -3
40 -5 3 -2 28 6 56 12 40 13 54 3 65 -6 8 -9 17 -5 21 3 3 6 1 6 -6 0 -7 5 -9
11 -5 6 3 9 19 5 35 -3 15 -1 31 4 34 6 4 7 -1 3 -11 -4 -12 -3 -15 6 -10 7 5
11 17 8 27 -3 11 -1 17 4 13 5 -3 10 1 10 8 3 34 5 39 14 46 12 8 69 128 66
137 -1 4 5 12 14 19 9 6 17 18 18 26 2 9 15 32 30 51 28 38 35 55 15 43 -7 -4
-8 -3 -4 5 4 6 11 9 15 7 12 -8 63 49 54 59 -5 4 -3 5 4 1 11 -6 31 18 31 39
0 5 6 11 14 13 8 2 9 0 3 -5 -5 -4 -11 -14 -12 -20 -4 -16 97 55 104 74 3 7
13 13 22 13 27 0 63 30 56 47 -4 12 -2 13 8 5 11 -9 19 -6 35 11 12 13 19 27
15 31 -5 4 -1 6 7 4 9 -2 14 4 14 14 -1 9 4 14 10 12 7 -3 26 13 43 34 25 30
29 42 20 51 -9 9 -8 11 5 6 18 -7 43 26 30 40 -4 5 -2 5 4 2 13 -8 47 49 38
65 -4 6 -3 8 3 5 6 -4 13 -1 15 6 7 17 -2 38 -12 32 -5 -3 -11 -1 -15 4 -3 6
5 8 18 6 20 -4 26 2 41 46 10 28 19 68 20 89 0 22 4 34 8 27 5 -7 8 0 7 18 -1
63 39 193 78 252 10 15 13 24 7 21 -6 -4 -11 -1 -11 6 0 8 6 12 13 9 15 -5 38
33 29 47 -4 6 -1 9 7 8 7 -2 12 5 12 14 -1 10 2 16 6 13 8 -5 21 21 19 39 0 5
5 13 13 17 10 7 9 9 -5 9 -10 0 -16 4 -12 10 3 5 12 7 19 4 15 -6 54 81 43 93
-4 3 -2 12 4 19 17 21 0 82 -31 107 -20 17 -38 23 -66 21 -62 -4 -119 -15
-122 -25 -2 -5 -8 -7 -13 -4 -9 6 -111 -34 -120 -48 -3 -5 -8 -8 -10 -6 -2 1
-15 -1 -28 -6 -18 -5 -21 -9 -10 -16 10 -6 7 -9 -11 -9 -26 0 -50 -16 -50 -33
0 -5 6 -4 13 2 10 8 14 7 14 -4 0 -8 -5 -11 -10 -8 -6 4 -8 0 -4 -10 3 -10 3
-17 -2 -17 -5 0 -11 10 -14 22 -6 22 -7 22 -38 -7 -56 -54 -91 -103 -78 -111
8 -5 9 -3 4 6 -5 9 -4 11 3 6 7 -4 12 -2 12 5 0 7 3 9 6 6 11 -10 -16 -36 -31
-31 -11 5 -33 -33 -26 -45 2 -2 -2 -7 -8 -10 -6 -4 -12 -16 -14 -26 -2 -11 -9
-30 -16 -43 -7 -13 -10 -30 -7 -38 3 -8 2 -14 -3 -14 -4 0 -13 -30 -20 -66 -9
-53 -9 -69 1 -82 12 -15 11 -16 -4 -3 -16 12 -18 11 -19 -10 -3 -47 -7 -65
-27 -109 -11 -25 -22 -54 -24 -65 -1 -11 -7 -23 -13 -27 -6 -5 -5 -8 3 -8 7 0
10 -5 7 -10 -4 -6 -10 -8 -14 -5 -9 5 -48 -74 -43 -88 1 -5 -2 -6 -7 -3 -5 3
-24 -18 -41 -46 -18 -29 -37 -56 -43 -59 -5 -4 -6 -12 -3 -18 4 -6 3 -10 -2
-9 -15 4 -83 -75 -77 -90 3 -7 0 -10 -6 -7 -6 4 -13 -2 -16 -14 -3 -12 -10
-21 -15 -21 -5 0 -7 -4 -4 -9 4 -5 3 -11 -2 -13 -13 -5 -52 -87 -52 -108 0
-11 -4 -20 -9 -20 -5 0 -12 -11 -15 -25 -3 -13 -11 -37 -18 -52 l-11 -28 -7
30 c-4 17 -8 55 -9 86 0 31 -4 59 -8 63 -4 3 -6 29 -4 56 1 27 -3 59 -9 71 -9
15 -9 20 -1 14 8 -5 10 2 5 22 -4 15 -8 45 -8 65 0 21 -4 38 -8 38 -4 0 -8 5
-8 11 0 5 5 7 10 4 22 -13 10 54 -12 71 -16 11 -17 15 -5 11 11 -4 17 -1 17
10 0 9 -8 26 -17 37 -17 20 -17 20 0 7 17 -13 18 -10 16 57 -1 45 -6 72 -13
72 -7 0 -7 3 -1 8 6 4 10 126 11 327 1 379 7 488 42 715 19 126 19 146 0 134
-6 -4 -5 3 2 15 6 12 17 20 23 18 6 -2 30 -48 52 -103 49 -120 57 -135 108
-202 79 -103 209 -172 299 -157 52 9 111 62 134 121 25 67 15 167 -25 249 -40
80 -152 201 -255 275 -42 30 -72 57 -68 61 4 4 48 24 97 44 249 101 401 248
435 420 17 82 2 136 -54 191 -84 84 -206 85 -371 1 -80 -40 -157 -100 -234
-182 -43 -47 -65 -64 -71 -56 -4 7 -10 44 -14 83 -20 221 -179 421 -343 434
-47 4 -64 1 -90 -16z m153 -237 c9 -10 35 -55 57 -100 42 -89 44 -123 6 -144
-43 -23 -66 -4 -114 91 -45 90 -55 136 -33 158 18 18 64 15 84 -5z m728 -219
c19 -19 21 -54 4 -76 -21 -27 -150 -108 -172 -108 -25 0 -56 28 -56 50 0 27
35 65 101 109 65 44 98 50 123 25z m-516 -193 c46 -24 97 -76 111 -114 15 -40
14 -123 -3 -155 -48 -92 -177 -130 -276 -79 -123 61 -143 240 -37 321 65 50
141 60 205 27z m-490 -87 c31 -21 30 -68 -3 -90 -21 -14 -40 -15 -103 -10 -99
9 -138 22 -145 48 -8 28 8 65 30 72 34 10 197 -5 221 -20z m246 -380 c32 -32
13 -76 -73 -166 -40 -43 -71 -48 -101 -18 -33 33 -27 46 58 148 48 56 85 68
116 36z m560 -9 c41 -44 88 -144 82 -171 -8 -32 -48 -51 -79 -37 -29 13 -109
166 -100 191 16 46 63 54 97 17z m-341 -171 c1 -4 -8 -9 -20 -10 -22 -4 -22
-3 -5 14 15 16 20 15 25 -4z m-1049 -102 c3 -5 -1 -9 -9 -9 -8 0 -12 4 -9 9 3
4 7 8 9 8 2 0 6 -4 9 -8z m31 -31 c3 -5 2 -12 -3 -15 -5 -3 -9 1 -9 9 0 17 3
19 12 6z m-157 -26 c-3 -3 -9 2 -12 12 -6 14 -5 15 5 6 7 -7 10 -15 7 -18z
m117 -4 c-6 -5 -25 10 -25 20 0 5 6 4 14 -3 8 -7 12 -15 11 -17z m65 -31 c-6
-11 -13 -20 -16 -20 -2 0 0 9 6 20 6 11 13 20 16 20 2 0 0 -9 -6 -20z m977
-62 c-3 -8 -6 -5 -6 6 -1 11 2 17 5 13 3 -3 4 -12 1 -19z m-883 -94 c3 -8 2
-12 -4 -9 -6 3 -10 10 -10 16 0 14 7 11 14 -7z m876 -4 c-6 -11 -13 -20 -16
-20 -2 0 0 9 6 20 6 11 13 20 16 20 2 0 0 -9 -6 -20z m3 -43 c3 -7 -3 -13 -14
-14 -15 -1 -16 1 -6 12 15 18 14 18 20 2z m-2323 -12 c0 -2 -9 -3 -19 -2 -11
0 -18 5 -15 9 4 6 34 0 34 -7z m2251 -68 c-10 -9 -11 -8 -5 6 3 10 9 15 12 12
3 -3 0 -11 -7 -18z m-2171 9 c0 -2 -8 -10 -17 -17 -16 -13 -17 -12 -4 4 13 16
21 21 21 13z m888 -5 c11 -6 10 -10 -4 -15 -9 -3 -19 -4 -22 -1 -3 3 1 5 9 5
11 0 11 2 -1 10 -8 5 -10 10 -5 10 6 0 16 -4 23 -9z m239 -13 c-3 -8 -6 -5 -6
6 -1 11 2 17 5 13 3 -3 4 -12 1 -19z m-380 -10 c-3 -8 -6 -5 -6 6 -1 11 2 17
5 13 3 -3 4 -12 1 -19z m-12 -37 c-3 -6 -11 -11 -16 -11 -5 0 -4 6 3 14 14 16
24 13 13 -3z m2207 -3 c-8 -8 -8 -15 -1 -24 7 -9 5 -12 -8 -9 -10 2 -20 4 -22
4 -6 1 31 41 38 41 3 0 0 -5 -7 -12z m-2852 -8 c-8 -5 -19 -10 -25 -10 -5 0
-3 5 5 10 8 5 20 10 25 10 6 0 3 -5 -5 -10z m42 -8 c-7 -2 -10 -8 -7 -13 4 -5
-1 -6 -9 -3 -12 5 -13 9 -3 19 7 7 16 10 22 7 5 -3 4 -7 -3 -10z m633 -11 c-3
-6 -11 -11 -16 -11 -5 0 -4 6 3 14 14 16 24 13 13 -3z m-585 -36 c14 -19 14
-19 -2 -6 -10 7 -18 18 -18 24 0 6 1 8 3 6 1 -2 9 -13 17 -24z m3185 15 c-3
-5 -12 -10 -18 -10 -7 0 -6 4 3 10 19 12 23 12 15 0z m-3065 -144 c0 -6 -7 -1
-15 10 -8 10 -15 23 -15 28 0 6 7 1 15 -10 8 -10 15 -23 15 -28z m933 14 c3
-11 1 -18 -4 -14 -5 3 -9 12 -9 20 0 20 7 17 13 -6z m-965 -15 c-3 -3 -9 2
-12 12 -6 14 -5 15 5 6 7 -7 10 -15 7 -18z m755 10 c-3 -9 -8 -14 -10 -11 -3
3 -2 9 2 15 9 16 15 13 8 -4z m1808 2 c-6 -8 -7 -18 -3 -22 4 -5 1 -5 -6 -1
-10 6 -10 11 -1 22 6 8 14 14 16 14 3 0 0 -6 -6 -13z m-3123 -29 c-2 -7 4 -12
12 -10 12 3 13 1 3 -9 -15 -15 -40 2 -29 20 10 15 17 14 14 -1z m1529 -30 c-3
-7 -5 -2 -5 12 0 14 2 19 5 13 2 -7 2 -19 0 -25z m2030 10 c-3 -8 -6 -5 -6 6
-1 11 2 17 5 13 3 -3 4 -12 1 -19z m-2921 -10 c4 -7 4 -10 -1 -6 -4 4 -14 3
-22 -4 -10 -8 -17 -8 -26 1 -9 10 -8 11 4 6 10 -4 20 -2 24 4 8 14 12 14 21
-1z m1404 -28 c0 -5 -2 -10 -4 -10 -3 0 -8 5 -11 10 -3 6 -1 10 4 10 6 0 11
-4 11 -10z m-1357 -87 c-3 -7 -6 -13 -8 -13 -2 0 -5 6 -8 13 -3 8 1 14 8 14 7
0 11 -6 8 -14z m342 -45 c-10 -13 -14 -16 -11 -8 3 8 9 24 13 35 4 11 8 14 11
7 2 -6 -4 -22 -13 -34z m595 12 c0 -5 -2 -10 -4 -10 -3 0 -8 5 -11 10 -3 6 -1
10 4 10 6 0 11 -4 11 -10z m871 -3 c-6 -8 -9 -16 -6 -19 3 -2 -2 -5 -10 -5
-13 0 -13 3 2 19 19 21 31 25 14 5z m-2243 -18 c12 -19 11 -19 -8 -9 -11 6
-20 15 -20 20 0 17 15 11 28 -11z m2147 11 c-3 -5 -12 -10 -18 -10 -7 0 -6 4
3 10 19 12 23 12 15 0z m1092 -12 c-3 -8 -6 -5 -6 6 -1 11 2 17 5 13 3 -3 4
-12 1 -19z m-1793 -56 c3 -5 -1 -9 -9 -9 -8 0 -12 4 -9 9 3 4 7 8 9 8 2 0 6
-4 9 -8z m-1213 -20 c-7 -2 -18 1 -23 6 -8 8 -4 9 13 5 13 -4 18 -8 10 -11z
m579 14 c0 -2 -8 -10 -17 -17 -16 -13 -17 -12 -4 4 13 16 21 21 21 13z m-292
-32 c-12 -12 -17 -13 -23 -3 -5 8 -4 10 4 5 6 -4 14 0 17 9 4 9 9 13 12 10 3
-3 -1 -13 -10 -21z m932 6 c0 -5 -2 -10 -4 -10 -3 0 -8 5 -11 10 -3 6 -1 10 4
10 6 0 11 -4 11 -10z m-565 -30 c3 -5 1 -10 -4 -10 -6 0 -11 5 -11 10 0 6 2
10 4 10 3 0 8 -4 11 -10z m1895 -10 c0 -5 -5 -10 -11 -10 -5 0 -7 5 -4 10 3 6
8 10 11 10 2 0 4 -4 4 -10z m-2333 -6 c-3 -3 -12 -4 -19 -1 -8 3 -5 6 6 6 11
1 17 -2 13 -5z m27 -28 c-3 -9 -12 -12 -22 -9 -15 6 -9 11 25 22 1 1 0 -5 -3
-13z m1236 4 c0 -5 -5 -10 -11 -10 -5 0 -7 5 -4 10 3 6 8 10 11 10 2 0 4 -4 4
-10z m-1153 -23 c-14 -21 -13 -25 1 -35 13 -9 10 -9 -8 0 -14 7 -29 11 -33 10
-5 -1 -6 2 -2 8 3 6 11 8 16 4 6 -3 13 3 16 15 3 12 10 21 15 21 6 0 3 -10 -5
-23z m2660 -39 c-3 -8 -6 -5 -6 6 -1 11 2 17 5 13 3 -3 4 -12 1 -19z m-962
-57 c3 -5 2 -12 -3 -15 -5 -3 -9 1 -9 9 0 17 3 19 12 6z m-415 -5 c0 -2 -9 -6
-20 -9 -11 -3 -18 -1 -14 4 5 9 34 13 34 5z m-1086 -35 c-2 -3 -12 3 -22 13
-16 17 -16 18 5 5 12 -7 20 -15 17 -18z m1207 12 c13 -16 12 -17 -3 -4 -10 7
-18 15 -18 17 0 8 8 3 21 -13z m-1246 -12 c3 -5 2 -12 -3 -15 -5 -3 -9 1 -9 9
0 17 3 19 12 6z m45 -21 c8 -5 11 -10 5 -10 -5 0 -17 5 -25 10 -8 5 -10 10 -5
10 6 0 17 -5 25 -10z m1225 0 c3 -6 -1 -7 -9 -4 -18 7 -21 14 -7 14 6 0 13 -4
16 -10z m252 -42 c-3 -7 -5 -2 -5 12 0 14 2 19 5 13 2 -7 2 -19 0 -25z m-1354
-2 c4 -10 1 -13 -9 -9 -15 6 -19 23 -5 23 5 0 11 -7 14 -14z m-43 -13 c0 -11
-5 -11 -20 -3 -11 6 -20 12 -20 13 0 2 9 3 20 3 11 0 20 -6 20 -13z m1797 -3
c-2 -11 -6 -22 -9 -26 -4 -3 -5 2 -3 13 2 10 4 21 4 26 1 4 3 7 6 7 3 0 4 -9
2 -20z m-869 -12 c-2 -6 -12 -12 -21 -14 -9 -1 -15 2 -11 7 3 5 10 7 15 4 5
-4 9 -1 9 4 0 6 3 11 6 11 3 0 4 -5 2 -12z m-34 -43 c-4 -8 -8 -15 -10 -15 -2
0 -4 7 -4 15 0 8 4 15 10 15 5 0 7 -7 4 -15z m313 -17 c-3 -8 -6 -5 -6 6 -1
11 2 17 5 13 3 -3 4 -12 1 -19z m-1372 -8 c-3 -5 -12 -10 -18 -10 -7 0 -6 4 3
10 19 12 23 12 15 0z m1353 -76 l-3 -39 -5 47 c-3 26 -1 43 3 39 5 -5 7 -26 5
-47z m210 21 c-3 -3 -9 2 -12 12 -6 14 -5 15 5 6 7 -7 10 -15 7 -18z m309 18
c-4 -3 -1 -13 6 -22 11 -14 10 -14 -5 -2 -16 12 -16 31 -1 31 4 0 3 -3 0 -7z
m-2154 -27 c4 -10 1 -13 -8 -9 -8 3 -12 9 -9 14 7 12 11 11 17 -5z m2594 -16
c-1 -21 -10 -18 -13 5 -1 8 2 15 6 15 5 0 8 -9 7 -20z m-1822 -8 c-3 -3 -11 0
-18 7 -9 10 -8 11 6 5 10 -3 15 -9 12 -12z m1401 -4 c4 -7 4 -10 -1 -6 -4 4
-14 3 -22 -3 -8 -8 -13 -8 -13 -1 0 6 6 13 13 15 6 3 13 6 14 6 1 1 5 -5 9
-11z m-1293 -46 c16 -17 16 -19 0 -19 -10 0 -24 5 -32 11 -12 9 -14 8 -9 -5 4
-9 1 -16 -7 -16 -11 0 -11 5 -4 20 8 14 14 16 22 8 17 -17 31 -13 17 4 -18 21
-6 19 13 -3z m1198 -31 c-6 -10 -8 -21 -6 -25 3 -3 0 -2 -7 3 -8 8 -8 14 2 26
17 21 23 19 11 -4z m-728 -11 c3 -11 1 -18 -4 -14 -5 3 -9 12 -9 20 0 20 7 17
13 -6z m310 5 c-3 -9 -8 -14 -10 -11 -3 3 -2 9 2 15 9 16 15 13 8 -4z m-776
-21 c0 -7 -6 -10 -14 -7 -7 3 -13 8 -13 12 0 4 6 8 13 8 8 0 14 -6 14 -13z
m-105 -18 c10 6 11 4 0 -7 -10 -11 -15 -10 -30 6 -15 17 -15 18 0 6 9 -7 23
-9 30 -5z m148 -26 c0 -5 -2 -10 -4 -10 -3 0 -8 5 -11 10 -3 6 -1 10 4 10 6 0
11 -4 11 -10z m37 4 c-3 -3 -12 -4 -19 -1 -8 3 -5 6 6 6 11 1 17 -2 13 -5z
m1093 -4 c0 -5 -5 -10 -11 -10 -5 0 -7 5 -4 10 3 6 8 10 11 10 2 0 4 -4 4 -10z
m-2041 -66 c2 -1 -5 -2 -16 -2 -10 1 -27 11 -38 21 -20 19 -20 19 15 2 19 -10
37 -19 39 -21z m551 6 c0 -5 -5 -10 -11 -10 -5 0 -7 5 -4 10 3 6 8 10 11 10 2
0 4 -4 4 -10z m1443 -25 c-3 -9 -8 -14 -10 -11 -3 3 -2 9 2 15 9 16 15 13 8
-4z m-1998 -4 c-9 -8 -36 -10 -30 -2 2 4 11 8 20 8 8 0 13 -3 10 -6z m2225
-25 c0 -2 -7 -7 -16 -10 -8 -3 -12 -2 -9 4 6 10 25 14 25 6z m-2096 -21 c-4
-8 -8 -15 -10 -15 -2 0 -4 7 -4 15 0 8 4 15 10 15 5 0 7 -7 4 -15z m916 -1 c0
-8 -19 -13 -24 -6 -3 5 1 9 9 9 8 0 15 -2 15 -3z m1162 -46 c-10 -13 -12 -18
-12 -40 0 -9 -4 -8 -10 2 -8 12 -10 12 -10 1 0 -8 -3 -11 -6 -8 -4 4 -1 13 6
22 7 8 9 15 6 15 -4 0 -2 9 5 21 8 15 14 18 22 10 7 -7 7 -14 -1 -23z m-655
-100 c-3 -7 -5 -2 -5 12 0 14 2 19 5 13 2 -7 2 -19 0 -25z m581 -13 c-3 -3 -9
2 -12 12 -6 14 -5 15 5 6 7 -7 10 -15 7 -18z m-23 -15 c3 -5 1 -10 -4 -10 -6
0 -11 5 -11 10 0 6 2 10 4 10 3 0 8 -4 11 -10z m-1345 -36 c0 -2 -8 0 -19 5
-10 6 -22 7 -26 3 -5 -4 -5 -1 -1 6 5 9 12 9 27 2 10 -6 19 -13 19 -16z m277
20 c-3 -3 -12 -4 -19 -1 -8 3 -5 6 6 6 11 1 17 -2 13 -5z m990 -156 c-3 -8 -6
-5 -6 6 -1 11 2 17 5 13 3 -3 4 -12 1 -19z m-512 -66 c-6 -8 -35 12 -35 24 0
11 4 10 18 -3 10 -10 18 -19 17 -21z m-80 8 c3 -6 -1 -7 -9 -4 -18 7 -21 14
-7 14 6 0 13 -4 16 -10z m69 -50 c-6 -6 -10 -3 -10 10 0 13 4 16 10 10 7 -7 7
-13 0 -20z m527 7 c-10 -9 -11 -8 -5 6 3 10 9 15 12 12 3 -3 0 -11 -7 -18z
m-1351 -11 c0 -2 -7 -7 -16 -10 -8 -3 -12 -2 -9 4 6 10 25 14 25 6z m857 -31
c0 -8 -4 -12 -9 -9 -5 3 -6 10 -3 15 9 13 12 11 12 -6z m-830 -2 c-4 -3 -1
-13 6 -22 11 -14 10 -14 -5 -2 -16 12 -16 31 -1 31 4 0 3 -3 0 -7z m480 -9
c-3 -3 -12 -4 -19 -1 -8 3 -5 6 6 6 11 1 17 -2 13 -5z m-502 -14 c3 -6 -1 -7
-9 -4 -18 7 -21 14 -7 14 6 0 13 -4 16 -10z m961 -27 c-3 -4 -6 -1 -6 7 0 10
-3 10 -15 0 -18 -15 -20 -5 -2 14 10 12 13 12 20 -1 5 -8 6 -17 3 -20z m-66
21 c0 -8 -19 -13 -24 -6 -3 5 1 9 9 9 8 0 15 -2 15 -3z m67 -88 c-1 -6 4 -10
11 -8 8 1 11 -2 7 -9 -8 -12 -64 41 -57 54 6 11 42 -23 39 -37z m161 -97 c-3
-8 -7 -3 -11 10 -4 17 -3 21 5 13 5 -5 8 -16 6 -23z m227 21 c3 -5 1 -10 -4
-10 -6 0 -11 5 -11 10 0 6 2 10 4 10 3 0 8 -4 11 -10z m-139 -112 c4 -7 3 -8
-4 -4 -16 10 -15 -7 1 -23 7 -9 7 -11 1 -8 -12 7 -26 -14 -33 -49 -2 -11 -31
18 -31 30 0 6 4 5 9 -3 7 -10 12 -8 24 10 9 12 14 26 11 31 -5 8 3 28 11 28 2
0 7 -5 11 -12z m12 -93 c-3 -3 -9 2 -12 12 -6 14 -5 15 5 6 7 -7 10 -15 7 -18z
m-1233 5 c3 -5 1 -10 -4 -10 -6 0 -11 5 -11 10 0 6 2 10 4 10 3 0 8 -4 11 -10z
m1205 -10 c-13 -8 -12 -10 4 -10 11 0 17 -3 13 -6 -3 -4 -13 -4 -22 0 -18 6
-11 26 8 26 7 0 6 -4 -3 -10z m96 -2 c4 -7 4 -10 -1 -6 -4 4 -14 3 -22 -4 -10
-8 -17 -8 -26 1 -9 10 -8 11 4 6 10 -4 20 -2 24 4 8 14 12 14 21 -1z m-448
-12 c-7 -8 -15 -12 -17 -11 -5 6 10 25 20 25 5 0 4 -6 -3 -14z m-1084 -5 c3
-4 -4 -7 -14 -6 -27 2 -33 10 -10 12 11 1 22 -2 24 -6z m221 -1 c3 -5 1 -10
-4 -10 -6 0 -11 5 -11 10 0 6 2 10 4 10 3 0 8 -4 11 -10z m240 -48 c-3 -3 -11
0 -18 7 -9 10 -8 11 6 5 10 -3 15 -9 12 -12z m-600 -12 c-3 -5 0 -10 7 -10 8
0 7 -6 -5 -17 -14 -14 -19 -15 -29 -4 -11 10 -9 11 6 5 15 -6 18 -4 13 8 -3 9
-3 19 0 22 10 10 15 7 8 -4z m625 5 c0 -2 -10 -9 -22 -15 -22 -11 -22 -10 -4
4 21 17 26 19 26 11z m865 -15 c3 -6 -1 -7 -9 -4 -18 7 -21 14 -7 14 6 0 13
-4 16 -10z m-585 -20 c0 -5 -2 -10 -4 -10 -3 0 -8 5 -11 10 -3 6 -1 10 4 10 6
0 11 -4 11 -10z m747 -12 c-3 -8 -6 -5 -6 6 -1 11 2 17 5 13 3 -3 4 -12 1 -19z
m8 -38 c-10 -11 -22 -20 -26 -20 -5 0 2 10 14 23 27 28 38 25 12 -3z m-1788
-12 c-3 -8 -6 -5 -6 6 -1 11 2 17 5 13 3 -3 4 -12 1 -19z m60 -33 c0 -8 -4
-15 -9 -15 -10 0 -11 14 -1 23 9 10 10 9 10 -8z m58 -164 c-6 -5 -25 10 -25
20 0 5 6 4 14 -3 8 -7 12 -15 11 -17z m55 5 c0 -2 -7 -7 -16 -10 -8 -3 -12 -2
-9 4 6 10 25 14 25 6z m15 -16 c-3 -5 -12 -10 -18 -10 -7 0 -6 4 3 10 19 12
23 12 15 0z m962 -23 c-12 -13 -24 -22 -26 -20 -6 4 30 43 40 43 5 0 -2 -10
-14 -23z m-137 -91 c0 -3 -4 -8 -10 -11 -5 -3 -10 -1 -10 4 0 6 5 11 10 11 6
0 10 -2 10 -4z m1074 -12 c3 -8 2 -12 -4 -9 -6 3 -10 10 -10 16 0 14 7 11 14
-7z m1 -64 c-4 -17 -9 -30 -11 -27 -2 2 -1 18 2 36 4 17 9 30 11 27 3 -2 2
-19 -2 -36z m95 -96 c0 -2 -7 -4 -15 -4 -8 0 -15 4 -15 10 0 5 7 7 15 4 8 -4
15 -8 15 -10z m-83 -26 c-3 -7 -5 -2 -5 12 0 14 2 19 5 13 2 -7 2 -19 0 -25z
m31 -33 c-3 -3 -9 2 -12 12 -6 14 -5 15 5 6 7 -7 10 -15 7 -18z m26 -23 c2 -4
-4 -8 -14 -8 -10 0 -16 4 -14 8 3 4 9 8 14 8 5 0 11 -4 14 -8z m41 -2 c3 -5 1
-10 -4 -10 -6 0 -11 5 -11 10 0 6 2 10 4 10 3 0 8 -4 11 -10z m-27 -115 c-3
-3 -9 2 -12 12 -6 14 -5 15 5 6 7 -7 10 -15 7 -18z m95 10 c4 -8 2 -17 -3 -20
-6 -4 -10 3 -10 14 0 25 6 27 13 6z m-13 -50 c7 -9 8 -15 2 -15 -5 0 -12 7
-16 15 -3 8 -4 15 -2 15 2 0 9 -7 16 -15z m31 -8 c-10 -9 -11 -8 -5 6 3 10 9
15 12 12 3 -3 0 -11 -7 -18z m99 -353 c0 -2 -9 -4 -20 -4 -11 0 -20 4 -20 9 0
5 9 7 20 4 11 -3 20 -7 20 -9z m27 -26 c-3 -8 -6 -5 -6 6 -1 11 2 17 5 13 3
-3 4 -12 1 -19z m17 -174 c3 -8 2 -12 -4 -9 -6 3 -10 10 -10 16 0 14 7 11 14
-7z m93 -226 c-3 -8 -6 -5 -6 6 -1 11 2 17 5 13 3 -3 4 -12 1 -19z m0 -40 c-3
-8 -6 -5 -6 6 -1 11 2 17 5 13 3 -3 4 -12 1 -19z"/>
<path d="M7866 11453 c-6 -14 -5 -15 5 -6 7 7 10 15 7 18 -3 3 -9 -2 -12 -12z"/>
<path d="M6336 14583 c-6 -14 -5 -15 5 -6 7 7 10 15 7 18 -3 3 -9 -2 -12 -12z"/>
<path d="M2728 14156 c-45 -30 -49 -77 -10 -104 15 -11 33 -17 40 -15 6 3 12
0 12 -6 0 -6 7 -11 16 -11 8 0 12 5 8 11 -4 7 1 7 16 -1 12 -7 64 -13 114 -15
50 -1 102 -5 116 -9 14 -3 81 -7 150 -9 69 -2 131 -6 137 -10 7 -5 32 -8 55
-8 24 0 69 -1 101 -3 43 -2 62 1 77 14 21 18 28 36 10 25 -6 -3 -7 1 -4 9 3 9
10 13 15 10 13 -8 11 10 -3 25 -11 11 -10 12 1 6 9 -5 12 -3 9 6 -6 19 -44 17
-40 -1 2 -8 0 -11 -5 -7 -4 5 -8 14 -8 20 -1 7 -6 11 -12 10 -14 -3 -11 21 2
25 6 1 10 -3 10 -10 0 -6 8 -12 18 -14 25 -3 21 11 -9 31 -17 11 -37 15 -55
11 -15 -3 -31 -1 -34 4 -9 15 -55 12 -55 -2 0 -9 -2 -10 -8 -2 -13 20 -49 25
-197 29 -80 2 -149 6 -154 9 -4 3 -70 5 -145 5 -122 -1 -139 -3 -168 -23z"/>
<path d="M16959 13514 c-18 -20 -20 -26 -9 -39 11 -13 10 -15 -2 -10 -20 8
-49 -95 -35 -121 8 -14 7 -16 -8 -10 -13 4 -16 2 -11 -9 3 -8 1 -15 -4 -15 -6
0 -10 -4 -10 -9 0 -5 -10 -30 -22 -57 -28 -62 -31 -87 -9 -79 12 5 13 3 4 -6
-14 -14 -36 -2 -27 14 11 18 -1 6 -35 -37 -17 -21 -28 -42 -26 -47 3 -4 0 -11
-6 -15 -8 -4 -9 -3 -5 4 11 19 -17 13 -44 -8 -14 -11 -30 -20 -36 -20 -20 0
-64 -46 -64 -67 0 -19 30 -56 30 -37 0 5 4 4 8 -2 9 -14 129 -37 144 -28 7 5
8 3 3 -6 -6 -10 -1 -12 18 -8 16 3 24 1 20 -5 -4 -6 2 -8 15 -5 12 4 25 1 29
-4 4 -7 1 -8 -8 -4 -8 4 -5 1 5 -8 10 -8 22 -13 27 -11 4 3 11 0 15 -6 5 -8 3
-9 -7 -4 -8 5 -5 -1 5 -14 13 -14 22 -18 27 -10 4 7 9 8 13 1 3 -5 0 -12 -8
-15 -11 -4 -12 -14 -5 -46 5 -21 11 -61 15 -88 3 -26 11 -51 17 -55 9 -6 9 -8
0 -8 -19 0 -16 -24 8 -53 19 -26 35 -28 71 -13 25 11 53 142 36 164 -10 12
-10 14 0 8 15 -9 36 40 27 63 -3 8 -3 12 1 8 13 -12 35 44 24 58 -8 10 -8 15
1 21 8 5 9 3 4 -6 -5 -8 -3 -11 6 -8 16 5 19 34 4 31 -5 -1 -10 9 -10 22 0 13
5 21 12 18 6 -3 9 -11 7 -18 -8 -21 12 -27 27 -8 8 9 9 14 2 10 -13 -8 -12 18
2 30 4 5 5 2 0 -6 -6 -11 -4 -13 9 -8 9 4 14 3 11 -2 -3 -5 15 1 39 14 24 13
47 21 50 18 3 -4 6 -1 6 5 0 6 6 9 14 6 18 -7 46 34 41 61 -2 11 -4 23 -4 27
-2 13 -64 29 -75 18 -8 -8 -6 -9 7 -5 9 4 17 3 17 -3 0 -6 -8 -9 -17 -7 -10 1
-17 9 -15 19 2 9 -3 16 -10 16 -7 0 -24 3 -38 6 -17 4 -21 3 -12 -4 11 -8 11
-10 -1 -15 -10 -4 -14 1 -13 16 1 15 -4 22 -16 21 -10 -1 -16 2 -13 6 5 8 -24
24 -38 21 -5 -1 -6 3 -2 8 3 6 -3 28 -15 50 -17 35 -26 64 -29 94 -1 5 -7 5
-13 1 -10 -6 -10 -5 -1 7 16 19 -9 165 -26 154 -5 -3 -7 3 -4 13 5 21 -25 56
-49 58 -9 1 -27 -9 -39 -22z m-19 -118 c0 -3 -4 -8 -10 -11 -5 -3 -10 -1 -10
4 0 6 5 11 10 11 6 0 10 -2 10 -4z m-3 -98 c-3 -8 -6 -5 -6 6 -1 11 2 17 5 13
3 -3 4 -12 1 -19z m-112 -157 c3 -5 2 -12 -3 -15 -5 -3 -9 1 -9 9 0 17 3 19
12 6z m519 -87 c3 -8 2 -12 -4 -9 -6 3 -10 10 -10 16 0 14 7 11 14 -7z m-559
-4 c-3 -5 -12 -10 -18 -10 -7 0 -6 4 3 10 19 12 23 12 15 0z m506 -17 c13 -16
12 -17 -3 -4 -17 13 -22 21 -14 21 2 0 10 -8 17 -17z m44 -13 c3 -5 1 -10 -4
-10 -6 0 -11 5 -11 10 0 6 2 10 4 10 3 0 8 -4 11 -10z m-30 -28 c-3 -3 -11 0
-18 7 -9 10 -8 11 6 5 10 -3 15 -9 12 -12z m-500 -41 c3 -5 2 -12 -3 -15 -5
-3 -9 1 -9 9 0 17 3 19 12 6z m70 -11 c3 -6 -1 -7 -9 -4 -18 7 -21 14 -7 14 6
0 13 -4 16 -10z m75 -70 c0 -5 -5 -10 -11 -10 -5 0 -7 5 -4 10 3 6 8 10 11 10
2 0 4 -4 4 -10z m117 -132 c-3 -8 -6 -5 -6 6 -1 11 2 17 5 13 3 -3 4 -12 1
-19z m10 -50 c-3 -8 -6 -5 -6 6 -1 11 2 17 5 13 3 -3 4 -12 1 -19z m-50 -80
c-3 -7 -5 -2 -5 12 0 14 2 19 5 13 2 -7 2 -19 0 -25z"/>
<path d="M15452 13343 c-7 -3 -17 -14 -23 -25 -8 -16 -8 -19 1 -13 7 4 4 -4
-5 -19 -10 -14 -15 -35 -12 -46 3 -11 1 -18 -4 -14 -5 3 -10 -3 -11 -13 -2
-26 -4 -36 -12 -55 -4 -9 -9 -23 -10 -31 -1 -8 -8 -22 -15 -31 -7 -8 -10 -20
-6 -26 3 -5 2 -10 -4 -10 -17 0 -23 -40 -9 -58 12 -16 11 -16 -8 0 -19 17 -21
16 -39 -15 -11 -17 -19 -35 -17 -39 1 -5 -7 -8 -18 -8 -11 0 -25 -9 -32 -20
-7 -11 -16 -20 -20 -20 -4 0 -23 -10 -43 -21 -23 -14 -32 -24 -25 -29 8 -5 7
-9 -5 -13 -9 -4 -13 -3 -10 2 3 5 1 12 -5 16 -5 3 -10 3 -10 -2 0 -4 -14 -9
-32 -10 -17 -1 -35 -8 -40 -15 -4 -7 -8 -9 -8 -5 0 4 -9 3 -21 -3 -11 -7 -18
-14 -15 -17 3 -3 12 0 21 7 9 8 15 8 15 2 0 -6 -9 -14 -20 -17 -11 -3 -20 -11
-20 -16 0 -6 6 -7 13 -3 8 5 7 2 -2 -10 -13 -15 -12 -18 7 -23 12 -3 19 -9 16
-14 -5 -9 19 -17 71 -23 17 -2 43 -8 58 -15 16 -6 33 -9 38 -5 5 3 9 1 9 -4 0
-6 7 -13 16 -16 10 -4 13 -2 9 7 -4 6 1 3 9 -7 9 -11 16 -17 16 -13 0 3 12 -5
26 -18 15 -14 31 -22 37 -18 6 3 7 1 3 -6 -4 -6 6 -28 23 -49 16 -21 33 -50
36 -65 4 -15 11 -24 16 -22 4 3 6 13 3 23 -5 14 -4 14 4 3 6 -8 7 -22 3 -30
-9 -18 -2 -103 8 -97 3 2 6 -22 7 -55 0 -42 6 -64 19 -79 18 -20 41 -28 31
-11 -4 5 2 7 12 5 27 -8 51 44 54 114 2 33 6 58 11 55 6 -4 11 30 9 66 0 8 6
21 14 29 8 8 13 19 11 25 -2 7 5 21 15 31 10 11 16 26 13 34 -2 7 -1 11 4 8 4
-3 14 5 20 18 7 12 26 30 42 40 16 10 27 21 24 26 -2 4 3 14 13 21 16 13 16
13 2 -5 -14 -18 -13 -19 3 -13 10 4 23 7 29 7 6 0 5 7 -3 18 -11 14 -11 15 1
5 16 -15 50 -17 50 -4 0 4 11 6 24 4 13 -3 27 0 30 6 4 5 12 8 19 5 7 -2 21 4
31 15 16 18 16 19 -1 17 -10 0 -21 -5 -24 -10 -11 -14 -21 32 -11 51 10 22 10
43 -1 43 -4 -1 -14 6 -23 14 -8 8 -21 13 -28 10 -8 -3 -17 0 -22 7 -5 8 -3 10
7 5 8 -4 5 0 -6 8 -11 9 -25 14 -31 12 -7 -3 -20 5 -31 17 l-18 22 25 -20 25
-20 -19 22 c-10 13 -22 20 -27 17 -4 -2 -13 5 -19 16 -6 11 -15 18 -21 15 -5
-4 -9 -3 -8 2 4 21 -2 33 -16 33 -8 0 -15 5 -15 11 0 6 -12 31 -27 57 -15 25
-28 51 -29 57 -1 5 -8 24 -15 40 -6 17 -13 35 -14 40 -1 6 -3 12 -4 15 -1 3
-5 23 -7 45 -3 22 -10 43 -17 47 -7 4 -8 8 -2 8 5 0 4 5 -3 12 -13 13 -41 18
-60 11z m-55 -235 c-3 -8 -6 -5 -6 6 -1 11 2 17 5 13 3 -3 4 -12 1 -19z m180
-34 c-3 -3 -12 -4 -19 -1 -8 3 -5 6 6 6 11 1 17 -2 13 -5z m-257 -84 c0 -5 -5
-10 -11 -10 -5 0 -7 5 -4 10 3 6 8 10 11 10 2 0 4 -4 4 -10z m391 -97 c12 -16
12 -17 -2 -6 -9 7 -20 9 -24 5 -5 -4 -5 -1 -1 6 9 16 11 15 27 -5z m-521 -33
c-6 -11 -16 -20 -22 -20 -6 0 -3 9 7 20 10 11 20 20 22 20 2 0 -1 -9 -7 -20z
m645 -40 c-3 -5 -12 -10 -18 -10 -7 0 -6 4 3 10 19 12 23 12 15 0z m-725 -4
c0 -2 -7 -7 -16 -10 -8 -3 -12 -2 -9 4 6 10 25 14 25 6z m501 -139 c-10 -9
-11 -8 -5 6 3 10 9 15 12 12 3 -3 0 -11 -7 -18z m-262 -84 c-6 -7 -15 -10 -20
-7 -13 8 -3 21 15 21 12 0 13 -4 5 -14z m57 -70 c-7 -7 -26 7 -26 19 0 6 6 6
15 -2 9 -7 13 -15 11 -17z m34 -18 c0 -5 -5 -3 -10 5 -5 8 -10 20 -10 25 0 6
5 3 10 -5 5 -8 10 -19 10 -25z m-16 -50 c3 -8 1 -15 -4 -15 -6 0 -10 7 -10 15
0 8 2 15 4 15 2 0 6 -7 10 -15z m36 -144 c0 -5 -10 -11 -22 -14 -22 -6 -22 -6
-4 8 23 17 26 18 26 6z"/>
<path d="M10030 13097 c-106 -44 -200 -121 -264 -219 -102 -154 -176 -478
-179 -788 -2 -126 1 -150 16 -173 19 -30 81 -61 156 -78 64 -15 373 -20 565
-9 191 11 231 25 274 98 27 47 27 48 30 272 4 247 -6 358 -44 503 -64 243
-206 399 -378 415 l-59 5 16 -24 c14 -19 17 -49 17 -159 0 -127 13 -510 24
-700 20 -334 20 -323 -4 -352 -25 -32 -49 -35 -80 -10 -20 16 -23 29 -26 113
-2 51 -9 186 -16 299 -17 277 -17 777 0 808 7 12 11 22 10 22 -2 0 -28 -11
-58 -23z"/>
<path d="M15873 12815 c0 -8 4 -12 9 -9 4 3 8 0 8 -5 0 -6 -7 -11 -15 -11 -8
0 -15 -6 -15 -14 0 -12 17 -14 40 -6 3 1 9 2 13 1 4 -1 1 12 -8 29 -17 32 -32
39 -32 15z"/>
<path d="M12910 12503 c-29 -15 -79 -52 -109 -82 -97 -98 -148 -220 -176 -428
-23 -163 -22 -281 1 -330 31 -63 65 -73 237 -73 l148 0 -6 48 c-6 58 -23 429
-31 692 -3 107 -7 196 -8 197 -1 2 -27 -9 -56 -24z"/>
<path d="M13083 12488 c4 -24 9 -95 12 -158 3 -63 10 -207 15 -320 6 -113 11
-251 13 -308 l2 -102 75 6 c166 13 222 35 238 97 9 36 -2 274 -18 389 -30 208
-121 354 -261 417 -70 33 -82 29 -76 -21z"/>
<path d="M7230 12505 c0 -9 6 -12 15 -9 8 4 15 7 15 9 0 2 -7 5 -15 9 -9 3
-15 0 -15 -9z"/>
<path d="M16306 12443 c-28 -15 -29 -16 -11 -29 10 -7 22 -11 28 -7 6 3 7 1 3
-5 -5 -9 -13 -9 -26 -2 -26 14 -27 14 -34 -22 -8 -46 -11 -58 -44 -186 -26
-103 -27 -115 -12 -125 9 -7 20 -19 25 -27 4 -8 -3 -5 -17 8 -22 20 -26 21
-38 7 -7 -8 -9 -16 -4 -16 5 -1 14 -2 19 -4 6 -1 14 -3 19 -3 5 -1 3 -9 -5
-18 -12 -14 -14 -14 -25 1 -12 15 -14 15 -38 0 -14 -10 -23 -22 -19 -28 3 -5
1 -7 -4 -4 -14 9 -95 -27 -85 -38 4 -5 1 -5 -6 -1 -18 11 -39 -10 -39 -39 0
-32 32 -56 66 -49 20 4 23 3 11 -5 -13 -9 -13 -11 2 -11 9 0 38 -9 65 -21 26
-11 55 -21 64 -22 9 -1 15 -6 12 -13 -2 -7 1 -15 8 -20 7 -4 10 -3 5 4 -3 6
-2 13 3 17 6 3 8 -4 6 -16 -6 -30 21 -92 36 -83 8 4 9 3 5 -5 -4 -6 -12 -8
-18 -5 -6 4 -8 -1 -4 -12 3 -11 12 -50 20 -87 16 -76 37 -107 73 -105 30 3 50
25 56 63 3 17 13 59 22 95 10 36 17 78 17 95 -1 21 2 25 8 15 8 -13 10 -13 10
0 0 9 9 33 20 55 11 22 20 35 20 30 0 -5 16 7 37 26 20 18 33 28 29 21 -6 -9
3 -8 31 4 21 9 45 18 53 21 9 2 21 17 28 33 11 23 11 33 0 49 -12 19 -71 47
-113 54 -11 1 -26 6 -32 10 -7 5 -13 5 -13 2 0 -4 -15 11 -32 33 -18 23 -40
42 -48 42 -10 1 -11 3 -3 7 9 3 10 10 3 22 -5 10 -6 21 -3 25 3 3 2 6 -4 6 -5
0 -10 15 -10 33 0 30 -9 99 -17 142 -3 11 -5 30 -5 43 -1 13 -5 20 -11 17 -5
-3 -10 1 -10 9 0 20 -17 29 -26 15 -4 -8 -3 -9 4 -5 7 4 12 2 12 -3 0 -6 -5
-11 -11 -11 -5 0 -7 -5 -3 -12 4 -6 3 -8 -4 -4 -6 3 -9 18 -6 31 5 29 0 30
-40 8z m-29 -125 c-3 -8 -6 -5 -6 6 -1 11 2 17 5 13 3 -3 4 -12 1 -19z m164
-220 c2 6 9 4 16 -3 10 -11 7 -13 -17 -11 -16 1 -33 6 -37 11 -5 4 -2 5 6 0
11 -6 13 -4 8 11 -7 18 -6 18 7 1 8 -10 16 -14 17 -9z m63 -66 c3 -5 -1 -9 -9
-9 -8 0 -12 4 -9 9 3 4 7 8 9 8 2 0 6 -4 9 -8z m-394 -62 c0 -5 -5 -10 -11
-10 -5 0 -7 5 -4 10 3 6 8 10 11 10 2 0 4 -4 4 -10z m554 2 c3 -5 -1 -9 -9 -9
-8 0 -12 4 -9 9 3 4 7 8 9 8 2 0 6 -4 9 -8z m-589 -21 c3 -5 2 -12 -3 -15 -5
-3 -9 1 -9 9 0 17 3 19 12 6z m525 -46 c0 -12 -19 -12 -23 0 -4 9 -1 12 9 8 7
-3 14 -7 14 -8z m40 11 c0 -2 -8 -10 -17 -17 -16 -13 -17 -12 -4 4 13 16 21
21 21 13z m-100 -46 c0 -5 -5 -10 -11 -10 -5 0 -7 5 -4 10 3 6 8 10 11 10 2 0
4 -4 4 -10z m-320 -35 c0 -2 -10 -9 -22 -15 -22 -11 -22 -10 -4 4 21 17 26 19
26 11z m250 -10 c0 -8 -4 -15 -10 -15 -5 0 -7 7 -4 15 4 8 8 15 10 15 2 0 4
-7 4 -15z m-47 -149 c-3 -4 -9 -2 -14 5 -13 22 -11 31 5 17 8 -7 12 -17 9 -22z
m-109 -52 c3 -8 2 -12 -4 -9 -6 3 -10 10 -10 16 0 14 7 11 14 -7z m47 -126 c5
-10 4 -15 -5 -15 -8 0 -12 7 -8 15 3 10 1 13 -6 8 -6 -3 -13 -2 -16 3 -4 5 1
8 10 7 9 -1 20 -9 25 -18z"/>
<path d="M7385 12390 c-3 -5 -2 -10 4 -10 5 0 13 5 16 10 3 6 2 10 -4 10 -5 0
-13 -4 -16 -10z"/>
<path d="M2575 12232 c-297 -25 -317 -29 -336 -80 -13 -33 -5 -66 23 -94 20
-20 27 -21 132 -14 61 3 209 19 330 34 199 26 220 30 237 51 43 53 7 118 -66
124 -22 1 -166 -8 -320 -21z"/>
<path d="M16190 12019 c0 -5 5 -7 10 -4 6 3 10 8 10 11 0 2 -4 4 -10 4 -5 0
-10 -5 -10 -11z"/>
<path d="M4332 12010 c-310 -39 -602 -262 -724 -553 -64 -151 -88 -406 -53
-556 43 -182 192 -332 390 -393 100 -32 281 -32 380 -1 138 43 252 141 316
272 100 203 1 475 -207 573 -88 41 -169 48 -246 19 -145 -55 -225 -226 -168
-359 23 -53 78 -112 105 -112 17 0 55 35 55 51 0 15 -20 50 -46 82 -74 88 29
247 158 247 152 0 312 -207 279 -360 -24 -112 -77 -192 -164 -250 -199 -133
-491 -96 -652 83 -96 106 -130 250 -102 439 61 410 364 691 773 715 164 10
417 -54 568 -145 252 -150 489 -526 560 -887 41 -205 43 -431 6 -570 -24 -92
-20 -122 16 -131 37 -9 53 11 81 108 22 71 26 109 30 260 6 195 -3 285 -44
441 -79 307 -277 637 -476 795 -212 168 -562 265 -835 232z"/>
<path d="M15277 11734 c-106 -33 -172 -149 -146 -257 28 -121 176 -192 281
-136 25 13 58 68 58 96 0 55 -48 103 -103 103 -55 0 -60 -58 -6 -70 28 -7 37
-41 15 -59 -21 -18 -77 -16 -114 3 -60 31 -81 120 -42 184 67 110 238 93 325
-32 100 -146 109 -338 25 -555 -36 -92 -118 -229 -142 -237 -10 -3 -37 -30
-60 -60 -24 -30 -46 -54 -49 -54 -4 0 -14 40 -23 89 -32 178 -136 411 -237
537 -140 172 -307 222 -398 119 -46 -53 -53 -96 -49 -304 3 -181 4 -188 32
-249 33 -71 121 -161 199 -202 26 -14 47 -28 47 -31 0 -3 -60 -4 -134 -1 -170
6 -257 -12 -345 -68 -76 -49 -113 -104 -118 -173 -3 -40 1 -60 16 -84 75 -120
367 -159 588 -78 35 12 63 18 63 13 0 -5 -18 -31 -40 -59 -45 -58 -53 -101
-20 -119 32 -17 53 -5 110 63 30 34 59 68 65 75 8 9 11 -25 11 -140 -1 -136 2
-161 23 -222 88 -255 394 -334 457 -118 33 111 3 279 -87 496 -27 66 -47 121
-45 124 3 2 40 -21 83 -51 115 -81 190 -117 269 -129 62 -9 80 -8 175 16 59
14 133 26 166 26 92 0 154 23 201 74 110 119 42 272 -154 346 -157 58 -406 53
-675 -15 -56 -14 -104 -24 -106 -21 -3 3 8 22 24 43 16 21 58 80 94 132 138
204 347 373 507 411 104 24 207 -12 250 -88 57 -102 -6 -212 -121 -212 -38 0
-53 5 -72 25 -28 27 -31 45 -13 63 16 16 50 15 74 -3 29 -22 61 -19 70 7 5 17
-1 28 -25 50 -26 23 -41 28 -82 28 -61 0 -84 -11 -104 -50 -50 -96 30 -193
157 -193 160 0 265 178 185 315 -107 184 -347 183 -592 -2 -36 -27 -70 -50
-75 -50 -4 0 -2 24 6 53 24 85 29 241 10 321 -21 90 -79 199 -129 241 -83 71
-190 98 -280 69z m-368 -452 c19 -9 48 -34 65 -55 27 -34 31 -46 31 -103 0
-58 -3 -66 -31 -94 -74 -75 -218 -50 -264 45 -26 53 -25 91 3 145 37 74 122
101 196 62z m1283 -742 c78 -22 111 -110 70 -189 -24 -48 -62 -73 -120 -79
-92 -8 -162 52 -162 140 0 104 93 161 212 128z m-1511 -66 c44 -40 40 -116 -8
-154 -59 -46 -157 -1 -157 72 0 41 26 85 57 98 30 13 85 5 108 -16z m734 -554
c30 -29 39 -74 20 -110 -42 -82 -145 -80 -180 4 -18 43 -8 81 28 112 25 21 38
25 70 21 21 -3 49 -15 62 -27z"/>
<path d="M11305 11547 c-41 -13 -53 -24 -75 -67 -28 -54 -41 -144 -48 -336 -4
-95 -10 -176 -14 -180 -11 -10 -208 28 -229 45 -18 14 -21 36 -28 198 -8 155
-12 189 -30 227 -36 74 -60 80 -301 84 -221 3 -271 -3 -332 -44 -65 -42 -89
-108 -119 -329 -6 -49 -17 -96 -24 -103 -8 -9 -68 -14 -208 -19 -164 -5 -197
-4 -202 8 -2 8 -14 88 -25 178 -24 194 -32 231 -66 270 -41 49 -78 54 -302 37
-108 -9 -215 -21 -237 -27 -54 -15 -119 -83 -133 -140 -6 -24 -16 -111 -22
-194 -6 -82 -15 -154 -20 -159 -4 -4 -64 -10 -133 -13 l-125 -6 -5 29 c-7 32
-14 118 -22 264 -15 243 -52 287 -234 278 -147 -7 -238 -67 -278 -183 -15 -44
-18 -94 -18 -405 0 -468 -6 -446 198 -770 216 -345 291 -444 356 -473 42 -19
71 -21 361 -25 173 -2 650 1 1060 8 410 7 997 13 1305 14 308 1 566 3 574 6
18 6 27 -43 32 -175 l4 -90 -100 -2 c-55 -1 -185 -7 -290 -13 -471 -25 -584
-30 -960 -40 -220 -6 -627 -20 -905 -30 -278 -11 -636 -20 -796 -20 l-292 0
-31 -29 c-26 -24 -31 -37 -31 -73 0 -56 19 -82 75 -104 42 -16 81 -16 448 -11
221 4 483 11 582 16 99 6 356 15 570 21 588 15 943 29 1334 51 194 10 363 19
375 19 l21 0 2 -933 c1 -911 14 -1676 33 -2007 6 -91 13 -290 17 -443 l6 -278
-46 -47 c-75 -76 -79 -98 -85 -403 -4 -264 6 -449 29 -491 14 -26 67 -48 102
-41 15 3 38 18 50 33 23 27 24 31 30 356 4 181 10 343 15 359 14 54 56 66 294
81 240 16 259 22 296 94 21 43 22 53 22 336 0 259 2 299 20 370 12 48 29 88
43 101 28 29 156 57 322 73 151 13 184 22 219 59 40 42 45 80 30 247 -7 82
-13 195 -14 252 0 94 2 105 23 126 28 28 99 42 282 56 143 10 166 20 197 81
15 28 18 61 18 179 0 161 16 249 52 288 21 22 102 52 141 52 18 0 18 -8 13
-227 -4 -126 -9 -292 -12 -370 -5 -120 -3 -143 9 -143 22 0 47 -34 47 -64 0
-19 -8 -32 -30 -44 -25 -14 -30 -25 -34 -67 -10 -92 -29 -1394 -23 -1513 6
-112 19 -187 35 -195 16 -9 184 21 193 34 19 30 21 62 5 111 -19 59 -21 293
-6 903 24 1006 30 1215 36 1402 l7 203 36 9 c20 5 257 12 526 15 507 5 669 12
1060 47 251 22 336 40 402 88 23 16 97 96 166 178 68 81 155 182 192 223 37
41 76 92 87 114 24 48 51 303 52 506 1 193 -16 218 -166 241 -42 7 -119 9
-182 6 -221 -12 -264 -64 -320 -390 -8 -48 -17 -91 -20 -96 -8 -13 -137 14
-147 30 -5 8 -9 31 -9 51 0 75 -22 195 -44 244 -31 67 -73 93 -174 106 -96 13
-243 -3 -308 -33 -75 -36 -98 -81 -119 -239 -23 -165 -14 -151 -95 -149 -39 1
-76 7 -84 13 -8 7 -17 55 -24 134 -19 217 -67 271 -242 271 -198 1 -330 -37
-378 -108 -31 -48 -51 -120 -58 -215 -9 -137 1 -126 -113 -126 -67 0 -102 4
-109 13 -5 6 -15 63 -21 125 -15 150 -40 213 -105 277 -59 58 -104 75 -198 75
-181 0 -348 -100 -388 -233 -18 -61 -30 -288 -21 -408 5 -74 14 -116 28 -144
23 -44 240 -260 371 -370 45 -37 79 -71 75 -75 -5 -3 -34 -14 -65 -24 -162
-48 -242 -186 -256 -437 l-7 -123 -30 -7 c-16 -4 -76 -12 -132 -18 -55 -6
-127 -20 -160 -32 -78 -29 -153 -105 -174 -174 -15 -52 -18 -221 -9 -410 l5
-100 -65 -8 c-237 -28 -339 -55 -415 -107 -56 -38 -90 -96 -122 -207 -25 -83
-26 -104 -30 -369 l-5 -281 -60 -7 c-34 -3 -94 -6 -134 -6 l-74 0 0 88 c0 78
-21 633 -35 902 -12 252 -25 1783 -20 2285 7 578 4 648 -37 906 l-22 136 20
39 c11 21 82 154 157 294 161 302 177 342 184 470 7 130 -23 593 -42 658 -18
61 -62 108 -113 121 -51 13 -989 20 -1027 8z m295 -47 c41 -41 12 -94 -57
-105 -120 -21 -128 -36 -172 -319 -14 -89 -23 -123 -37 -133 -25 -18 -41 -16
-65 8 -19 19 -21 28 -14 101 8 98 31 250 45 299 24 83 78 132 174 155 74 18
103 17 126 -6z m-1108 -67 c22 -20 24 -66 3 -83 -9 -7 -39 -17 -67 -21 -28 -5
-56 -13 -61 -18 -14 -14 -25 -83 -33 -214 -6 -110 -9 -120 -31 -134 -31 -21
-70 -5 -79 33 -10 39 3 293 17 334 14 43 54 88 94 106 44 19 134 18 157 -3z
m-1224 -19 c30 -21 30 -68 0 -88 -13 -8 -42 -18 -66 -22 -75 -12 -83 -33 -96
-267 -4 -77 -16 -97 -58 -97 -24 0 -32 6 -45 38 -13 30 -14 59 -9 157 4 66 11
137 17 158 15 55 56 96 119 117 67 24 109 25 138 4z m-1013 -58 c24 -17 33
-86 34 -258 1 -136 1 -137 -25 -157 -34 -27 -40 -26 -69 4 -25 24 -25 26 -25
209 0 180 1 185 22 200 27 20 39 20 63 2z m37 -606 c11 -23 18 -66 20 -123 3
-78 1 -90 -16 -103 -29 -21 -64 -17 -80 9 -8 12 -17 64 -21 119 -6 90 -5 98
15 118 30 30 61 22 82 -20z m156 -356 c15 -25 60 -98 99 -162 75 -121 89 -167
58 -192 -20 -17 -63 -16 -80 1 -28 29 -185 314 -185 337 0 40 18 62 51 62 25
0 34 -8 57 -46z m3456 -420 c23 -23 20 -61 -6 -78 -35 -21 -379 -30 -1598 -42
-333 -3 -641 -7 -685 -9 -224 -10 -626 -16 -659 -10 -65 13 -85 77 -33 109 23
14 17 14 1312 35 220 4 682 8 1027 9 558 2 628 0 642 -14z m4520 -880 c31 -30
24 -57 -28 -115 -55 -61 -66 -102 -75 -269 -7 -151 -15 -170 -63 -170 -56 0
-70 85 -47 288 13 121 38 179 100 237 51 48 86 57 113 29z m-731 -56 c9 -11
17 -25 17 -32 0 -25 -30 -53 -69 -65 -67 -19 -73 -37 -72 -210 1 -138 0 -152
-19 -171 -26 -26 -52 -25 -76 1 -17 19 -19 41 -22 185 -3 152 -2 167 18 209
45 93 172 141 223 83z m-1866 0 c7 -6 13 -26 13 -45 0 -30 -4 -36 -44 -53 -77
-33 -82 -49 -89 -307 -2 -73 -8 -117 -16 -127 -19 -22 -54 -20 -77 5 -17 18
-19 40 -22 169 -5 187 7 247 56 303 61 67 137 90 179 55z m925 -5 c32 -29 23
-60 -32 -99 -28 -20 -56 -46 -63 -58 -8 -14 -13 -80 -14 -201 -1 -158 -4 -181
-19 -192 -73 -53 -110 56 -102 293 4 94 8 119 29 160 45 87 154 140 201 97z
m1512 -919 c9 -8 16 -26 16 -38 0 -42 -28 -54 -135 -61 -55 -3 -138 -8 -185
-11 -140 -8 -1132 -14 -1319 -7 -164 5 -176 7 -197 28 -25 25 -23 55 4 77 12
10 167 14 721 18 388 3 790 6 893 8 158 2 189 0 202 -14z"/>
<path d="M6900 11416 c0 -2 7 -9 15 -16 9 -7 15 -8 15 -2 0 5 -7 12 -15 16 -8
3 -15 4 -15 2z"/>
<path d="M5042 10109 c-75 -15 -103 -69 -136 -268 -14 -79 -30 -149 -36 -155
-11 -11 -105 -14 -116 -3 -3 3 -1 51 5 106 20 171 -3 246 -89 288 -43 22 -57
23 -321 24 -257 1 -280 -1 -322 -19 -25 -11 -53 -32 -62 -46 -29 -44 -51 -165
-68 -371 -2 -29 -4 -30 -52 -30 l-50 0 -8 40 c-60 309 -98 355 -299 355 -57 1
-162 5 -235 10 -147 10 -182 4 -224 -36 -48 -46 -52 -92 -40 -396 15 -358 13
-353 226 -492 72 -47 154 -114 236 -193 137 -130 157 -142 289 -163 79 -12
366 -25 1050 -45 283 -8 623 -21 755 -28 376 -19 370 -20 437 68 142 187 484
708 548 835 64 126 78 268 33 328 -49 66 -146 87 -421 95 -183 6 -220 -1 -256
-44 -33 -39 -43 -76 -57 -220 -7 -65 -15 -123 -18 -128 -3 -5 -26 -11 -50 -12
l-45 -4 3 161 c3 168 -5 210 -47 258 -36 40 -119 56 -387 72 -60 3 -132 9
-160 13 -27 4 -65 4 -83 0z m-596 -94 c27 -27 26 -59 -2 -81 -8 -6 -64 -14
-125 -16 -163 -8 -178 -25 -194 -220 -7 -97 -12 -117 -33 -140 -18 -22 -42
-23 -67 -4 -17 13 -19 25 -17 108 10 310 64 376 315 377 92 1 99 -1 123 -24z
m932 -10 c27 -32 28 -49 2 -75 -18 -18 -33 -20 -138 -20 -110 0 -120 -2 -139
-22 -21 -23 -42 -119 -44 -203 -3 -88 -35 -130 -84 -111 -38 14 -42 128 -10
289 29 141 100 181 300 172 81 -4 92 -7 113 -30z m-2190 -32 c17 -16 21 -35
27 -150 6 -124 5 -133 -14 -152 -27 -27 -49 -26 -78 1 -22 20 -23 29 -23 150
0 115 2 130 20 148 25 25 42 25 68 3z m3038 -28 c34 -52 -6 -90 -106 -100 -36
-3 -73 -8 -83 -11 -27 -8 -38 -48 -44 -154 -5 -80 -10 -97 -29 -117 -23 -23
-43 -23 -71 0 -19 14 -17 210 2 274 18 62 68 109 122 118 21 4 43 8 48 10 6 2
40 4 77 4 61 1 69 -1 84 -24z m-3002 -397 c8 -13 17 -51 21 -84 4 -34 14 -73
23 -88 9 -15 55 -51 102 -79 70 -44 86 -57 88 -81 4 -35 -22 -66 -57 -66 -24
0 -103 43 -177 97 -51 37 -85 113 -91 204 -5 67 -3 82 12 99 24 27 61 25 79
-2z m1636 -608 c228 0 514 3 635 6 248 8 290 2 301 -43 9 -33 -5 -55 -40 -64
-77 -21 -992 -31 -1590 -18 -314 7 -318 8 -318 65 0 17 9 35 23 47 23 19 36
19 299 13 151 -3 462 -6 690 -6z"/>
<path d="M7313 9529 c-20 -12 -59 -63 -99 -127 -208 -332 -462 -667 -834
-1098 -349 -404 -390 -454 -450 -542 -55 -82 -68 -127 -48 -168 20 -42 58 -64
130 -76 l66 -12 8 -70 c4 -39 7 -341 6 -671 -1 -330 3 -712 8 -850 15 -369 39
-736 52 -768 6 -16 21 -35 32 -42 31 -20 99 -22 128 -3 50 33 52 56 34 321
-27 404 -37 757 -34 1302 1 286 -2 573 -6 638 l-8 118 243 -7 c149 -4 316 -2
429 5 338 21 1127 106 1350 146 47 8 88 15 91 15 14 0 24 -790 24 -1833 l0
-1119 33 -29 c56 -50 133 -36 168 33 14 27 16 151 17 1152 2 798 -2 1225 -12
1483 l-14 361 37 32 c44 39 64 96 46 130 -7 13 -96 118 -199 233 -312 352
-373 427 -548 677 -105 150 -171 258 -277 459 -94 179 -174 288 -229 314 -47
23 -105 21 -144 -4z m115 -171 c28 -28 11 -65 -99 -223 -146 -212 -176 -239
-221 -198 -38 34 -24 64 117 253 119 158 138 180 163 180 15 0 33 -5 40 -12z
m206 -360 c20 -24 79 -101 132 -173 77 -106 94 -135 89 -155 -12 -50 -55 -63
-97 -30 -37 28 -228 315 -228 341 0 28 27 59 51 59 10 0 34 -19 53 -42z m-179
-32 c9 -14 13 -31 8 -42 -12 -33 -175 -254 -194 -264 -43 -23 -89 0 -89 45 0
22 161 243 198 273 25 19 60 14 77 -12z m-457 -202 c40 -28 28 -56 -104 -234
-127 -172 -155 -197 -192 -173 -29 18 -37 41 -26 71 14 37 243 328 269 341 27
13 27 13 53 -5z m1010 -291 c21 -19 194 -250 212 -284 25 -45 -37 -98 -85 -72
-20 12 -225 304 -225 322 0 23 31 51 55 51 13 0 32 -8 43 -17z m-1013 -195 c7
-11 11 -28 8 -37 -9 -24 -223 -323 -246 -344 -32 -28 -97 3 -97 47 0 23 189
280 245 333 37 35 65 35 90 1z m-453 -125 c10 -9 18 -26 18 -39 0 -13 -59 -99
-148 -216 -123 -160 -153 -194 -176 -196 -16 -2 -36 4 -47 14 -38 34 -25 61
116 239 179 224 194 237 237 198z"/>
<path d="M3128 8794 c-243 -48 -490 -178 -671 -353 -114 -110 -176 -192 -238
-316 -148 -298 -134 -625 37 -851 172 -227 468 -296 723 -167 130 65 213 167
240 291 44 210 -44 409 -217 490 -49 23 -70 27 -147 27 -81 0 -96 -3 -150 -32
-135 -70 -200 -198 -165 -325 24 -84 95 -131 194 -129 108 2 189 61 164 117
-14 30 -50 31 -109 4 -60 -27 -86 -25 -120 9 -49 50 -37 121 33 188 44 42 96
63 160 63 145 0 258 -138 258 -316 0 -91 -24 -150 -89 -215 -206 -204 -544
-160 -711 94 -166 253 -115 607 131 905 159 193 403 336 709 417 114 30 144
59 104 99 -18 19 -44 19 -136 0z"/>
<path d="M4650 8507 c-135 -38 -239 -168 -289 -361 -25 -94 -45 -329 -36 -405
8 -63 35 -97 86 -106 19 -3 151 -2 294 2 232 8 264 11 294 28 64 38 76 64 80
183 4 122 -13 322 -33 399 -32 120 -91 197 -184 240 -64 30 -150 38 -212 20z"/>
<path d="M16916 7804 c-21 -20 -20 -47 2 -66 9 -9 58 -36 107 -61 276 -137
483 -335 600 -572 73 -147 95 -232 102 -380 6 -138 -14 -242 -67 -350 -57
-117 -169 -223 -280 -266 -113 -45 -270 -35 -384 23 -60 31 -153 124 -182 184
-63 128 -7 329 114 409 47 31 134 51 183 41 95 -17 182 -115 182 -204 0 -38
-5 -50 -31 -74 -42 -37 -69 -35 -131 7 -57 39 -95 45 -111 16 -16 -30 -12 -47
16 -81 51 -60 148 -91 222 -70 90 24 141 100 142 210 0 87 -30 150 -103 217
-72 65 -135 88 -238 87 -223 -2 -390 -206 -377 -458 7 -120 37 -187 127 -276
120 -120 265 -176 431 -167 116 5 200 32 292 93 253 169 365 511 279 859 -91
368 -397 708 -776 862 -92 38 -98 38 -119 17z"/>
<path d="M15205 7527 c9 -175 35 -691 35 -704 0 -17 89 -17 178 -2 78 14 126
51 143 111 12 47 -2 242 -26 359 -39 187 -132 292 -298 337 l-38 11 6 -112z"/>
<path d="M15032 7587 c-157 -84 -262 -299 -262 -535 0 -118 15 -181 50 -217
30 -30 32 -30 153 -33 67 -1 128 1 134 6 12 8 11 49 -12 377 -2 39 -5 150 -5
248 0 97 -3 177 -8 177 -4 0 -27 -10 -50 -23z"/>
<path d="M10413 7419 c30 -220 36 -436 39 -1414 1 -451 4 -878 8 -950 6 -144
1 -177 -32 -213 l-23 -24 170 6 c94 4 285 14 425 22 219 12 261 18 298 35 56
28 94 84 95 141 0 24 -16 216 -37 428 -20 212 -40 415 -43 453 -3 37 -9 67
-13 67 -4 0 -21 -7 -39 -16 -17 -9 -64 -20 -104 -26 -93 -13 -391 -5 -437 12
-124 45 -174 169 -115 286 28 55 71 89 142 110 68 21 362 39 441 27 44 -7 62
-7 62 1 0 27 -64 270 -97 371 -70 212 -141 339 -259 465 -128 135 -291 228
-448 256 l-39 7 6 -44z"/>
<path d="M10102 7425 c-167 -57 -321 -155 -442 -282 -127 -132 -210 -271 -300
-500 -35 -90 -110 -330 -110 -353 0 -5 18 -3 41 5 61 22 249 38 374 33 183 -8
261 -59 273 -177 9 -96 -67 -205 -161 -230 -76 -21 -190 -31 -317 -27 -135 4
-184 17 -231 62 -15 14 -29 22 -32 17 -7 -12 -45 -309 -56 -448 -6 -66 -13
-223 -17 -350 -5 -220 -5 -231 15 -262 26 -42 64 -61 148 -73 100 -15 1023
-24 1000 -10 -28 18 -44 61 -52 135 -3 39 -8 464 -11 945 -2 481 -7 1025 -10
1208 -7 380 5 346 -112 307z"/>
<path d="M4616 7365 c-64 -23 -147 -86 -192 -148 -87 -117 -129 -278 -144
-542 -10 -182 -7 -205 27 -237 l25 -23 286 3 c414 5 467 16 505 101 17 40 19
58 13 150 -17 263 -97 499 -207 609 -92 92 -208 125 -313 87z"/>
<path d="M15080 6364 c-90 -39 -162 -132 -207 -268 -22 -69 -27 -104 -31 -236
-8 -289 15 -324 226 -339 80 -5 91 -4 86 9 -13 32 -40 796 -29 829 8 25 2 25
-45 5z"/>
<path d="M15234 6353 c3 -16 12 -200 22 -411 13 -299 15 -388 5 -408 l-12 -27
73 7 c188 18 228 57 228 218 0 332 -82 543 -242 624 -63 32 -79 31 -74 -3z"/>
<path d="M4688 6038 c-134 -17 -247 -120 -306 -281 -33 -88 -52 -227 -52 -385
0 -239 6 -244 283 -243 197 1 394 15 444 32 18 6 44 24 58 40 23 28 25 39 25
123 0 51 -6 114 -15 142 -8 27 -21 84 -30 126 -34 166 -83 282 -154 360 -24
27 -57 56 -73 64 -43 22 -114 31 -180 22z"/>
<path d="M9935 4085 c-296 -46 -567 -179 -825 -405 -143 -125 -331 -373 -423
-556 -19 -38 -41 -75 -49 -81 -25 -21 -230 -31 -783 -38 -463 -6 -1185 -22
-1355 -30 -216 -9 -744 -20 -1010 -20 -608 0 -1174 7 -1330 15 -321 18 -808
23 -1205 11 -220 -6 -524 -12 -675 -13 -282 -1 -603 -20 -674 -39 -84 -23
-132 -107 -107 -190 30 -99 90 -128 331 -161 175 -23 176 -23 1310 -23 1045 0
3395 21 3500 31 25 3 347 7 715 9 902 7 1341 13 1395 20 76 10 135 34 179 72
24 20 92 109 151 199 161 240 250 341 431 487 83 67 210 136 308 169 87 28
111 31 255 36 245 7 419 -25 591 -108 150 -72 247 -185 375 -438 99 -197 190
-275 350 -303 77 -14 530 -18 790 -8 102 4 343 12 535 18 193 6 406 14 475 17
806 35 2373 40 2810 9 30 -2 125 -7 210 -10 85 -4 178 -8 205 -10 28 -3 187
-9 355 -15 168 -6 341 -12 385 -15 44 -2 177 -7 295 -11 118 -3 218 -8 221
-10 3 -2 113 -6 245 -10 359 -10 481 11 558 97 54 59 60 138 14 204 -58 85
-211 133 -513 160 -147 13 -205 17 -440 30 -281 16 -2638 24 -3540 12 -313 -4
-786 -9 -1050 -12 -264 -3 -552 -7 -640 -10 -88 -2 -272 -7 -410 -10 -137 -4
-270 -8 -295 -11 -63 -7 -91 9 -124 69 -52 93 -187 290 -251 367 -229 272
-526 448 -854 504 -112 19 -320 20 -436 1z"/>
</g>
</svg>
