<?xml version="1.0" standalone="no"?>
<!DOCTYPE svg PUBLIC "-//W3C//DTD SVG 20010904//EN"
 "http://www.w3.org/TR/2001/REC-SVG-20010904/DTD/svg10.dtd">
<svg version="1.0" xmlns="http://www.w3.org/2000/svg"
 width="1280.000000pt" height="670.000000pt" viewBox="0 0 1280.000000 670.000000"
 preserveAspectRatio="xMidYMid meet">
<metadata>
Created by potrace 1.15, written by Peter Selinger 2001-2017
</metadata>
<g transform="translate(0.000000,670.000000) scale(0.100000,-0.100000)"
fill="#000000" stroke="none">
<path d="M5775 6679 c-79 -27 -151 -83 -210 -161 -153 -202 -163 -405 -33
-648 126 -236 393 -506 740 -748 133 -93 119 -90 196 -40 36 23 116 81 178
128 359 273 598 552 680 795 39 114 39 251 1 348 -75 193 -229 330 -385 344
-143 13 -334 -72 -483 -214 l-58 -55 -68 61 c-187 172 -402 245 -558 190z"/>
<path d="M7395 5579 c-291 -52 -496 -183 -653 -417 -204 -306 -248 -726 -117
-1127 55 -169 171 -382 306 -561 163 -217 356 -405 708 -693 697 -566 835
-702 942 -926 62 -127 82 -226 77 -364 -11 -257 -119 -498 -315 -702 -133
-138 -320 -258 -473 -302 -114 -34 -138 -38 -240 -44 -492 -27 -888 339 -856
790 18 258 163 454 396 533 200 67 410 25 546 -110 131 -132 165 -297 90 -444
-28 -56 -92 -117 -145 -139 -125 -54 -294 24 -322 148 -18 78 37 194 103 215
15 4 18 12 14 27 -4 12 -13 50 -22 84 -9 35 -22 63 -28 63 -25 0 -116 -62
-154 -105 -101 -115 -118 -307 -39 -432 103 -162 326 -234 507 -163 116 46
221 156 270 285 31 80 34 242 6 325 -30 89 -83 177 -151 248 -76 80 -145 124
-262 165 -81 29 -99 31 -218 32 -152 0 -228 -16 -351 -76 -410 -200 -545 -737
-292 -1167 18 -31 78 -102 133 -157 367 -367 920 -397 1400 -75 165 110 361
335 455 520 38 76 88 226 106 318 20 106 20 298 -1 392 -30 135 -99 277 -196
408 -124 167 -257 290 -692 644 -372 301 -445 365 -598 517 -333 334 -520 649
-585 988 -20 104 -22 318 -5 413 41 224 155 430 306 553 68 55 192 118 280
142 91 25 312 31 408 11 285 -59 503 -245 592 -506 38 -111 51 -264 33 -370
-49 -272 -242 -483 -504 -550 -270 -69 -553 66 -644 308 -33 85 -25 203 20
297 62 129 158 197 282 197 166 0 274 -124 224 -257 -16 -40 -58 -87 -86 -97
-8 -2 -6 -27 8 -82 11 -43 23 -80 25 -82 3 -3 22 2 43 11 57 24 128 99 160
169 37 81 39 204 5 281 -63 142 -213 235 -379 235 -131 0 -243 -48 -337 -144
-72 -73 -119 -158 -145 -262 -53 -208 3 -398 164 -559 158 -158 370 -231 589
-204 377 46 677 328 743 699 49 276 -34 573 -221 785 -97 111 -259 215 -416
269 -145 49 -360 69 -494 45z"/>
<path d="M5056 5564 c-199 -36 -366 -119 -506 -250 -122 -116 -205 -251 -257
-421 -24 -79 -26 -104 -27 -253 -1 -143 2 -175 22 -243 81 -280 290 -500 562
-589 77 -25 117 -32 212 -36 147 -6 235 13 361 75 74 38 108 63 177 132 161
161 218 333 175 536 -30 142 -124 284 -235 355 -220 141 -533 63 -633 -158
-16 -36 -21 -68 -21 -137 -1 -78 3 -98 27 -150 35 -75 87 -130 152 -161 27
-13 51 -22 53 -20 9 10 39 161 32 164 -50 18 -99 100 -100 165 0 113 130 209
262 194 114 -14 204 -85 262 -206 28 -60 31 -75 31 -166 0 -94 -2 -104 -34
-169 -21 -40 -58 -92 -92 -125 -228 -228 -603 -207 -853 47 -74 76 -109 130
-146 224 -102 264 -33 593 169 798 152 154 348 233 586 234 154 1 249 -20 384
-85 88 -43 116 -63 186 -132 178 -178 265 -406 265 -700 0 -404 -190 -793
-582 -1189 -132 -134 -235 -222 -568 -493 -329 -267 -488 -405 -592 -513 -315
-328 -423 -651 -338 -1012 109 -458 491 -858 933 -975 471 -126 988 78 1182
465 66 133 95 258 95 412 0 315 -150 568 -414 697 -137 67 -223 85 -380 78
-174 -7 -281 -47 -411 -153 -163 -133 -253 -388 -200 -569 70 -242 277 -391
495 -356 90 15 199 70 251 129 68 76 93 141 93 242 -1 119 -28 185 -108 266
-55 55 -127 96 -142 81 -5 -5 -43 -145 -44 -159 0 -5 5 -8 11 -8 24 0 68 -43
89 -85 26 -53 28 -130 6 -173 -22 -42 -89 -97 -135 -110 -136 -41 -263 24
-330 168 -20 44 -25 70 -26 135 0 71 4 88 36 156 150 313 599 363 864 95 119
-119 169 -252 169 -441 0 -211 -74 -382 -228 -522 -204 -187 -529 -264 -806
-190 -320 84 -597 316 -745 622 -74 153 -95 232 -102 390 -7 156 13 252 77
380 108 216 283 391 825 825 596 479 851 758 1036 1135 72 147 116 273 146
415 25 117 25 392 1 506 -115 530 -486 847 -987 843 -58 0 -141 -7 -185 -15z"/>
<path d="M3048 4659 c-325 -34 -604 -187 -752 -413 -125 -190 -175 -375 -213
-786 -14 -153 -18 -293 -18 -645 0 -465 4 -533 50 -955 35 -307 40 -421 26
-534 -22 -174 -76 -299 -171 -395 -147 -149 -349 -169 -576 -57 -193 96 -335
273 -484 605 -135 300 -147 430 -48 504 68 51 216 6 317 -95 122 -122 201
-301 209 -475 5 -101 4 -103 -17 -103 -28 0 -71 22 -95 49 -17 19 -17 21 -3
21 39 0 10 99 -41 142 -32 27 -119 65 -128 56 -2 -3 -8 -44 -11 -91 -5 -79 -4
-90 21 -141 33 -68 110 -139 173 -160 92 -32 224 -11 239 37 16 50 7 251 -16
342 -24 99 -83 234 -126 290 -15 19 -25 37 -23 39 2 2 40 -3 84 -11 175 -34
348 18 458 137 207 223 179 580 -78 1015 -157 265 -364 493 -620 680 -346 253
-636 290 -837 105 -129 -117 -186 -287 -210 -617 -17 -240 -10 -275 118 -612
140 -367 280 -759 343 -959 56 -179 104 -362 98 -369 -6 -6 -136 136 -221 242
-207 256 -356 549 -356 699 l0 31 26 -39 c37 -54 105 -203 144 -316 18 -52 34
-96 35 -98 6 -8 125 33 125 43 0 24 -70 216 -108 297 -102 220 -210 306 -312
250 -42 -23 -54 -69 -46 -182 14 -211 143 -471 378 -767 104 -130 303 -335
350 -359 39 -20 93 -9 119 25 18 22 20 36 17 98 l-5 72 46 -80 c167 -289 367
-449 632 -505 129 -28 286 -7 384 51 165 96 270 245 326 460 21 78 24 114 24
273 0 119 3 175 9 160 90 -227 216 -410 423 -614 266 -263 601 -474 1028 -649
132 -54 134 -53 -201 -20 -796 78 -1590 213 -2214 376 -147 39 -394 113 -462
139 -88 33 -64 15 44 -33 316 -141 853 -315 1318 -428 492 -119 1195 -236
1765 -294 229 -23 562 -49 1000 -77 283 -18 2547 -18 2830 0 912 59 1251 94
1895 198 787 126 1590 345 2153 586 125 54 153 74 45 34 -117 -44 -485 -145
-773 -211 -596 -137 -1299 -242 -2150 -320 -59 -5 -58 -5 95 58 249 102 494
232 670 356 308 216 594 517 715 753 l45 89 0 -103 c0 -644 471 -978 980 -697
141 78 331 292 424 477 14 28 28 52 29 52 2 0 -1 -27 -6 -59 -5 -33 -7 -75 -3
-94 9 -46 48 -81 90 -81 41 0 124 70 268 228 332 365 525 739 505 981 -4 40
-9 79 -12 87 -16 41 -126 51 -181 17 -41 -25 -108 -117 -157 -215 -36 -71
-117 -293 -117 -319 0 -11 88 -45 117 -45 4 0 24 46 43 102 39 115 130 307
156 328 15 13 16 10 9 -40 -28 -212 -230 -552 -495 -830 -78 -83 -81 -84 -74
-50 29 162 224 743 421 1255 119 308 123 319 133 423 10 97 0 316 -21 442 -40
243 -140 405 -296 482 -66 32 -72 33 -193 33 -105 0 -135 -4 -188 -23 -300
-108 -629 -381 -872 -721 -281 -396 -379 -789 -259 -1042 82 -173 227 -262
429 -263 52 -1 117 3 144 7 l49 9 -22 -34 c-66 -101 -121 -235 -142 -351 -14
-78 -14 -269 0 -295 17 -33 92 -56 159 -49 147 13 272 141 272 276 0 31 -3 73
-7 94 -6 37 -7 39 -36 33 -57 -11 -114 -53 -136 -99 -26 -53 -28 -97 -4 -97
14 0 14 -2 -3 -21 -19 -21 -43 -33 -89 -45 -25 -6 -25 -6 -25 67 0 153 62 326
164 455 58 74 102 110 179 144 150 66 253 9 251 -141 -1 -76 -23 -147 -94
-314 -104 -244 -194 -389 -315 -510 -120 -120 -242 -183 -399 -206 -239 -35
-440 126 -517 416 -30 111 -30 326 -1 575 43 358 53 517 59 890 9 604 -26
1049 -104 1294 -84 267 -245 453 -494 570 -356 168 -808 148 -1225 -55 -416
-202 -750 -576 -879 -981 -45 -143 -59 -245 -52 -382 9 -180 57 -312 161 -443
95 -118 217 -193 383 -235 78 -20 113 -23 313 -23 142 0 253 5 300 13 443 78
685 300 683 627 -2 252 -172 468 -411 525 -67 16 -197 16 -265 0 -126 -29
-244 -112 -304 -211 -34 -57 -63 -152 -63 -204 0 -152 136 -275 304 -275 135
0 244 56 381 193 l79 80 -52 47 -51 46 -84 -81 c-104 -101 -184 -145 -266
-145 -69 0 -117 23 -149 70 -44 65 -13 178 70 257 148 141 426 125 568 -34 75
-85 95 -143 95 -278 0 -105 -2 -114 -33 -177 -104 -212 -376 -321 -802 -322
-162 0 -196 3 -275 23 -227 58 -364 193 -426 416 -19 69 -21 97 -16 210 6 154
32 255 107 412 234 491 724 835 1272 894 259 27 531 -36 713 -165 300 -214
389 -561 390 -1511 0 -393 -18 -775 -36 -775 -5 0 -9 9 -9 20 0 72 -89 229
-186 328 -57 57 -90 81 -156 111 -206 97 -404 80 -678 -57 -397 -199 -618
-516 -598 -859 15 -252 168 -466 389 -544 97 -35 249 -33 342 4 142 56 285
183 407 362 107 158 144 265 138 400 -3 83 -8 101 -41 168 -72 145 -211 215
-369 187 -124 -23 -222 -95 -307 -225 -64 -97 -86 -169 -86 -276 0 -75 4 -92
30 -144 38 -74 96 -113 177 -122 65 -6 116 8 160 45 31 26 88 99 88 112 0 7
-96 70 -107 70 -3 0 -23 -20 -45 -45 -41 -47 -64 -54 -113 -35 -65 25 -73 162
-14 277 67 132 166 206 274 206 199 1 275 -226 150 -449 -50 -88 -163 -232
-231 -292 -185 -163 -398 -172 -556 -24 -232 216 -197 600 78 863 113 109 288
212 452 268 240 82 449 16 585 -183 74 -109 81 -139 82 -326 0 -159 -1 -168
-31 -251 -62 -174 -185 -351 -379 -544 -379 -379 -907 -649 -1599 -821 -115
-28 -174 -37 -316 -45 -268 -16 -2561 -23 -3005 -9 -462 14 -537 21 -705 64
-821 208 -1417 559 -1784 1051 -156 209 -206 347 -206 570 1 150 11 192 79
304 127 210 344 280 596 191 316 -112 544 -306 634 -538 45 -117 58 -229 38
-327 -9 -43 -28 -103 -43 -133 -35 -72 -126 -162 -200 -198 -54 -26 -68 -29
-164 -29 -94 0 -111 3 -160 28 -84 41 -164 112 -250 219 -95 117 -144 203
-167 290 -34 129 11 257 107 305 52 27 97 29 170 7 104 -31 224 -190 237 -315
10 -103 -28 -169 -100 -169 -24 0 -71 43 -95 86 -8 15 -15 13 -66 -20 -31 -20
-56 -39 -56 -43 0 -5 17 -30 38 -58 52 -70 128 -108 200 -102 106 11 180 77
208 187 28 109 4 226 -71 350 -74 122 -167 196 -285 226 -308 79 -532 -224
-409 -552 64 -171 250 -401 407 -502 215 -139 476 -108 662 78 71 71 115 146
151 255 33 99 33 276 1 388 -76 264 -279 482 -587 628 -293 140 -484 149 -699
36 -159 -84 -316 -327 -316 -490 0 -96 -17 -33 -29 103 -52 641 -31 1368 50
1718 74 322 246 517 543 618 168 57 404 72 604 38 531 -90 1016 -490 1206
-996 57 -152 75 -365 41 -493 -43 -163 -146 -301 -274 -369 -118 -62 -216 -80
-431 -80 -345 1 -571 67 -716 209 -79 78 -114 152 -121 255 -19 275 188 473
457 439 88 -11 150 -39 209 -94 196 -184 46 -410 -196 -295 -44 20 -89 55
-147 112 l-84 83 -53 -45 -52 -46 79 -81 c96 -97 168 -147 253 -173 297 -93
519 145 391 418 -119 254 -479 344 -745 187 -230 -135 -322 -452 -204 -700 92
-194 290 -319 604 -382 72 -14 138 -18 330 -17 217 0 248 2 320 22 132 37 238
95 319 177 146 146 216 321 216 545 0 190 -37 337 -135 535 -257 519 -781 884
-1357 945 -109 11 -167 11 -280 -1z m9205 -884 c45 -19 118 -84 147 -130 53
-86 85 -226 101 -440 16 -222 8 -261 -102 -553 -50 -130 -129 -343 -175 -472
-47 -129 -87 -242 -90 -250 -4 -9 -13 4 -25 35 -39 105 -119 164 -236 174
l-62 6 60 75 c128 160 287 433 315 540 35 136 2 281 -81 365 -59 59 -113 78
-220 78 -249 -1 -432 -120 -551 -358 -55 -111 -78 -212 -71 -316 6 -88 22
-125 74 -168 152 -125 363 -47 469 174 28 57 34 81 34 135 0 63 -25 164 -39
158 -3 -2 -29 -15 -58 -30 l-52 -28 6 -69 c7 -80 -12 -128 -75 -194 -69 -72
-137 -87 -189 -43 -26 23 -28 29 -27 98 2 194 149 415 315 473 63 23 164 36
210 29 57 -9 104 -53 125 -116 32 -97 4 -189 -118 -391 -172 -285 -294 -415
-461 -492 -185 -85 -380 -60 -488 63 -128 146 -111 413 48 724 159 313 412
599 703 795 203 137 385 182 513 128z m-11426 -14 c271 -94 640 -425 847 -761
151 -243 218 -434 218 -620 0 -104 -18 -170 -67 -240 -95 -138 -316 -170 -517
-78 -155 72 -282 214 -464 515 -113 189 -136 287 -91 386 14 30 37 63 51 72
58 39 203 27 311 -25 140 -67 261 -252 280 -430 8 -76 -4 -111 -46 -134 -27
-14 -44 -17 -74 -12 -56 11 -146 103 -170 175 -16 49 -16 70 1 128 5 18 -2 26
-48 52 -29 17 -56 31 -59 31 -17 0 -41 -90 -41 -150 0 -209 214 -414 389 -371
67 17 150 76 169 120 58 137 3 369 -129 548 -86 116 -223 199 -368 222 -153
25 -245 6 -318 -67 -107 -107 -132 -261 -71 -425 38 -102 225 -404 309 -499
22 -25 41 -48 41 -51 0 -2 -28 -7 -63 -9 -34 -3 -81 -15 -104 -26 -50 -26
-118 -101 -134 -149 l-12 -36 -39 109 c-22 60 -103 277 -180 483 -88 234 -144
399 -150 440 -5 37 -7 123 -3 195 18 365 85 533 240 607 84 40 177 40 292 0z"/>
</g>
</svg>
