<?xml version="1.0" encoding="UTF-8" standalone="no"?>
<!-- Created with Inkscape (http://www.inkscape.org/) -->

<svg
   width="210mm"
   height="297mm"
   viewBox="0 0 210 297"
   version="1.1"
   id="svg1"
   xml:space="preserve"
   inkscape:version="1.4.3 (0d15f75, 2025-12-25)"
   sodipodi:docname="hadaestrella.svg"
   xmlns:inkscape="http://www.inkscape.org/namespaces/inkscape"
   xmlns:sodipodi="http://sodipodi.sourceforge.net/DTD/sodipodi-0.dtd"
   xmlns="http://www.w3.org/2000/svg"
   xmlns:svg="http://www.w3.org/2000/svg"><sodipodi:namedview
     id="namedview1"
     pagecolor="#ffffff"
     bordercolor="#000000"
     borderopacity="0.25"
     inkscape:showpageshadow="2"
     inkscape:pageopacity="0.0"
     inkscape:pagecheckerboard="0"
     inkscape:deskcolor="#d1d1d1"
     inkscape:document-units="mm"
     inkscape:zoom="0.34431467"
     inkscape:cx="-56.63424"
     inkscape:cy="370.3008"
     inkscape:window-width="1920"
     inkscape:window-height="991"
     inkscape:window-x="-9"
     inkscape:window-y="-9"
     inkscape:window-maximized="1"
     inkscape:current-layer="layer1" /><defs
     id="defs1" /><g
     inkscape:label="Capa 1"
     inkscape:groupmode="layer"
     id="layer1"><path
       style="fill:#000000"
       d="m 132.41085,291.75345 c -0.81636,-0.28266 -2.03397,-0.93659 -2.7058,-1.45316 -0.77808,-0.59828 -1.50206,-1.53723 -1.99435,-2.58652 -0.42507,-0.90601 -1.08083,-2.41125 -1.45727,-3.34498 -0.37643,-0.93373 -1.38866,-2.5846 -2.2494,-3.66861 -0.86073,-1.08401 -1.71096,-2.26234 -1.88938,-2.61852 -0.17842,-0.35618 -0.3244,-1.1205 -0.3244,-1.69848 0,-0.57798 0.39582,-1.95455 0.87959,-3.05905 0.71412,-1.63038 0.8796,-2.39994 0.8796,-4.09064 0,-1.14535 -0.21566,-3.55176 -0.47924,-5.34758 -0.35825,-2.44089 -0.45447,-4.68159 -0.38115,-8.87628 0.0539,-3.08614 0.0509,-5.61108 -0.007,-5.61099 -0.0576,9e-5 -1.01886,0.73547 -2.13615,1.63418 -1.11729,0.89871 -3.12088,2.54752 -4.45242,3.66401 -1.33154,1.11649 -3.68732,3.35948 -5.23508,4.98442 -1.54775,1.62494 -3.54449,3.98144 -4.43719,5.23666 -0.8927,1.25522 -2.14779,3.24075 -2.78909,4.41229 -0.64129,1.17154 -1.58795,3.21616 -2.10367,4.5436 -0.52306,1.34633 -1.35382,2.85811 -1.878786,3.41899 -0.51762,0.553 -1.2591,1.09073 -1.64774,1.19494 -0.38864,0.10421 -1.03797,0.10063 -1.44295,-0.008 -0.40498,-0.10859 -1.04583,-0.55423 -1.4241,-0.99031 -0.47554,-0.5482 -0.68778,-1.14862 -0.68778,-1.94572 0,-0.63407 0.20322,-2.15457 0.4516,-3.3789 0.24838,-1.22432 0.45315,-3.25304 0.45505,-4.50826 0.002,-1.47076 -0.25218,-3.32874 -0.71552,-5.22554 -0.39544,-1.61882 -0.67202,-3.19356 -0.61462,-3.4994 0.0574,-0.30585 0.17772,-0.92887 0.26737,-1.38448 0.0897,-0.45562 0.44985,-1.12037 0.80042,-1.47722 0.35056,-0.35686 0.91778,-0.85007 1.26047,-1.09602 0.3427,-0.24595 1.42103,-0.64607 2.39631,-0.88914 0.97527,-0.24307 2.419926,-0.81489 3.210356,-1.2707 0.79043,-0.45581 2.10003,-1.53434 2.91022,-2.39673 0.8102,-0.86239 2.28363,-2.71099 3.2743,-4.108 0.99066,-1.39701 4.59465,-5.51912 8.00885,-9.16026 3.41903,-3.64628 6.20764,-6.86242 6.20764,-7.15933 0,-0.29649 -0.20182,-0.84691 -0.44848,-1.22315 l -0.44849,-0.68409 -1.37384,1.31967 c -0.75562,0.72581 -1.88241,1.48245 -2.50398,1.68141 -0.62157,0.19896 -1.82707,0.36175 -2.67888,0.36175 -1.09547,0 -1.98205,-0.23069 -3.02923,-0.7882 -0.81426,-0.43351 -1.86581,-1.28764 -2.33677,-1.89807 -0.47097,-0.61043 -1.0696,-1.72778 -1.3303,-2.48299 -0.26069,-0.75521 -0.605,-1.55615 -0.76513,-1.77987 -0.18138,-0.25339 -0.61927,-0.34841 -1.16145,-0.25201 -0.47866,0.0851 -1.57523,0.37811 -2.43681,0.65111 -1.03534,0.32807 -2.03927,0.43378 -2.96073,0.31176 -0.76683,-0.10155 -1.872176,-0.44514 -2.456356,-0.76354 -0.58417,-0.3184 -1.40481,-1.014 -1.82363,-1.54577 -0.41882,-0.53178 -0.99653,-1.46208 -1.28381,-2.06735 -0.28727,-0.60526 -0.68726,-1.89365 -0.88887,-2.86308 l -0.36657,-1.76261 -0.87764,0.24113 c -0.4827,0.13262 -1.90299,0.2357 -3.1562,0.22906 -1.79671,-0.01 -2.53706,-0.15697 -3.50088,-0.69729 -0.67227,-0.37687 -1.74259,-1.24109 -2.37849,-1.92047 -0.6359,-0.67938 -1.4243,-1.87187 -1.75199,-2.64997 -0.42434,-1.00758 -0.59429,-2.02773 -0.59055,-3.54479 0.003,-1.2539 0.18946,-2.58419 0.45307,-3.23408 l 0.44781,-1.104 -1.25356,-0.18357 c -0.68946,-0.10096 -1.77803,-0.46943 -2.41905,-0.81881 -0.64102,-0.34939 -1.74028,-1.24934 -2.4428,-1.99989 -0.70252,-0.75056 -1.60532,-2.13011 -2.00622,-3.06567 -0.40091,-0.93556 -0.79086,-2.2882 -0.86658,-3.00586 -0.10021,-0.94986 0.0323,-1.67989 0.48704,-2.68351 0.34726,-0.76641 1.02681,-1.64054 1.53015,-1.96831 0.498,-0.32429 2.50758,-1.09345 4.46572,-1.70925 1.95815,-0.6158 4.95342,-1.72902 6.65616,-2.47383 1.70275,-0.74481 5.09924,-2.43786 7.54776,-3.76234 2.44852,-1.32447 7.079326,-4.10543 10.290676,-6.17991 3.21136,-2.07447 7.69729,-4.99708 9.96874,-6.49468 2.27144,-1.4976 5.32128,-3.45738 6.77741,-4.35507 1.45613,-0.8977 2.76713,-1.87098 2.91334,-2.16286 0.17766,-0.35465 0.0844,-1.42454 -0.28129,-3.2254 -0.30093,-1.48209 -0.69704,-4.19669 -0.88026,-6.03244 -0.19375,-1.94128 -0.25059,-4.48755 -0.13585,-6.08593 0.1085,-1.5115 0.37207,-3.64533 0.58571,-4.74184 0.21364,-1.09651 0.69104,-2.88433 1.06089,-3.97293 0.36985,-1.08859 1.14705,-2.88594 1.72711,-3.99411 0.58006,-1.10817 1.77586,-2.94908 2.65733,-4.09092 0.88147,-1.14184 1.96736,-2.89258 2.41308,-3.89054 0.70102,-1.56953 0.75981,-1.89587 0.43558,-2.41759 -0.20616,-0.33171 -0.57745,-0.73967 -0.8251,-0.90656 -0.34588,-0.2331 -0.70339,-0.0594 -1.5422,0.7492 -0.60057,0.57895 -1.54053,1.34627 -2.08881,1.70515 -0.54828,0.35888 -1.75703,0.88694 -2.68612,1.17347 -1.16679,0.35983 -2.18711,0.46536 -3.29899,0.34119 -0.88536,-0.0989 -1.80692,-0.26059 -2.04791,-0.35939 -0.24099,-0.0988 -0.64694,0.0434 -0.90212,0.31605 -0.30568,0.32658 -0.46395,1.01757 -0.46395,2.02551 0,0.84141 0.20632,1.99435 0.45849,2.5621 0.25217,0.56774 0.57259,0.95692 0.71205,0.86484 0.13946,-0.0921 0.25356,-0.41644 0.25356,-0.7208 0,-0.30435 0.19059,-0.72236 0.42354,-0.92891 0.24175,-0.21436 0.72886,-0.29366 1.13494,-0.18477 0.43259,0.116 0.77901,0.4785 0.88388,0.92491 0.0949,0.40378 0.0884,1.01708 -0.0143,1.36289 -0.10273,0.34582 -0.3798,0.83497 -0.6157,1.087 -0.24842,0.2654 -0.94202,0.45825 -1.64815,0.45825 -0.78817,0 -1.56139,-0.24222 -2.18702,-0.68511 -0.53965,-0.38203 -1.27229,-1.34125 -1.6561,-2.16832 -0.48561,-1.0464 -0.68832,-1.9953 -0.68832,-3.22205 0,-1.18141 0.20548,-2.19232 0.64096,-3.15344 0.35254,-0.77802 1.23114,-1.9696 1.95247,-2.64795 0.72132,-0.67835 1.80002,-1.52671 2.39712,-1.88524 0.5971,-0.35853 1.08563,-0.76359 1.08563,-0.90014 0,-0.13654 -0.2935,-0.24826 -0.65221,-0.24826 -0.35872,0 -1.41612,-0.20746 -2.34978,-0.46102 -0.93366,-0.25356 -2.59474,-0.93184 -3.6913,-1.50729 -1.09656,-0.57544 -2.66712,-1.67992 -3.49013,-2.45439 -0.823,-0.77446 -2.08181,-2.22095 -2.79734,-3.21442 -0.71553,-0.99347 -1.86519,-3.07886 -2.55481,-4.6342 -0.68962,-1.55534 -1.54265,-4.05206 -1.89563,-5.54828 -0.5502,-2.332209 -0.6405,-3.501979 -0.63281,-8.197719 0.008,-4.927304 0.0833,-5.77034 0.74864,-8.395213 0.40682,-1.604835 1.07271,-3.620048 1.47976,-4.478251 0.40706,-0.858203 0.74013,-1.599154 0.74016,-1.646559 4e-5,-0.0474 -1.37779,-0.08619 -3.06182,-0.08619 -2.73737,0 -3.237246,-0.08778 -4.716406,-0.828194 -0.96834,-0.484854 -2.28479,-1.518243 -3.17546,-2.4929 -0.83671,-0.915605 -1.87739,-2.459983 -2.31264,-3.431952 -0.62345,-1.392259 -0.81816,-2.331856 -0.91768,-4.428443 -0.12002,-2.528437 -0.0877,-2.715404 0.64881,-3.74697 0.42633,-0.597159 1.21228,-1.308454 1.74656,-1.580656 0.75521,-0.384762 1.04744,-0.413692 1.31299,-0.129984 0.26555,0.283709 0.20068,0.470366 -0.29149,0.838661 -0.34818,0.260553 -0.88768,1.006961 -1.19888,1.658685 -0.31121,0.651725 -0.56583,1.779722 -0.56583,2.506662 0,0.80775 0.28322,1.928931 0.72835,2.883259 0.40059,0.858852 1.25035,2.065396 1.88836,2.681207 0.638,0.615811 1.87623,1.469976 2.75162,1.898143 1.291286,0.631597 2.050116,0.782898 4.021666,0.80187 1.33654,0.01286 3.03887,-0.165578 3.78296,-0.396532 0.7441,-0.230954 1.3529,-0.539054 1.3529,-0.684666 0,-0.145612 -0.63636,-0.264749 -1.41415,-0.264749 -0.77778,0 -2.02743,-0.222419 -2.777,-0.494265 -0.74957,-0.271845 -1.91486,-0.899981 -2.58954,-1.395858 -0.67468,-0.495877 -1.599736,-1.451793 -2.055696,-2.124258 -0.45595,-0.672465 -1.10098,-1.995627 -1.4334,-2.940361 -0.41376,-1.175897 -0.61482,-2.485552 -0.63744,-4.152066 -0.0182,-1.338903 0.13548,-3.187502 0.34144,-4.107997 0.20596,-0.920496 0.80543,-2.647632 1.33216,-3.838081 0.6191,-1.399207 1.523516,-2.768968 2.558096,-3.87429 0.9148,-0.977357 2.35194,-2.098914 3.35471,-2.61806 0.96487,-0.499522 2.62243,-1.064334 3.68346,-1.255137 1.06103,-0.190803 2.37477,-0.291334 2.91942,-0.223402 0.54464,0.06793 0.99026,0.02747 0.99026,-0.08991 0,-0.117384 -0.41655,-0.369021 -0.92567,-0.559193 -0.50912,-0.190172 -1.68664,-0.431154 -2.61671,-0.535515 l -1.69104,-0.189748 0.97899,-0.886396 c 0.53844,-0.487518 1.43449,-1.139085 1.99122,-1.447925 0.55673,-0.308841 1.79746,-0.734803 2.75717,-0.946582 1.40276,-0.309547 2.12521,-0.31019 3.68427,-0.0033 1.06663,0.209975 2.70831,0.817368 3.64817,1.349763 0.93986,0.532395 2.44487,1.764757 3.34447,2.738582 0.98067,1.061579 1.96416,2.5238 2.45605,3.651553 0.45123,1.034529 0.92796,2.154829 1.0594,2.489555 0.20633,0.525463 0.25293,0.475539 0.34109,-0.365502 0.0562,-0.535752 -0.0328,-1.753661 -0.19764,-2.706465 -0.16486,-0.952805 -0.61508,-2.46826 -1.0005,-3.367679 -0.38541,-0.899418 -1.37966,-2.359742 -2.20944,-3.245164 -0.82978,-0.885422 -2.21004,-1.965439 -3.06724,-2.400039 l -1.55856,-0.79018 1.37968,-0.221043 c 0.84257,-0.13499 2.00372,-0.07294 2.98266,0.15939 0.88164,0.209238 2.10182,0.650796 2.71152,0.981239 0.60969,0.330444 1.7259,1.217774 2.48047,1.971845 0.75457,0.75407 1.75175,2.007997 2.21595,2.786504 0.46421,0.778507 1.12311,2.305534 1.46423,3.393392 0.529,1.687046 0.5982,2.425431 0.47057,5.020886 -0.0823,1.673629 -0.24392,3.453761 -0.35915,3.955849 -0.19649,0.856194 -0.1773,0.884541 0.30897,0.456444 0.28516,-0.251044 0.81724,-1.14111 1.18241,-1.977924 0.51073,-1.170362 0.66459,-2.054555 0.66673,-3.831413 0.002,-1.270463 -0.17693,-2.947896 -0.39657,-3.727628 -0.21965,-0.779732 -0.29289,-1.417694 -0.16276,-1.417694 0.13013,0 0.4582,0.236747 0.72904,0.526104 0.27084,0.289357 0.7446,1.135166 1.05283,1.879575 0.35691,0.862027 0.56027,2.024497 0.56008,3.201523 -2.1e-4,1.260881 -0.19643,2.293565 -0.6176,3.250249 -0.33952,0.771208 -0.87308,1.695508 -1.18569,2.053999 l -0.56838,0.651802 2.78811,0.0023 c 1.53346,0.0013 3.56434,0.136918 4.51308,0.301453 0.94875,0.164535 2.55086,0.584355 3.56027,0.932933 1.0094,0.348579 2.75328,1.11338 3.87528,1.699559 1.122,0.586179 2.90333,1.671591 3.95852,2.412026 1.05518,0.740434 2.09176,1.346245 2.30351,1.346245 0.2732,0 0.385,-0.451297 0.385,-1.55405 0,-1.100871 -0.25068,-2.115215 -0.85963,-3.478404 -0.54255,-1.214558 -1.35674,-2.392877 -2.20736,-3.194586 -0.74125,-0.698627 -2.11675,-1.691792 -3.05666,-2.207032 -1.53201,-0.839818 -1.9815,-0.938882 -4.34187,-0.956916 -1.44811,-0.01106 -2.63368,-0.115847 -2.63459,-0.232852 -9.1e-4,-0.117005 0.4149,-0.54367 0.92402,-0.948144 0.50912,-0.404474 1.33924,-0.818182 1.84471,-0.919351 0.50547,-0.101169 1.659,-0.04071 2.56339,0.134366 0.90439,0.17507 2.54153,0.776475 3.63809,1.336456 1.2105,0.618167 2.62581,1.67826 3.60266,2.698459 0.89823,0.938093 1.96761,2.460764 2.42097,3.447184 0.66222,1.440833 0.83035,2.255655 0.91114,4.415687 l 0.0991,2.648815 1.04022,0.355345 c 0.57212,0.19544 2.00497,0.885689 3.18411,1.533886 1.17914,0.648197 2.99607,1.934248 4.03762,2.857891 1.04155,0.923644 2.49203,2.529696 3.22329,3.569004 0.73126,1.039308 1.58966,2.434329 1.90754,3.100045 0.31789,0.665717 0.82275,1.970114 1.12191,2.89866 0.29917,0.928547 0.61965,2.646799 0.71219,3.818339 0.11695,1.480566 0.0294,2.708565 -0.28723,4.027253 -0.25051,1.043449 -0.79193,2.606538 -1.20315,3.473531 -0.41122,0.866993 -1.59994,2.503101 -2.6416,3.635796 -1.04167,1.132695 -2.25237,2.153545 -2.69046,2.268565 -0.43809,0.11502 -0.87043,0.13016 -0.96076,0.0336 -0.0903,-0.0965 0.38184,-0.83186 1.04927,-1.6341 0.66744,-0.802243 1.73716,-2.61635 2.37715,-4.031347 1.0641,-2.35269 1.17295,-2.82114 1.27264,-5.47733 0.0785,-2.092653 -0.008,-3.202328 -0.30973,-3.969644 l -0.41875,-1.065036 -0.0101,1.880053 c -0.006,1.03403 -0.10103,2.471829 -0.21217,3.195109 -0.11115,0.723281 -0.62012,2.288876 -1.13103,3.479101 -0.51092,1.190224 -1.36847,2.970356 -1.90568,3.955849 -0.53721,0.985493 -1.31689,2.681875 -1.73263,3.769725 -0.41574,1.08786 -0.95279,3.047539 -1.19346,4.354839 -0.31893,1.73248 -0.36418,2.72677 -0.16688,3.66735 0.14888,0.70974 0.67601,2.21583 1.17141,3.34685 0.83509,1.90658 0.89168,2.24041 0.77667,4.58159 -0.095,1.93438 -0.30259,2.91502 -0.88714,4.19149 -0.44708,0.97629 -1.50591,2.42841 -2.55689,3.50661 -1.03756,1.06445 -2.62948,2.28761 -3.77602,2.90136 -1.09022,0.58359 -2.84893,1.29124 -3.90824,1.57255 -1.37145,0.3642 -2.90035,0.4909 -5.30995,0.44003 -2.74488,-0.0579 -3.51936,0.0234 -4.10096,0.43049 -0.39436,0.27607 -1.0489,1.25145 -1.45454,2.16754 -0.44647,1.00828 -0.73753,2.19542 -0.73753,3.00812 0,0.99061 0.21112,1.65389 0.80541,2.53038 0.44298,0.65333 1.69263,2.05665 2.77701,3.1185 1.08437,1.06185 2.91996,2.6934 4.07908,3.62566 1.15913,0.93227 3.14575,2.33273 4.41473,3.11214 1.26898,0.77941 2.94808,1.68063 3.73133,2.00272 0.96522,0.39691 2.06655,0.57438 3.41785,0.55076 1.55363,-0.0271 2.46531,-0.24856 4.12991,-1.00298 1.17488,-0.53247 3.48193,-1.72816 5.12678,-2.65709 1.64484,-0.92893 4.27231,-2.58284 5.83883,-3.67536 1.56651,-1.09252 3.64887,-2.65602 4.62745,-3.47445 0.97859,-0.81843 2.32437,-1.79417 2.99062,-2.16832 1.09372,-0.6142 1.75083,-0.69731 6.76538,-0.85567 3.05471,-0.0965 5.76323,-0.066 6.01894,0.0676 0.25571,0.13366 0.53302,0.4326 0.61625,0.66432 0.0832,0.23171 10e-4,0.74275 -0.18202,1.13564 -0.18334,0.39289 -0.86982,1.1515 -1.5255,1.6858 -0.81511,0.66421 -2.61613,1.46396 -5.69451,2.52865 -2.60223,0.90001 -4.88842,1.8819 -5.41715,2.32661 -0.50314,0.42319 -1.84607,2.09869 -2.98428,3.72335 -1.1382,1.62465 -3.28993,4.30307 -4.78161,5.95204 -1.49168,1.64896 -3.48031,3.61511 -4.41918,4.36922 -0.93886,0.7541 -2.43855,1.76561 -3.33263,2.24781 -0.89409,0.48219 -2.62523,1.17321 -3.84698,1.53559 -1.67897,0.49801 -2.9516,0.65152 -5.21199,0.62869 -1.97607,-0.0199 -3.66699,-0.22712 -4.98437,-0.61067 -1.09656,-0.31927 -2.21804,-0.68387 -2.49218,-0.81022 -0.35214,-0.16231 -0.49844,-0.0921 -0.49844,0.23937 0,0.258 0.19227,1.44562 0.42727,2.63915 0.235,1.19352 0.57555,2.4691 0.75679,2.83463 0.18123,0.36552 1.23861,1.6735 2.34973,2.90663 1.11112,1.23312 3.30192,3.43538 4.86843,4.89391 1.56652,1.45853 4.1367,3.69407 5.71153,4.96787 1.57483,1.2738 4.33047,3.36486 6.12365,4.64679 1.79318,1.28193 4.92653,3.20242 6.963,4.26777 2.03647,1.06534 4.70468,2.28091 5.92934,2.70127 1.22467,0.42036 3.33947,0.97903 4.69955,1.24149 1.36008,0.26246 2.81029,0.61742 3.22268,0.7888 0.41238,0.17137 1.11732,0.72147 1.56651,1.22242 0.72814,0.81204 0.81368,1.11493 0.7887,2.79263 -0.0154,1.03499 -0.23788,2.40738 -0.49439,3.04975 -0.25652,0.64237 -0.84076,1.67296 -1.29833,2.29019 -0.45757,0.61723 -1.44501,1.44935 -2.19432,1.84916 -0.7493,0.39981 -1.98953,0.79131 -2.75607,0.87 -0.76654,0.0787 -1.45372,0.31017 -1.52708,0.51439 -0.0734,0.20423 0.14164,0.8693 0.47776,1.47793 0.34583,0.62622 0.67506,1.8672 0.7584,2.85871 0.081,0.96366 0.005,2.31297 -0.16837,2.99847 -0.17361,0.6855 -0.70581,1.82178 -1.18267,2.52508 -0.47686,0.70329 -1.4636,1.68293 -2.19276,2.17697 -1.10285,0.74723 -1.62422,0.89825 -3.10097,0.89825 -1.19858,0 -1.91408,0.14833 -2.20266,0.45665 -0.23508,0.25115 -0.5743,1.21255 -0.75382,2.13643 -0.19696,1.01364 -0.68706,2.18497 -1.23585,2.95368 -0.51723,0.7245 -1.5828,1.65274 -2.47076,2.15234 -1.45916,0.82097 -1.71037,0.86655 -3.83987,0.69674 -1.25321,-0.0999 -2.82329,-0.26414 -3.48906,-0.36489 -1.05011,-0.15891 -1.21086,-0.10839 -1.21327,0.3813 -0.002,0.31047 -0.30816,1.26518 -0.6814,2.12158 -0.37324,0.8564 -1.10953,1.90823 -1.6362,2.33741 -0.52667,0.42918 -1.3389,0.93521 -1.80494,1.12452 -0.46605,0.18931 -1.64071,0.34419 -2.61036,0.34419 -1.1689,0 -2.23935,-0.21893 -3.17659,-0.64969 -0.77748,-0.35733 -1.77293,-1.05041 -2.21213,-1.54017 l -0.79853,-0.89048 -0.94348,1.8866 c -0.51891,1.03762 -1.35177,2.33665 -1.8508,2.88672 -0.49902,0.55007 -1.45739,1.22456 -2.1297,1.49887 -0.95271,0.38873 -1.74228,0.45559 -3.57901,0.30307 -1.29614,-0.10763 -2.78644,-0.22767 -3.31177,-0.26677 l -0.95515,-0.0711 -2.25457,8.21599 c -1.24002,4.5188 -2.63193,9.85919 -3.09315,11.86755 -0.46123,2.00835 -1.03901,4.88395 -1.28397,6.39022 -0.24496,1.50626 -0.58826,4.49074 -0.76288,6.63216 -0.2365,2.90034 -0.23375,4.77595 0.0108,7.35296 0.18055,1.9027 0.63569,4.75417 1.01142,6.3366 0.37572,1.58242 1.14338,3.94137 1.70589,5.2421 0.56252,1.30074 1.01868,2.72226 1.0137,3.15894 -0.005,0.43668 -0.17564,1.02821 -0.37924,1.31451 -0.2036,0.28631 -0.72055,0.66287 -1.14877,0.83682 -0.42822,0.17394 -1.1868,0.30789 -1.68572,0.29767 -0.49892,-0.0102 -1.57506,-0.24986 -2.39142,-0.53252 z m -8.93822,-166.07078 c 1.08764,-0.34507 1.92541,-0.91543 3.04232,-2.07122 0.94302,-0.97584 1.54136,-1.8541 1.54136,-2.26245 0,-0.3725 -0.17804,-0.66744 -0.4029,-0.66744 -0.22159,0 -1.72388,0.75651 -3.3384,1.68114 -1.61453,0.92463 -3.29169,2.04572 -3.72701,2.4913 -0.43532,0.44559 -0.7915,0.92147 -0.7915,1.05752 0,0.13605 0.48942,0.24737 1.08759,0.24737 0.59818,0 1.76302,-0.2143 2.58854,-0.47622 z m -96.243876,90.47179 c -0.84824,-0.54393 -1.96056,-1.57669 -2.47183,-2.29502 -0.51126,-0.71833 -1.07534,-1.88226 -1.2535,-2.58652 -0.17817,-0.70425 -0.2553,-1.9963 -0.1714,-2.87122 0.0851,-0.8877 0.49835,-2.26959 0.93498,-3.12668 0.43035,-0.84475 1.192,-1.80634 1.69257,-2.13686 0.59913,-0.3956 1.41349,-0.60095 2.38317,-0.60095 0.89767,0 1.89768,0.23145 2.5602,0.59255 0.64321,0.35058 1.23068,0.96273 1.43862,1.49905 0.1933,0.49857 0.26502,1.19744 0.15937,1.55304 -0.10564,0.35561 -0.56586,1.05509 -1.02273,1.55441 -0.45686,0.49932 -0.83065,1.04436 -0.83065,1.21121 0,0.16684 0.20899,0.38903 0.46442,0.49375 0.25543,0.10472 0.88551,-0.0519 1.40018,-0.348 0.51467,-0.29612 1.47257,-1.105 2.12865,-1.79751 0.65608,-0.6925 1.51189,-1.93015 1.90179,-2.75032 0.38989,-0.82018 0.88655,-2.12104 1.10369,-2.89082 0.21713,-0.76977 0.47745,-2.37168 0.5785,-3.55979 0.12537,-1.47414 0.0248,-3.19513 -0.31658,-5.41887 -0.31169,-2.03018 -0.43913,-3.96901 -0.33806,-5.1429 0.0892,-1.03633 0.43188,-3.78302 0.76144,-6.10376 0.32957,-2.32074 0.99454,-5.53867 1.47771,-7.15096 0.48318,-1.61229 1.37473,-4.07945 1.98123,-5.48259 0.6065,-1.40313 1.84007,-3.72959 2.74125,-5.1699 0.90119,-1.44031 2.79204,-3.8611 4.20191,-5.37953 1.51466,-1.63129 3.73212,-3.58793 5.42009,-4.78258 1.57119,-1.11198 3.81416,-2.48608 4.98437,-3.05354 1.17021,-0.56746 3.15301,-1.39416 4.40623,-1.8371 1.25321,-0.44293 3.43209,-1.07569 4.84195,-1.40612 1.40987,-0.33042 4.43959,-0.76429 6.73273,-0.96415 3.23896,-0.28228 5.08949,-0.28172 8.2929,0.003 2.26796,0.20126 5.58262,0.69432 7.36591,1.09571 1.78329,0.40138 4.2677,1.06309 5.52092,1.47045 1.25321,0.40736 3.62434,1.31047 5.269176,2.0069 1.64484,0.69643 3.43922,1.54262 3.9875,1.88042 l 0.99687,0.61419 -1.13928,-0.173 c -0.62661,-0.0951 -3.12591,-0.50366 -5.554006,-0.9078 -2.4281,-0.40414 -5.65933,-0.88117 -7.1805,-1.06006 -1.52118,-0.1789 -4.13353,-0.32527 -5.80522,-0.32527 -2.55576,0 -3.18807,0.0982 -3.97352,0.61678 -0.51375,0.33922 -1.0589,0.99926 -1.21144,1.46676 -0.19548,0.5991 -0.17099,1.12022 0.083,1.76557 0.22247,0.56527 0.78209,1.13087 1.46264,1.47825 0.60627,0.30947 1.74315,0.61931 2.52641,0.68853 0.78486,0.0694 2.31904,-0.104 3.41785,-0.38622 1.09656,-0.28164 3.66457,-0.58636 5.7067,-0.67717 2.25435,-0.10024 4.66734,-0.0204 6.142386,0.20334 1.33619,0.20264 2.59206,0.47581 2.79081,0.60704 0.21199,0.13998 -0.38443,0.32423 -1.44285,0.44573 -0.99232,0.11392 -3.406326,0.47952 -5.364476,0.81246 -1.95814,0.33294 -4.7941,0.93774 -6.30213,1.344 -1.50802,0.40627 -3.55874,1.03353 -4.55713,1.39392 -0.9984,0.36038 -3.03198,1.26318 -4.51907,2.00622 -1.48709,0.74304 -3.34555,1.78235 -4.1299,2.30958 -0.78436,0.52724 -2.1606,1.56528 -3.05832,2.30677 -0.89772,0.74148 -2.03608,2.02056 -2.5297,2.84239 -0.49361,0.82183 -1.07639,2.04903 -1.29506,2.72712 -0.23897,0.74104 -0.32294,1.65796 -0.21048,2.2984 0.11029,0.6281 0.60125,1.50798 1.19597,2.14336 0.97272,1.03923 0.98926,1.09366 0.46161,1.51908 -0.30099,0.24268 -1.2361,0.77151 -2.07801,1.17517 -0.91954,0.44088 -2.0568,0.73127 -2.84821,0.72725 -0.7246,-0.004 -1.83014,-0.2582 -2.45674,-0.56561 -0.62661,-0.30741 -1.34637,-0.81791 -1.59947,-1.13443 -0.2531,-0.31652 -0.54513,-0.95719 -0.64895,-1.42371 -0.10382,-0.46652 -0.0601,-1.35869 0.0971,-1.9826 0.15725,-0.62392 0.66338,-1.7703 1.12473,-2.54752 0.46136,-0.77723 2.19411,-2.69219 3.85057,-4.25547 1.65645,-1.56328 2.89638,-2.88366 2.7554,-2.93417 -0.14099,-0.0505 -1.51812,0.41177 -3.06029,1.02729 -1.54218,0.61552 -3.95748,1.73273 -5.36734,2.4827 -1.40987,0.74997 -3.58875,2.09228 -4.84196,2.98292 -1.25321,0.89064 -3.03827,2.41649 -3.9668,3.39076 -0.92853,0.97428 -2.18217,2.58661 -2.78587,3.58296 -0.60371,0.99635 -1.30585,2.57108 -1.56033,3.49941 -0.25448,0.92832 -0.4637,2.44099 -0.46494,3.36149 -10e-4,0.92049 0.1654,2.22136 0.37032,2.89081 0.20491,0.66945 0.7346,1.78345 1.17707,2.47555 0.44248,0.6921 1.38941,1.67228 2.1043,2.17818 0.71489,0.5059 1.9419,1.08439 2.72668,1.28553 0.85243,0.21848 2.05026,0.2825 2.97533,0.15901 0.85165,-0.11368 2.30864,-0.61254 3.23776,-1.10857 1.09286,-0.58345 2.34614,-1.64577 3.54968,-3.00881 1.0232,-1.15882 2.0005,-2.38668 2.17177,-2.72858 0.17127,-0.3419 0.20106,-0.62164 0.0662,-0.62164 -0.13486,0 -1.19676,0.35764 -2.3598,0.79476 -1.32951,0.49968 -2.74908,0.80148 -3.82353,0.81286 -1.05228,0.0111 -2.04836,-0.17134 -2.59231,-0.47492 -0.48586,-0.27116 -1.28507,-0.98179 -1.77602,-1.57918 -0.49094,-0.59739 -0.97533,-1.4382 -1.0764,-1.86847 -0.10108,-0.43027 -0.11715,-1.56737 -0.0357,-2.52689 0.0814,-0.95952 0.43326,-2.35087 0.78183,-3.09189 0.34858,-0.74102 0.94608,-1.79234 1.32779,-2.33627 0.38171,-0.54392 0.81566,-0.98896 0.96434,-0.98896 0.14868,0 0.27033,0.60729 0.27033,1.34953 0,0.74223 0.11958,1.68555 0.26574,2.09626 0.14616,0.41071 0.69088,1.26407 1.21049,1.89634 0.51961,0.63228 1.47753,1.40139 2.12871,1.70914 0.65118,0.30775 1.95637,0.6458 2.90044,0.75122 1.00209,0.1119 2.28743,0.0425 3.08835,-0.16672 0.75453,-0.19711 2.42746,-0.92453 3.71761,-1.61649 1.29016,-0.69196 3.43832,-2.13417 4.77369,-3.20491 1.33536,-1.07073 4.5549,-4.16176 7.15453,-6.86895 2.59963,-2.70718 5.86959,-5.83509 7.26658,-6.95089 1.39699,-1.11581 3.72259,-2.65125 5.168,-3.41209 1.44541,-0.76085 3.65338,-1.69651 4.906586,-2.07926 2.07018,-0.63226 2.86465,-0.69591 8.68704,-0.69591 5.51605,0 6.62662,0.0794 7.97499,0.56993 0.86158,0.31345 1.68827,0.69002 1.83709,0.83681 0.15736,0.15522 -0.52141,0.26689 -1.62221,0.26689 -1.04103,0 -3.53392,0.14256 -5.53976,0.31679 -2.00584,0.17424 -5.21973,0.59311 -7.14197,0.93084 -1.92224,0.33772 -4.52273,0.94269 -5.778856,1.34438 -1.25614,0.40168 -2.92973,1.10589 -3.7191,1.56489 -0.78938,0.45901 -1.81064,1.2448 -2.26948,1.7462 -0.45884,0.50141 -0.95714,1.38712 -1.10733,1.96826 -0.20893,0.80844 -0.16626,1.29711 0.18168,2.08048 0.25012,0.56313 0.71226,1.1711 1.02698,1.35104 0.31472,0.17995 0.95401,0.44417 1.42064,0.58715 0.49878,0.15283 1.4508,0.13331 2.31008,-0.0474 0.8039,-0.16903 3.788646,-1.54916 6.632776,-3.06696 2.84412,-1.51779 5.32147,-2.70609 5.50522,-2.64065 0.18375,0.0654 -0.7981,1.02225 -2.18188,2.12626 -1.38378,1.104 -4.43789,3.35796 -6.78691,5.00879 -2.349026,1.65084 -6.578006,4.24036 -9.397726,5.75449 -2.81973,1.51413 -6.53665,3.25002 -8.25981,3.85754 -1.72317,0.60752 -4.23386,1.45631 -5.57931,1.8862 -1.88868,0.60345 -2.7582,1.07495 -3.81475,2.06855 -0.75265,0.70782 -1.6036,1.83998 -1.89098,2.51591 -0.33372,0.78491 -0.52478,1.95116 -0.52878,3.22773 -0.003,1.09932 0.19969,2.74252 0.45139,3.65155 0.2517,0.90903 0.85662,2.42411 1.34426,3.36684 0.79525,1.53741 0.84348,1.77018 0.46803,2.25867 -0.23023,0.29954 -1.44395,1.0587 -2.69716,1.68702 -1.25322,0.62833 -3.24816,1.48964 -4.43322,1.91403 -1.18506,0.42438 -3.2846,0.98213 -4.66565,1.23943 -1.38105,0.25731 -3.3968,0.46783 -4.47944,0.46783 -1.08265,0 -2.95636,-0.20664 -4.1638,-0.45919 -1.46967,-0.30741 -3.23101,-1.01289 -5.32839,-2.13421 -1.72317,-0.92126 -3.38937,-1.69485 -3.70267,-1.7191 -0.31331,-0.0242 -0.84816,-0.0224 -1.18857,0.004 -0.3404,0.0265 -1.13675,0.6126 -1.76966,1.30242 -0.88358,0.96301 -1.46038,2.10458 -2.4844,4.91692 -0.89154,2.44853 -1.66752,4.05755 -2.3408,4.85375 -0.55394,0.65507 -1.49144,1.45499 -2.08333,1.77759 -0.75192,0.40984 -1.66261,0.58656 -3.02264,0.58656 -1.6898,0 -2.14988,-0.13042 -3.48875,-0.98896 z m 62.81691,-38.70785 c 0.38451,-0.4108 0.69911,-1.03322 0.69911,-1.38316 0,-0.34994 -0.3146,-0.97237 -0.69911,-1.38317 -0.39915,-0.42644 -1.0311,-0.74691 -1.47288,-0.74691 -0.42558,0 -1.00817,0.22663 -1.29464,0.50361 -0.31648,0.306 -0.52087,0.92346 -0.52087,1.57359 0,0.5885 0.21212,1.32041 0.47138,1.62647 0.25926,0.30606 0.84184,0.55648 1.29464,0.55648 0.49432,0 1.1026,-0.29843 1.52237,-0.74691 z m -27.70093,-11.40844 c 1.19182,-0.32566 3.12493,-1.00194 4.29582,-1.50284 1.17089,-0.50091 3.06805,-1.47934 4.2159,-2.1743 1.14785,-0.69497 3.75321,-1.93928 5.78968,-2.76514 2.03647,-0.82587 3.89493,-1.58023 4.1299,-1.67637 0.33591,-0.13743 0.29896,-0.22779 -0.17286,-0.4227 -0.33006,-0.13635 -1.54767,-0.89734 -2.7058,-1.69109 -1.15814,-0.79375 -2.61838,-1.69247 -3.24499,-1.99716 -0.6266,-0.30468 -1.53466,-0.55697 -2.01791,-0.56065 -0.48324,-0.004 -1.69837,0.28083 -2.70028,0.63223 -1.00191,0.3514 -2.50875,1.12616 -3.34855,1.7217 -0.85994,0.60983 -1.7189,1.51298 -1.96647,2.06765 -0.25562,0.57267 -0.36463,1.30395 -0.26048,1.74729 0.11716,0.49872 0.49395,0.8797 1.08932,1.10144 0.70475,0.26248 1.52485,0.22816 3.63319,-0.15201 1.49763,-0.27006 2.83512,-0.51162 2.97219,-0.53681 0.13707,-0.0252 0.2971,0.0911 0.35562,0.25849 0.0585,0.16736 -0.56631,0.6326 -1.3885,1.03386 -0.8222,0.40126 -2.30179,1.05169 -3.28799,1.4454 -0.9862,0.39372 -2.41082,0.71585 -3.16583,0.71585 -0.97546,0 -1.59914,-0.19027 -2.15504,-0.65744 -0.7072,-0.59432 -0.7694,-0.80099 -0.64783,-2.15266 0.0995,-1.10599 0.43766,-1.96463 1.29914,-3.29841 0.83487,-1.29259 1.04001,-1.80319 0.72446,-1.80319 -0.24211,0 -1.13107,0.21458 -1.97547,0.47683 -0.84439,0.26226 -2.29217,1.01684 -3.21728,1.67685 -0.92511,0.66 -1.90174,1.55827 -2.17029,1.99615 -0.26854,0.43787 -0.59317,1.18693 -0.72139,1.66457 -0.12822,0.47764 -0.11586,1.32217 0.0275,1.87674 0.14333,0.55456 0.67839,1.43676 1.18904,1.96045 0.51065,0.52368 1.37705,1.08723 1.92533,1.25232 0.54828,0.16509 1.0725,0.31251 1.16493,0.3276 0.0924,0.0151 1.14317,-0.239 2.33498,-0.56465 z m 54.318736,-11.75765 c -1.33154,-0.90391 -3.51042,-2.24616 -4.84195,-2.98279 -1.33154,-0.73662 -3.63859,-1.88838 -5.12678,-2.55946 -1.48819,-0.67107 -3.98749,-1.64208 -5.55401,-2.15779 -1.566506,-0.51571 -4.101896,-1.21133 -5.634186,-1.54582 -1.53229,-0.3345 -4.28794,-0.76612 -6.12365,-0.95917 -2.07897,-0.21863 -5.5396,-0.28146 -9.1765,-0.16661 -3.21135,0.10141 -8.01771,0.41034 -10.68078,0.68652 -2.68785,0.27875 -7.50292,0.50736 -10.8232,0.51386 -4.95646,0.01 -6.56683,-0.10242 -9.39909,-0.65444 -1.87982,-0.36639 -4.65808,-1.08574 -6.17391,-1.59856 -1.51583,-0.51282 -4.27148,-1.73253 -6.12365,-2.71046 -1.85218,-0.97793 -3.7521,-2.02602 -4.22206,-2.32908 -0.46995,-0.30307 -1.75164,-1.30034 -2.84821,-2.21616 -1.09656,-0.91582 -2.87344,-2.62749 -3.94863,-3.8037 -1.07519,-1.17621 -2.7047,-3.20163 -3.62113,-4.50093 -0.91643,-1.2993 -2.17822,-3.29894 -2.80397,-4.44364 -0.62575,-1.1447 -1.59936,-3.16263 -2.16357,-4.4843 -0.56421,-1.32166 -1.40069,-3.63542 -1.85884,-5.14169 -0.45816,-1.50626 -1.08496,-4.03953 -1.39291,-5.62948 -0.30794,-1.58994 -0.63056,-3.84934 -0.71692,-5.02088 -0.0864,-1.17154 -0.22924,-2.951679 -0.31749,-3.955849 -0.0882,-1.00418 -0.12006,-3.948245 -0.0707,-6.542369 0.0494,-2.594124 0.085,-7.455254 0.0792,-10.802511 -0.006,-3.347257 -0.17127,-7.249855 -0.36776,-8.672439 -0.1965,-1.422584 -0.73091,-4.024316 -1.18759,-5.781626 -0.45667,-1.75731 -1.15825,-4.460454 -1.55907,-6.006986 -0.4008104,-1.546533 -1.3145904,-4.285198 -2.0306104,-6.085922 -0.71603,-1.800725 -2.7704,-6.316765 -4.56526,-10.035646 -2.36897,-4.908386 -3.30838,-7.167315 -3.4275,-8.241878 -0.12353,-1.114368 -0.021,-1.825963 0.41493,-2.878751 0.36345,-0.877825 1.02353,-1.742498 1.77299,-2.322524 0.65668,-0.508226 1.91746,-1.228329 2.80173,-1.600228 1.3338,-0.560956 2.16592,-0.67561 4.88321,-0.672833 1.8014904,0.0018 4.0408304,0.180749 4.9763004,0.397574 0.93547,0.216824 3.75325,1.132217 6.26173,2.034205 2.89458,1.040821 6.21848,2.536764 9.09799,4.094604 2.49542,1.350043 6.1502,3.490245 8.12173,4.756003 1.97153,1.265758 5.05855,3.375454 6.86005,4.688213 1.80149,1.312759 4.67329,3.547956 6.38177,4.967104 1.70848,1.419148 4.84863,4.217752 6.97811,6.219119 2.12948,2.001367 5.09479,4.985263 6.58957,6.630879 1.49479,1.645617 3.7497,4.22443 5.01092,5.730696 1.26122,1.506265 3.2509,4.03953 4.42151,5.629477 1.17061,1.589948 3.22679,4.534012 4.56929,6.542367 1.3425,2.008354 4.93231,7.691083 7.97736,12.628288 3.04505,4.937204 7.91192,13.016263 10.81527,17.953473 2.903346,4.9372 9.238216,15.74935 14.077486,24.02699 4.83927,8.27764 8.90446,15.26124 9.03375,15.5191 0.1293,0.25787 -1.72915,-1.65403 -4.1299,-4.24867 -2.40074,-2.59463 -5.90536,-6.63416 -7.78804,-8.97673 -1.88267,-2.34257 -4.51401,-5.76549 -5.84743,-7.60648 -1.33341,-1.84099 -3.2062,-4.51119 -4.161746,-5.93378 -0.95555,-1.42258 -2.884,-4.43511 -4.28545,-6.69451 -1.40144,-2.2594 -3.67541,-6.162 -5.05325,-8.67244 -1.37784,-2.51044 -2.9235,-5.31757 -3.43479,-6.23807 -0.51129,-0.9205 -2.17475,-4.069959 -3.69658,-6.998811 -1.52182,-2.92885 -3.61172,-6.694514 -4.64422,-8.368142 -1.08469,-1.758235 -2.92053,-4.151109 -4.3483,-5.667684 -1.95699,-2.078708 -2.77867,-2.733891 -3.94988,-3.149504 -0.91823,-0.325839 -1.83938,-0.45252 -2.42988,-0.334167 -0.52307,0.104838 -1.28702,0.472973 -1.69767,0.818077 -0.41065,0.345105 -0.93633,1.019372 -1.16818,1.498372 -0.23185,0.479 -0.42154,1.411018 -0.42154,2.071152 0,0.660133 0.26821,2.138966 0.59602,3.286294 0.32781,1.147329 1.17989,3.276651 1.89351,4.731828 0.71362,1.455177 2.16559,3.79824 3.22661,5.206807 1.06102,1.408569 3.18888,3.778439 4.72858,5.266378 1.5397,1.48795 4.82006,4.46594 7.2897,6.61777 2.46963,2.15182 5.4406,4.86062 6.60214,6.01955 1.16155,1.15893 2.77844,2.92913 3.59309,3.93379 0.81465,1.00466 1.43142,1.87982 1.37061,1.94479 -0.0608,0.065 -2.08366,-1.31273 -4.49521,-3.06156 -2.41156,-1.74883 -5.88044,-4.19211 -7.70863,-5.42952 -1.82819,-1.2374 -4.53228,-2.93682 -6.00909,-3.77647 -1.47681,-0.83965 -4.09498,-2.14097 -5.81814,-2.89181 -1.72317,-0.75085 -4.67107,-1.79499 -6.55089,-2.32031 -2.27136,-0.63474 -4.42102,-1.01325 -6.40847,-1.12838 -1.83065,-0.10605 -3.60712,-0.0357 -4.58008,0.18143 -0.93824,0.20936 -1.96618,0.69308 -2.50894,1.18062 -0.55655,0.49993 -1.01012,1.26055 -1.1491,1.92701 -0.14896,0.71432 -0.10761,1.41105 0.11771,1.98358 0.19103,0.48539 0.84054,1.34519 1.44337,1.91067 0.60283,0.56548 1.88293,1.42154 2.84466,1.90237 1.26013,0.63 3.81005,1.30278 9.12777,2.40828 4.05853,0.84372 9.16219,2.00759 11.34148,2.58637 2.17928,0.57877 5.12717,1.46861 6.55088,1.97742 1.4237,0.50881 3.7954,1.53519 5.27045,2.28083 1.47504,0.74565 3.52575,1.92121 4.55713,2.61237 1.03138,0.69115 2.90059,2.10885 4.15381,3.15043 1.25321,1.04159 3.43209,3.11001 4.84195,4.5965 1.40987,1.4865 3.698866,4.06762 5.086676,5.73583 1.38782,1.6682 3.09958,3.83324 3.80393,4.81118 0.70435,0.97794 1.21715,1.8459 1.13956,1.9288 -0.0776,0.0829 -1.66118,-1.27504 -3.5191,-3.01763 -1.85792,-1.7426 -4.816846,-4.39907 -6.575396,-5.90329 -1.75855,-1.50421 -4.71449,-3.84228 -6.56876,-5.19572 -1.85427,-1.35343 -4.72811,-3.22796 -6.38632,-4.16561 -1.65821,-0.93765 -4.08538,-2.12349 -5.39372,-2.63521 -1.30834,-0.51171 -3.46824,-1.18433 -4.79977,-1.4947 -1.33154,-0.31038 -3.38906,-0.65681 -4.57228,-0.76985 -1.22099,-0.11665 -3.25325,-0.0532 -4.69954,0.14664 -1.40154,0.19369 -3.21344,0.5539 -4.02644,0.80047 -0.85483,0.25925 -1.89246,0.86572 -2.46056,1.43814 -0.54718,0.55135 -1.14252,1.56095 -1.3439,2.27904 -0.28312,1.0096 -0.28847,1.54971 -0.0247,2.4904 0.18527,0.66066 0.73456,1.6261 1.22063,2.14541 0.48608,0.51931 1.72707,1.39841 2.75776,1.95354 l 1.87398,1.00934 -0.98458,0.5474 c -0.68851,0.3828 -1.84102,0.58694 -3.83278,0.67889 -2.70274,0.12477 -2.92715,0.087 -4.39388,-0.73954 -1.16145,-0.6545 -1.71015,-1.20333 -2.20736,-2.20786 -0.36393,-0.73527 -0.6617,-1.83616 -0.6617,-2.44643 0,-0.61026 0.33118,-1.8196 0.73595,-2.68741 0.40477,-0.86781 1.29628,-2.10478 1.98112,-2.74882 0.68484,-0.64405 2.01987,-1.61213 2.96672,-2.15131 0.94686,-0.53918 1.72156,-1.05845 1.72156,-1.15394 0,-0.0955 -0.9132,-0.0775 -2.02933,0.04 -1.11613,0.1175 -2.99513,0.47754 -4.17557,0.80009 -1.18043,0.32255 -2.85371,0.93249 -3.7184,1.35542 -0.86468,0.42294 -2.09749,1.22888 -2.73957,1.79099 -0.64208,0.56211 -1.53071,1.73516 -1.97474,2.60677 -0.68472,1.34407 -0.78947,1.84845 -0.68977,3.32104 0.0871,1.28609 0.33546,2.07667 0.95797,3.04906 0.46389,0.72463 1.54466,1.7752 2.41233,2.34492 0.95815,0.62912 2.40387,1.22172 3.70267,1.51769 1.51936,0.34624 2.91895,0.43728 4.87766,0.31728 1.5108,-0.0926 3.77346,-0.44832 5.02813,-0.79057 1.25468,-0.34225 3.28689,-1.08665 4.51603,-1.65421 1.22915,-0.56756 3.23101,-1.58102 4.44858,-2.25213 1.21758,-0.67111 3.14012,-1.47382 4.27232,-1.78381 1.50686,-0.41257 3.01266,-0.55607 5.6188,-0.53544 3.00996,0.0238 3.95631,0.15632 6.12259,0.8572 1.40928,0.45596 3.71633,1.44621 5.12678,2.20055 1.41044,0.75434 3.5898,2.10512 4.84301,3.00173 1.25321,0.89661 3.30392,2.5456 4.557136,3.66441 1.25321,1.11882 2.7706,2.50818 3.37197,3.08747 0.60138,0.57928 1.04997,1.0928 0.99688,1.14115 -0.0531,0.0483 -2.98035,-1.60634 -6.505006,-3.67709 -3.52466,-2.07074 -8.38837,-4.82537 -10.80824,-6.1214 l -4.39977,-2.35642 h -2.64239 c -2.50269,0 -2.68385,0.0442 -3.42634,0.83681 -0.60092,0.64146 -0.78394,1.12852 -0.78394,2.0863 0,0.97948 0.16584,1.40188 0.76749,1.95478 0.53166,0.48859 1.27358,0.7596 2.41451,0.882 0.90585,0.0972 3.31604,0.51584 5.35596,0.93034 2.03993,0.41451 5.18008,1.28646 6.97812,1.93767 1.79804,0.65121 4.3586,1.68869 5.69014,2.30551 1.33153,0.61682 3.702666,1.84742 5.269186,2.73467 1.56651,0.88724 4.06995,2.4303 5.56319,3.42902 1.49324,0.99872 4.31296,3.06389 6.26606,4.58926 1.95309,1.52538 3.93559,3.11894 4.40554,3.54124 0.46995,0.42231 0.72629,0.76017 0.56964,0.75081 -0.15665,-0.009 -1.37426,-0.75657 -2.7058,-1.66048 z M 36.925814,121.89177 c 0.29941,-0.1712 0.68336,-0.58871 0.85322,-0.92779 0.22358,-0.44634 0.21909,-0.90704 -0.0163,-1.66899 -0.17882,-0.57886 -0.56277,-1.18836 -0.85323,-1.35443 -0.29045,-0.16608 -0.79869,-0.30196 -1.12942,-0.30196 -0.33072,0 -0.91591,0.3361 -1.30041,0.7469 -0.42872,0.45803 -0.69911,1.0968 -0.69911,1.65155 0,0.61485 0.2404,1.10666 0.75046,1.53531 0.41276,0.34687 0.99795,0.63068 1.30042,0.63068 0.30248,0 0.79493,-0.14007 1.09435,-0.31127 z m 13.80161,-7.30383 c 1.40987,-0.16565 3.58875,-0.37736 4.84196,-0.47047 1.25321,-0.0931 2.58549,-0.23659 2.96061,-0.31885 0.38562,-0.0846 0.5713,-0.26125 0.42723,-0.40653 -0.14014,-0.14133 -2.62594,-0.83512 -5.524,-1.54174 -2.89805,-0.70662 -6.16444,-1.60769 -7.25864,-2.00237 -1.09421,-0.39468 -2.31182,-0.96707 -2.7058,-1.27197 -0.39399,-0.30491 -1.01598,-1.19249 -1.3822,-1.97241 -0.47577,-1.01323 -0.61243,-1.67786 -0.47874,-2.32819 0.10291,-0.50058 0.45055,-1.26797 0.77254,-1.70529 0.32198,-0.43733 1.07751,-1.12703 1.67895,-1.53266 0.60145,-0.40564 1.94513,-1.101749 2.98597,-1.546919 1.57013,-0.67154 1.80662,-0.86071 1.38854,-1.11068 -0.30255,-0.18089 -1.61949,-0.22317 -3.29568,-0.10581 -1.53548,0.1075 -3.46943,0.34862 -4.29767,0.53582 -0.82825,0.1872 -2.30206,0.72362 -3.27515,1.192039 -0.97308,0.46843 -2.24551,1.23921 -2.82762,1.71286 -0.5821,0.47364 -1.4201,1.46994 -1.86222,2.214 -0.61304,1.03172 -0.80385,1.72357 -0.80385,2.91472 0,1.23345 0.18346,1.85779 0.87246,2.96911 0.47985,0.77398 1.47316,1.80099 2.20736,2.28226 0.7342,0.48126 1.91167,1.10413 2.6166,1.38415 0.70493,0.28002 2.05071,0.70288 2.99062,0.93967 0.93991,0.2368 2.99062,0.43952 4.55714,0.45049 1.56651,0.011 4.00173,-0.11558 5.41159,-0.28123 z M 29.020564,99.659191 c 0.37311,-0.18162 0.89182,-0.71625 1.15268,-1.18806 0.26087,-0.47181 0.47383,-1.38444 0.47324,-2.028066 -5.8e-4,-0.643628 -0.25973,-1.623507 -0.57588,-2.177507 -0.31877,-0.5586 -1.03658,-1.213407 -1.61149,-1.470044 -0.64896,-0.289694 -1.397,-0.390551 -2.00011,-0.269672 -0.52988,0.106204 -1.3743,0.585325 -1.87649,1.064713 -0.82387,0.78646 -0.91308,1.039844 -0.91308,2.593585 0,1.599851 0.0755,1.795841 1.0639,2.763621 0.87934,0.86096 1.28463,1.04166 2.33637,1.04166 0.69986,0 1.57775,-0.1486 1.95086,-0.33023 z m 38.54931,-1.3429 c -0.6057,-0.57156 -2.40008,-2.125467 -3.9875,-3.453125 -1.58741,-1.327658 -4.42425,-3.592261 -6.30406,-5.032452 -1.87982,-1.440192 -4.70574,-3.317624 -6.27983,-4.172072 -1.6872,-0.915852 -3.39564,-1.617806 -4.16209,-1.710104 -1.12926,-0.135987 -1.3614,-0.0631 -1.76637,0.554613 -0.25956,0.395911 -0.46625,1.302227 -0.46625,2.04447 0,1.22395 0.13541,1.474188 1.65111,3.051327 1.11236,1.157451 2.48315,2.154629 4.20111,3.056077 1.4025,0.735924 4.72888,2.081543 7.39196,2.990264 2.66307,0.908721 5.99548,2.106012 7.40534,2.660652 1.40987,0.55464 2.75565,1.01768 2.99062,1.02899 0.23498,0.0113 -0.0683,-0.44708 -0.67404,-1.01864 z m -20.97235,-4.654264 c -0.54828,-0.451817 -1.77842,-1.611011 -2.73365,-2.575986 -0.95523,-0.964975 -2.08966,-2.44718 -2.52095,-3.293789 -0.43129,-0.846609 -0.79618,-1.992188 -0.81087,-2.545731 -0.0147,-0.553543 0.19172,-1.362588 0.45868,-1.797878 0.26696,-0.435289 0.89162,-1.015877 1.38815,-1.290195 0.49652,-0.274318 1.48862,-0.502955 2.20468,-0.508082 0.73962,-0.0053 2.34752,0.384988 3.72289,0.903649 1.33153,0.502133 2.67731,1.014534 2.99062,1.138667 0.45774,0.181363 0.42977,0.100755 -0.14241,-0.410354 -0.39163,-0.349829 -2.66561,-2.09281 -5.05328,-3.873292 -2.38768,-1.780482 -5.52783,-4.287703 -6.97812,-5.571603 -1.45028,-1.283899 -3.18274,-3.031679 -3.84989,-3.883956 -0.66716,-0.852276 -1.40413,-2.128325 -1.63772,-2.835664 -0.23359,-0.707339 -0.42471,-1.960322 -0.42471,-2.784405 0,-0.824084 0.18131,-1.8681 0.40293,-2.320037 0.22161,-0.451936 0.83041,-1.259796 1.3529,-1.795243 0.52248,-0.535447 1.39856,-1.172521 1.94684,-1.415721 0.54828,-0.243199 1.7018,-0.531916 2.56339,-0.641592 0.9995,-0.127233 2.39126,-0.02785 3.84508,0.274558 1.25321,0.260684 2.37469,0.473994 2.49218,0.474022 0.11749,2.9e-5 0.21362,-0.114495 0.21362,-0.254498 0,-0.140003 -1.0574,-0.812935 -2.34977,-1.495406 -1.29238,-0.682471 -3.16892,-1.534421 -4.1701,-1.893223 -1.00118,-0.358802 -2.81217,-0.806814 -4.02442,-0.995582 -1.69155,-0.263404 -2.56787,-0.256237 -3.76849,0.03082 -0.86042,0.20572 -2.14187,0.765299 -2.84767,1.243509 -0.92317,0.62549 -1.49201,1.326264 -2.02714,2.497322 -0.40913,0.895317 -0.82406,2.257487 -0.92207,3.027043 -0.11823,0.928304 -0.015,2.003597 0.30675,3.195109 0.26708,0.989098 0.98725,2.510127 1.60303,3.385695 0.61495,0.874379 1.87015,2.258451 2.78934,3.075716 0.9192,0.817265 3.19252,2.491467 5.05184,3.720449 1.85932,1.228983 3.68625,2.480876 4.05984,2.781985 l 0.67926,0.547471 h -1.65741 c -1.07452,0 -2.06467,0.212448 -2.81542,0.604077 -0.6369,0.332243 -1.47842,1.109576 -1.87005,1.727407 -0.56639,0.893524 -0.71185,1.501401 -0.71105,2.971402 6.7e-4,1.225065 0.19071,2.258399 0.56372,3.065256 0.30949,0.669452 1.08023,1.770844 1.71275,2.447539 0.63252,0.676695 1.91211,1.696176 2.84352,2.265515 0.93141,0.569338 3.23629,1.617332 5.12194,2.328875 1.88566,0.711543 3.55664,1.294597 3.71329,1.295675 0.15665,0.0011 -0.16377,-0.367708 -0.71205,-0.819524 z m 15.05665,-7.982819 c -0.60664,-2.458641 -0.87036,-4.256051 -0.89173,-6.077626 -0.0228,-1.944877 0.0971,-2.850721 0.48344,-3.651553 0.28258,-0.58577 0.77279,-1.367808 1.08935,-1.737862 l 0.57556,-0.672825 -0.83407,-1.000803 c -0.45874,-0.550442 -1.72605,-1.902304 -2.81624,-3.004137 -1.0902,-1.101834 -2.87936,-2.752759 -3.97592,-3.668724 -1.09656,-0.915964 -2.76276,-2.149551 -3.70267,-2.741306 -0.93991,-0.591754 -2.09344,-1.22333 -2.56339,-1.403502 -0.46996,-0.180172 -1.19174,-0.405717 -1.60396,-0.501212 -0.41222,-0.09549 -1.15309,-0.02331 -1.64638,0.160405 -0.52699,0.196272 -1.09078,0.728286 -1.36705,1.290003 -0.2586,0.525784 -0.47838,1.640637 -0.48842,2.477452 -0.0145,1.20826 0.25036,2.116599 1.28648,4.412293 0.71759,1.589947 2.08087,3.986279 3.0295,5.325182 0.94863,1.338903 2.98836,3.738436 4.53274,5.332296 1.54439,1.59386 3.95041,3.921725 5.34672,5.173033 1.39631,1.251309 2.93435,2.638316 3.41785,3.082238 0.48351,0.443922 0.90396,0.782522 0.93434,0.752444 0.0304,-0.03008 -0.33239,-1.625687 -0.80615,-3.545796 z m -36.97209,-6.086646 c 0.30139,-0.172325 0.74155,-0.713258 0.97815,-1.202074 0.2366,-0.488815 0.43018,-1.176223 0.43018,-1.527571 0,-0.351348 -0.20076,-1.053601 -0.44615,-1.560563 -0.25454,-0.525891 -0.87881,-1.11489 -1.45361,-1.371476 -0.5717,-0.255206 -1.34881,-0.369628 -1.79665,-0.264539 -0.43405,0.101852 -1.07647,0.511891 -1.42758,0.911195 -0.38996,0.443467 -0.69481,1.260633 -0.78333,2.099759 -0.1295,1.227421 -0.0525,1.472537 0.72313,2.301168 0.68814,0.735199 1.11261,0.927417 2.04798,0.927417 0.64895,0 1.4265,-0.140992 1.72788,-0.313316 z m -3.1488,-28.594813 c 0.32024,-0.342144 0.56964,-1.01432 0.56964,-1.535312 0,-0.578197 -0.26292,-1.207619 -0.69911,-1.673629 -0.43618,-0.466009 -1.02532,-0.746908 -1.56651,-0.746908 -0.48765,0 -1.11681,0.266448 -1.43705,0.608592 -0.36276,0.387563 -0.56965,1.01432 -0.56965,1.725742 0,0.614432 0.21212,1.367565 0.47138,1.673629 0.30097,0.355304 0.86728,0.556478 1.56651,0.556478 0.71538,0 1.29268,-0.211041 1.66479,-0.608592 z m -5.50707,-7.708317 c 0.88352,-0.865052 1.03962,-1.215445 1.0639,-2.388077 0.0156,-0.75585 -0.15928,-1.74912 -0.38872,-2.207266 -0.22944,-0.458146 -0.76779,-1.026711 -1.19634,-1.263477 -0.42855,-0.236766 -1.24051,-0.430484 -1.80435,-0.430484 -0.56384,0 -1.40113,0.207718 -1.86066,0.461595 -0.45952,0.253878 -1.02992,0.863277 -1.26755,1.354221 -0.23763,0.490945 -0.43205,1.317027 -0.43205,1.835738 0,0.518711 0.19386,1.343639 0.43081,1.833173 0.23695,0.489535 0.78167,1.093452 1.21049,1.342038 0.42882,0.248586 1.32628,0.457458 1.99435,0.464159 0.98818,0.0099 1.40775,-0.176856 2.25012,-1.00162 z M 201.34189,129.19844 c -0.34401,-0.14801 -1.54933,-1.09787 -2.67849,-2.11078 -1.57519,-1.41302 -2.2654,-1.84166 -2.96551,-1.84166 -0.50187,0 -1.76095,0.47249 -2.79796,1.04997 -1.03702,0.57749 -2.34804,1.14269 -2.9134,1.256 -0.74335,0.14899 -1.14816,0.0776 -1.46221,-0.25795 -0.36651,-0.39157 -0.37997,-0.64693 -0.0862,-1.63637 0.19144,-0.64482 0.79052,-2.23564 1.33131,-3.53517 0.58982,-1.41738 0.91361,-2.59717 0.80922,-2.94858 -0.0957,-0.32219 -1.05063,-1.4161 -2.12203,-2.43092 -1.0714,-1.01481 -2.16698,-2.33813 -2.43462,-2.94071 -0.36722,-0.82679 -0.40606,-1.18117 -0.1583,-1.44437 0.21404,-0.22738 1.657,-0.34878 4.14548,-0.34878 3.01674,0 3.9051,-0.0957 4.23657,-0.45645 0.23067,-0.25104 0.9561,-1.48344 1.61207,-2.73866 0.65596,-1.25522 1.45615,-2.59032 1.77821,-2.96689 0.32206,-0.37656 0.82231,-0.68466 1.11166,-0.68466 0.28936,0 0.63974,0.3081 0.77862,0.68466 0.13889,0.37657 0.51401,1.6432 0.8336,2.81474 0.31959,1.17154 0.66633,2.64509 0.77053,3.27454 0.10421,0.62946 0.28819,1.20967 0.40886,1.28934 0.12066,0.0797 1.16353,0.28592 2.31748,0.45833 1.15395,0.17241 2.75709,0.51602 3.56254,0.76358 0.84956,0.26112 1.54558,0.67416 1.65768,0.98371 0.13749,0.37966 -0.0796,0.78113 -0.75239,1.39156 -0.5201,0.47187 -2.01557,1.61512 -3.32328,2.54056 -2.37143,1.67822 -2.37721,1.68552 -2.21441,2.7936 0.0898,0.61105 0.24889,2.51456 0.35359,4.23003 l 0.19037,3.11903 -0.68175,-0.0193 c -0.37496,-0.0106 -0.96321,-0.1404 -1.30722,-0.28842 z m -93.74236,-6.79731 c -1.30154,-2.13953 -5.44539,-9.38736 -9.208556,-16.10629 -3.76317,-6.718929 -8.04169,-14.16879 -9.50782,-16.555257 -1.46613,-2.386466 -4.12207,-6.431164 -5.90209,-8.988218 -1.78003,-2.557053 -4.69403,-6.497787 -6.47557,-8.757185 -1.78153,-2.259399 -5.68294,-6.718877 -8.66978,-9.909952 -2.98685,-3.191074 -7.13641,-7.335168 -9.22125,-9.209097 -2.08485,-1.873929 -5.28908,-4.61371 -7.12053,-6.088401 -1.83144,-1.474692 -4.67567,-3.653253 -6.32051,-4.841246 -1.64485,-1.187993 -4.40049,-3.06933 -6.12365,-4.180749 -1.72317,-1.111419 -3.24466,-2.1381 -3.3811,-2.281515 -0.14049,-0.147677 -0.0413,-0.897989 0.22866,-1.730217 0.2622,-0.808205 0.61,-3.18113 0.77289,-5.273165 0.24001,-3.08244 0.20326,-4.95772 -0.19377,-9.889624 -0.28984,-3.600279 -0.41786,-7.080178 -0.31345,-8.52029 0.0971,-1.3389027 0.30353,-2.9047557 0.45879,-3.4796742 0.15527,-0.574919 0.6813,-1.485116 1.16897,-2.022661 0.50763,-0.559552 1.44038,-1.142987 2.18196,-1.364814 1.03967,-0.310994 1.6385,-0.312874 3.03438,-0.0095 0.9565,0.207865 2.667,0.909423 3.80111,1.559018 1.13412,0.649595 3.05666,1.963142 4.27232,2.9189945 1.21565,0.955852 4.01307,3.6667127 6.21649,6.0241357 2.20761,2.361916 5.1016,5.857286 6.4461,7.785627 1.34194,1.924673 3.65595,5.416471 5.14225,7.759551 1.48629,2.34308 3.43503,5.620611 4.33053,7.283402 0.8955,1.662792 2.56288,5.017656 3.7053,7.455255 1.14241,2.437598 2.93821,6.554462 3.99066,9.148587 1.05245,2.594124 2.74586,6.975988 3.76314,9.737475 1.01728,2.761487 2.59594,7.143351 3.50813,9.737475 0.9122,2.594124 2.6779,7.523721 3.92378,10.954659 1.24588,3.430939 2.84508,7.67587 3.55377,9.43318 0.7087,1.75731 1.8005,4.427507 2.42623,5.933777 0.62572,1.506259 3.591916,8.072369 6.591526,14.591349 2.99962,6.51898 5.41642,12.06031 5.37068,12.31407 -0.0457,0.25375 -1.14806,-1.28915 -2.44959,-3.42868 z M 50.119114,23.800123 c 0.51695,-0.230764 1.21776,-0.796963 1.55737,-1.258222 0.42806,-0.581407 0.61746,-1.263646 0.61746,-2.224191 0,-0.934562 -0.20689,-1.708123 -0.63563,-2.37661 -0.3496,-0.545088 -0.93239,-1.135528 -1.2951,-1.312088 -0.3627,-0.17656 -1.14716,-0.321018 -1.74322,-0.321018 -0.65699,0 -1.46487,0.273995 -2.05155,0.69579 -0.583,0.419146 -1.10306,1.134089 -1.308,1.798158 -0.24726,0.801216 -0.25898,1.421649 -0.0429,2.271097 0.16352,0.642801 0.50887,1.427071 0.76744,1.742822 0.25857,0.315751 0.85464,0.755424 1.32459,0.977051 0.46995,0.221628 1.08288,0.408319 1.36205,0.41487 0.27917,0.0066 0.93054,-0.176896 1.44749,-0.407659 z"
       id="path1" /></g></svg>
