<?xml version="1.0" standalone="no"?>
<!DOCTYPE svg PUBLIC "-//W3C//DTD SVG 20010904//EN"
 "http://www.w3.org/TR/2001/REC-SVG-20010904/DTD/svg10.dtd">
<svg version="1.0" xmlns="http://www.w3.org/2000/svg"
 width="3600.000000pt" height="2000.000000pt" viewBox="0 0 3600.000000 2000.000000"
 preserveAspectRatio="xMidYMid meet">

<g transform="translate(0.000000,2000.000000) scale(0.100000,-0.100000)"
fill="#000000" stroke="none">
<path d="M12687 17485 c-17 -239 -64 -284 -315 -304 l-87 -7 100 -6 c233 -16
286 -69 302 -303 l7 -100 8 98 c17 238 67 288 305 305 l98 8 -100 7 c-237 17
-286 67 -304 309 l-6 93 -8 -100z"/>
<path d="M21687 17370 c-3 -14 -9 -52 -12 -85 -17 -153 -81 -208 -262 -222
-46 -3 -82 -7 -81 -9 2 -1 46 -7 98 -13 106 -13 170 -39 200 -81 24 -33 50
-129 50 -185 0 -78 17 -67 23 15 8 103 40 178 88 207 39 23 103 39 204 50 l70
7 -90 8 c-204 18 -255 67 -274 263 -5 49 -9 63 -14 45z"/>
<path d="M11112 16979 c-17 -159 -35 -214 -86 -265 -49 -50 -104 -68 -250 -84
-109 -11 -135 -20 -63 -20 82 0 201 -21 253 -44 92 -42 126 -112 146 -303 9
-78 14 -103 16 -73 17 301 68 376 282 410 36 5 90 10 120 11 l55 1 -45 8 c-25
5 -83 13 -129 19 -202 26 -258 97 -279 356 l-8 100 -12 -116z"/>
<path d="M30010 16874 c-30 -8 -86 -30 -125 -49 -220 -108 -365 -335 -365
-573 0 -55 -3 -73 -12 -69 -324 131 -433 153 -733 144 -282 -9 -414 -40 -584
-138 -203 -117 -365 -330 -421 -553 -33 -129 -25 -196 35 -296 29 -51 33 -66
44 -190 15 -184 14 -356 -5 -470 -8 -52 -17 -167 -21 -255 -9 -252 21 -362
160 -572 128 -194 166 -230 292 -273 32 -11 89 -23 126 -26 l68 -7 -20 -49
c-18 -47 -49 -110 -67 -136 -7 -10 -30 -8 -113 9 -225 46 -353 -8 -484 -205
-71 -107 -106 -186 -195 -436 -98 -277 -148 -398 -237 -572 -109 -213 -266
-442 -372 -542 l-30 -29 -53 40 c-68 51 -138 92 -323 187 -181 94 -305 175
-445 292 -131 108 -264 197 -329 219 -34 11 -111 19 -243 25 -106 5 -226 16
-266 24 -131 28 -172 20 -172 -35 0 -31 72 -101 147 -146 24 -13 43 -29 43
-33 0 -13 -126 -23 -204 -16 -106 10 -139 23 -180 71 -21 26 -50 48 -73 56
-21 6 -59 31 -85 55 -76 71 -140 54 -123 -32 17 -94 142 -274 190 -274 8 0 22
-12 32 -27 39 -65 124 -133 164 -133 6 0 33 -20 60 -44 86 -77 125 -90 269
-90 120 0 130 1 250 41 245 82 274 84 380 35 80 -37 144 -108 336 -372 307
-420 401 -526 524 -584 87 -42 214 -49 304 -17 124 43 254 133 439 303 49 44
92 77 96 72 41 -46 307 -506 380 -659 73 -150 94 -219 155 -491 62 -276 138
-568 193 -738 36 -114 170 -461 197 -514 14 -28 13 -46 -14 -233 -63 -437
-105 -994 -96 -1269 6 -203 35 -458 61 -535 58 -172 144 -273 295 -347 168
-82 390 -142 570 -154 l95 -7 280 -276 c316 -312 366 -358 660 -602 656 -546
1152 -909 1570 -1151 191 -111 295 -160 445 -213 373 -130 487 -204 615 -398
56 -84 104 -103 198 -76 33 9 42 18 60 57 28 64 34 177 13 266 -52 221 -168
374 -451 596 -149 117 -165 134 -289 307 -52 74 -142 153 -215 191 -91 46
-142 44 -245 -8 -150 -76 -229 -49 -421 144 -179 180 -250 286 -480 721 -126
239 -234 414 -326 532 l-49 62 35 10 c20 5 142 35 273 67 694 166 1058 263
1278 338 192 66 223 79 423 179 l184 92 112 -3 c112 -3 113 -3 134 24 28 35
27 83 -3 142 -33 65 -67 99 -129 127 -119 54 -270 56 -577 9 -114 -18 -210
-26 -310 -27 -142 -2 -148 -1 -275 37 -159 48 -245 52 -319 17 -56 -28 -67
-47 -100 -180 -38 -153 -79 -198 -204 -221 -80 -16 -323 -7 -432 14 -206 42
-716 171 -727 186 -25 32 -96 230 -119 330 -13 58 -30 161 -39 230 -8 69 -20
155 -26 192 l-11 66 130 204 c259 407 352 604 407 863 25 113 25 391 1 498
-45 204 -153 451 -267 612 -100 141 -303 336 -579 557 -432 345 -524 466 -546
707 l-7 81 130 -75 c104 -60 136 -84 164 -123 102 -141 204 -255 356 -395 207
-191 330 -296 398 -342 158 -104 501 -267 710 -337 107 -36 130 -40 225 -42
119 -1 144 6 330 88 127 56 115 55 381 45 137 -4 159 2 159 47 0 16 -9 28 -27
38 -32 15 -186 56 -217 56 -32 1 -2 15 95 46 154 49 230 91 248 137 4 9 40 34
81 55 71 35 75 39 78 73 5 60 -10 65 -151 51 -67 -7 -149 -12 -182 -11 l-60 0
116 57 c136 67 209 122 209 158 0 22 -4 24 -42 24 -23 0 -90 -13 -148 -29 -58
-17 -140 -35 -183 -41 -179 -24 -488 -164 -716 -325 -95 -67 -147 -74 -211
-27 -30 23 -144 149 -304 337 l-118 140 78 6 c213 17 434 101 545 208 41 39
49 53 49 83 0 33 -8 44 -102 128 -57 50 -150 123 -208 162 -58 39 -106 73
-108 77 -1 4 59 14 134 24 187 23 336 58 550 128 816 266 1328 662 1610 1244
77 160 146 363 175 516 l21 116 132 99 c233 175 383 336 551 589 144 217 260
439 300 579 22 74 24 164 5 177 -10 7 -88 8 -215 5 -372 -10 -671 -54 -993
-147 -56 -16 -105 -29 -108 -29 -3 0 23 39 57 88 202 287 328 526 317 604 -3
23 -5 23 -138 22 -128 -1 -145 -4 -330 -52 -584 -153 -1206 -434 -1695 -766
-449 -306 -734 -555 -1105 -966 -340 -377 -460 -527 -653 -819 -71 -108 -131
-198 -133 -200 -10 -11 -65 57 -91 112 -28 62 -28 63 -28 267 0 191 2 208 22
253 l22 48 27 -18 c26 -17 27 -16 45 6 11 13 19 32 19 42 0 26 7 24 51 -16 55
-49 69 -46 69 13 0 26 3 64 7 85 l6 38 28 -34 c29 -35 59 -50 76 -38 6 3 13
25 17 49 15 97 74 180 276 387 75 77 156 169 179 204 55 80 121 220 160 336
69 208 59 478 -28 728 l-20 58 22 -7 c12 -3 52 -19 88 -35 116 -50 208 -61
304 -35 69 18 119 46 195 107 36 29 89 72 118 96 58 47 137 90 234 127 208 78
301 162 348 315 29 91 34 183 16 296 -25 160 -33 171 -28 40 6 -190 -33 -313
-137 -427 -67 -73 -139 -109 -305 -152 -141 -36 -198 -62 -263 -119 l-37 -32
31 45 c83 122 148 162 327 205 128 30 193 63 248 125 136 152 153 390 50 690
l-29 85 -21 -48 c-12 -26 -46 -74 -77 -106 -94 -98 -223 -145 -336 -122 -67
14 -176 65 -256 119 -184 124 -286 162 -425 161 -51 0 -118 -7 -148 -15z"/>
<path d="M17718 16850 c-94 -17 -180 -53 -291 -121 -216 -134 -312 -169 -413
-150 -28 6 -97 24 -154 40 -206 62 -376 31 -509 -93 -33 -31 -111 -141 -111
-158 0 -4 17 -8 38 -8 54 0 150 -27 201 -57 109 -64 167 -143 207 -283 32
-114 56 -164 97 -208 40 -42 122 -72 196 -72 62 0 102 17 225 93 107 66 155
45 225 -97 52 -107 106 -146 197 -146 19 0 34 -5 34 -10 0 -16 -47 -30 -102
-30 -76 0 -114 23 -163 101 -53 82 -76 99 -135 99 -36 0 -69 -12 -144 -50 -87
-44 -105 -50 -160 -50 -50 0 -75 6 -124 31 -34 16 -73 44 -87 60 l-25 31 0
-34 c1 -70 57 -151 132 -189 49 -25 133 -25 223 1 127 36 159 24 235 -86 34
-48 62 -77 87 -90 53 -25 151 -30 209 -10 63 21 64 21 64 -17 0 -53 36 -179
69 -243 63 -124 160 -239 236 -282 10 -5 19 -37 25 -91 13 -101 42 -181 82
-227 38 -43 58 -54 113 -63 l42 -6 -12 -48 c-15 -59 -64 -113 -110 -121 -83
-16 -26 -93 82 -111 l43 -7 -26 -33 c-49 -65 -12 -93 72 -56 26 12 50 19 53
15 3 -3 6 -56 6 -117 0 -172 -26 -204 -230 -277 -27 -10 -57 -21 -66 -25 -12
-4 -23 6 -42 38 -114 194 -372 467 -581 616 -511 361 -1133 598 -1866 710
-234 36 -391 43 -755 36 -401 -9 -419 -11 -423 -45 -3 -30 87 -217 181 -375
121 -204 233 -338 467 -559 319 -301 587 -462 899 -539 l55 -13 74 -129 c110
-192 173 -276 317 -420 133 -134 212 -193 388 -290 48 -27 86 -52 85 -56 -2
-3 -38 -34 -80 -68 -86 -67 -177 -174 -178 -207 0 -51 295 -275 498 -378 29
-14 52 -30 52 -35 0 -12 -174 -614 -210 -728 -16 -50 -64 -219 -105 -375 -87
-321 -124 -438 -188 -588 -73 -169 -132 -224 -356 -326 -202 -91 -237 -102
-423 -119 -199 -18 -208 -21 -208 -51 0 -19 -6 -24 -37 -29 -93 -14 -108 -20
-111 -43 -3 -18 5 -26 43 -43 26 -11 85 -28 131 -36 l85 -16 -27 -28 c-31 -32
-27 -55 11 -69 42 -16 267 -22 440 -12 88 5 161 8 163 7 2 -2 -38 -76 -87
-166 -69 -123 -91 -173 -91 -201 0 -42 24 -57 62 -37 74 38 256 215 402 389
127 151 163 209 201 320 15 43 54 118 95 181 207 318 385 658 464 886 25 72
75 249 111 393 61 246 112 405 157 493 l19 39 102 -7 c161 -10 147 1 147 -114
0 -175 -66 -508 -128 -643 -16 -35 -82 -142 -147 -238 -245 -360 -253 -373
-375 -605 -50 -93 -110 -265 -135 -385 -22 -104 -35 -301 -35 -525 0 -484 85
-978 287 -1665 114 -386 132 -459 149 -579 21 -154 12 -242 -71 -647 -111
-542 -132 -732 -121 -1091 7 -261 19 -425 47 -653 28 -239 43 -313 120 -630
38 -157 83 -370 100 -475 41 -262 97 -569 115 -635 45 -162 110 -275 236 -406
107 -111 149 -136 242 -142 140 -9 255 42 348 152 51 63 68 76 100 81 20 4 49
16 64 28 26 20 26 23 22 101 -8 120 -46 201 -217 459 -81 122 -170 261 -199
309 -53 88 -156 336 -173 418 -18 85 -29 462 -19 632 26 457 96 884 254 1533
36 149 70 308 76 355 15 129 12 319 -10 485 -24 184 -25 398 -5 865 8 184 15
416 15 514 0 99 2 177 5 174 3 -2 25 -184 50 -404 49 -426 74 -598 160 -1064
81 -445 119 -782 135 -1215 17 -470 104 -1082 235 -1650 139 -606 136 -556 45
-815 -40 -113 -134 -358 -210 -545 -76 -187 -143 -358 -149 -380 -13 -49 -14
-175 -1 -209 20 -54 80 -72 288 -82 119 -7 185 9 337 80 151 71 240 158 286
276 11 30 45 162 74 292 34 152 76 304 116 420 61 176 63 186 62 278 -1 113
-11 142 -116 360 -128 264 -119 198 -111 798 7 581 -5 1056 -36 1420 -19 217
-53 519 -65 569 -6 28 50 459 164 1253 50 350 55 416 55 885 0 532 -21 924
-75 1400 -22 195 -95 711 -130 920 -23 135 -28 376 -11 510 l7 60 115 -3 c63
-2 122 -7 130 -12 23 -12 74 -167 115 -350 58 -254 115 -469 150 -565 79 -218
191 -436 342 -664 52 -79 99 -157 103 -175 4 -17 16 -65 25 -106 28 -121 75
-211 152 -292 128 -132 490 -413 547 -424 93 -17 100 29 20 142 -66 94 -114
188 -114 227 l0 27 193 0 c346 0 542 50 492 126 -13 21 -12 22 45 43 60 22
103 62 98 90 -4 17 -62 33 -95 26 -20 -5 -21 -2 -16 31 l6 37 -89 -7 c-219
-16 -303 -17 -354 -8 -37 7 -110 40 -220 99 -232 125 -314 205 -391 383 -59
136 -167 465 -303 925 -69 231 -134 447 -145 479 -12 33 -21 64 -21 70 0 6 33
29 73 50 206 112 367 234 367 278 0 20 -84 109 -158 169 l-43 35 108 58 c261
141 391 255 500 437 80 135 110 204 137 314 l22 90 141 75 c314 167 473 294
720 573 195 221 314 397 443 652 83 167 108 231 94 245 -31 31 -461 51 -690
32 -366 -31 -902 -187 -1390 -405 -460 -206 -688 -345 -1015 -618 l-115 -96
-25 20 c-56 46 -120 66 -254 77 -187 16 -222 25 -241 62 -18 34 -15 73 9 129
13 31 29 42 129 91 135 67 249 149 337 243 84 91 109 147 132 303 25 163 49
250 109 393 39 91 51 132 55 190 5 67 13 88 78 217 l72 142 3 104 c4 114 -7
172 -58 304 -62 161 -232 375 -370 467 -90 60 -258 139 -340 159 -167 43 -495
25 -725 -39 -17 -5 -25 5 -49 57 -41 90 -174 220 -276 270 -41 21 -102 44
-135 53 -71 19 -231 27 -297 15z"/>
<path d="M5015 16656 c14 -278 69 -448 185 -578 96 -108 205 -160 360 -173 83
-6 160 -31 175 -55 4 -6 -8 -4 -26 6 -35 18 -75 20 -264 15 -81 -2 -112 1
-159 18 -118 42 -225 135 -281 243 -39 76 -23 11 18 -71 42 -85 121 -170 197
-210 53 -28 77 -34 189 -45 188 -19 220 -42 322 -235 123 -234 425 -373 689
-317 157 33 315 141 388 265 l27 46 12 -99 c40 -322 191 -618 407 -797 129
-107 213 -140 442 -174 61 -9 117 -21 125 -26 12 -7 9 -17 -12 -59 -31 -58
-23 -63 50 -30 24 11 45 20 47 20 8 0 4 -58 -7 -89 -6 -18 -9 -35 -5 -38 6 -6
78 37 113 70 22 20 23 20 43 2 33 -30 78 -134 105 -246 29 -119 31 -152 11
-168 -11 -9 -29 2 -87 56 -397 367 -1214 796 -2069 1087 -584 199 -1107 317
-1630 368 -175 17 -871 17 -989 0 -96 -14 -121 -30 -121 -78 0 -45 96 -231
170 -329 59 -79 373 -401 524 -538 l78 -71 -191 -27 c-327 -46 -714 -125 -788
-161 -36 -17 -57 -60 -49 -103 20 -107 257 -310 576 -495 264 -153 538 -280
780 -361 133 -44 588 -169 617 -169 6 0 26 -26 43 -57 70 -132 217 -291 363
-394 186 -131 577 -270 837 -299 167 -18 161 -14 94 -62 -82 -58 -162 -126
-181 -154 -37 -57 18 -152 149 -256 l90 -72 -33 -29 c-19 -16 -182 -141 -364
-277 -181 -136 -364 -278 -405 -316 -80 -72 -152 -111 -312 -166 -88 -31 -99
-32 -213 -29 -66 2 -163 4 -215 5 l-95 1 -120 -57 c-66 -32 -156 -67 -200 -79
-143 -39 -180 -53 -183 -73 -6 -27 8 -36 83 -55 l68 -17 -41 -33 c-32 -25 -42
-40 -42 -62 0 -27 3 -29 38 -29 22 0 65 9 97 20 32 11 59 20 61 20 1 0 4 -10
6 -22 2 -16 11 -24 28 -26 21 -2 129 31 203 63 14 6 17 2 17 -19 0 -35 14 -33
107 15 l78 40 68 -11 c37 -7 67 -15 67 -19 0 -3 -17 -17 -37 -31 -64 -43 -241
-224 -248 -253 -12 -46 0 -60 43 -52 51 9 216 76 328 132 112 56 168 97 324
238 66 60 146 128 177 152 55 41 258 145 623 319 91 43 282 145 425 225 l260
146 96 -32 c53 -18 146 -47 207 -65 l111 -33 -19 -26 c-10 -14 -58 -66 -107
-116 -194 -197 -295 -409 -325 -682 -16 -141 1 -281 53 -465 75 -262 73 -390
-17 -871 -76 -410 -314 -1401 -364 -1514 -13 -32 -35 -29 -152 17 -186 73
-408 128 -638 156 -287 36 -1007 27 -1455 -18 -115 -11 -275 -21 -355 -22
-166 -1 -180 3 -311 92 -98 66 -166 99 -241 118 -113 29 -187 6 -383 -121
-198 -128 -250 -144 -535 -165 -163 -12 -280 -27 -469 -61 -183 -32 -281 -94
-281 -179 0 -12 15 -37 33 -55 39 -39 101 -53 165 -36 36 10 53 8 140 -18 115
-34 344 -85 452 -100 41 -6 163 -18 270 -26 107 -9 274 -25 370 -36 317 -36
762 -79 975 -94 250 -18 358 -31 735 -91 525 -83 751 -125 1087 -204 l92 -22
-105 -201 c-147 -282 -203 -399 -277 -588 -128 -323 -279 -878 -388 -1422 -49
-245 -81 -363 -113 -412 -9 -13 -49 -49 -90 -79 -143 -106 -163 -153 -196
-476 -26 -248 -43 -316 -153 -640 l-91 -265 0 -118 -1 -119 33 -29 c27 -25 41
-29 87 -29 105 0 164 54 130 120 -16 31 -16 32 31 118 25 48 117 195 204 327
178 271 302 485 401 690 60 125 111 249 364 890 120 304 212 471 485 880 69
105 169 258 220 340 457 734 514 814 658 936 266 224 382 372 599 764 55 99
138 232 185 296 253 347 448 719 623 1189 252 677 319 964 360 1540 19 255 27
313 61 423 31 100 52 138 199 363 268 409 381 634 515 1024 33 94 56 142 94
195 66 91 153 264 162 321 3 24 9 46 13 48 3 2 177 0 386 -5 433 -11 490 -7
895 62 275 46 343 61 710 159 238 64 291 75 395 81 66 4 180 19 253 33 74 14
196 32 272 41 172 19 190 25 190 64 0 25 -6 31 -42 45 -24 8 -101 20 -172 26
-71 5 -132 12 -134 15 -5 5 172 194 193 206 5 4 52 19 104 33 145 42 180 64
182 114 0 11 22 28 58 44 69 33 111 70 111 96 0 25 -30 33 -100 26 l-55 -5 30
23 c82 63 126 112 123 137 -2 18 -10 27 -25 29 -12 2 -95 -31 -185 -73 -90
-42 -203 -87 -251 -100 -122 -33 -163 -60 -261 -174 -47 -54 -109 -114 -139
-134 -59 -40 -172 -88 -325 -139 -93 -31 -105 -32 -285 -36 -103 -2 -321 4
-485 13 -171 9 -433 16 -618 15 -478 -1 -473 -2 -1053 180 -304 95 -645 221
-807 297 -43 20 -79 76 -114 177 -23 69 -27 208 -9 282 14 53 13 53 169 88 63
15 138 37 165 50 174 82 227 235 193 552 -14 129 -14 152 -2 176 8 15 14 52
14 83 0 69 -25 99 -91 110 -94 14 -139 36 -198 94 -52 51 -62 68 -106 181 -26
69 -58 149 -71 179 -49 111 -154 232 -246 283 -24 14 -41 32 -44 48 -18 81
-29 106 -67 161 -84 123 -212 179 -479 208 -272 30 -493 -6 -723 -118 -175
-86 -328 -208 -438 -351 l-27 -35 0 31 c0 93 -63 204 -154 272 -140 104 -292
152 -476 152 -148 0 -226 -19 -425 -105 -228 -98 -256 -107 -377 -112 -96 -5
-116 -3 -191 20 -140 44 -277 150 -348 270 l-31 52 7 -119z"/>
<path d="M16106 15824 c-14 -81 -59 -128 -144 -149 l-46 -12 52 -13 c29 -7 66
-23 82 -36 27 -23 59 -94 61 -138 1 -20 1 -20 6 -1 25 114 59 155 145 175 l52
13 -46 12 c-84 21 -120 57 -142 142 l-13 48 -7 -41z"/>
<path d="M21245 15772 c-9 -58 -40 -101 -88 -122 -23 -11 -50 -20 -59 -20 -10
0 -18 -4 -18 -10 0 -5 8 -10 18 -10 32 -1 100 -38 118 -65 10 -15 23 -48 29
-73 l12 -47 17 57 c19 65 66 113 121 124 50 9 52 21 4 29 -59 10 -106 55 -125
121 -8 30 -17 54 -19 54 -2 0 -6 -17 -10 -38z"/>
<path d="M10951 15170 c-2 -34 -34 -101 -59 -123 -11 -10 -46 -27 -78 -37
l-58 -18 40 -6 c81 -14 128 -59 149 -143 l11 -44 17 59 c23 82 84 129 172 133
11 0 -8 9 -43 18 -80 23 -108 50 -131 125 -13 40 -20 52 -20 36z"/>
<path d="M25340 14542 c-17 -72 -60 -115 -132 -132 -29 -7 -48 -15 -43 -16 6
-2 29 -8 52 -14 65 -16 101 -53 120 -122 l17 -59 11 44 c21 83 59 121 142 142
l44 11 -59 17 c-69 19 -106 55 -122 120 -6 23 -12 47 -14 52 -1 6 -9 -14 -16
-43z"/>
<path d="M24666 13655 c-21 -227 -72 -276 -301 -292 l-100 -7 95 -8 c129 -10
186 -25 225 -60 44 -38 64 -94 80 -215 10 -78 13 -88 14 -48 2 79 20 174 41
215 34 68 103 96 268 109 81 7 87 8 37 10 -90 2 -185 19 -233 43 -71 34 -96
90 -110 245 l-8 88 -8 -80z"/>
<path d="M25981 13634 c-2 -76 -19 -156 -39 -183 -35 -47 -65 -61 -162 -74
l-95 -13 81 -6 c155 -11 199 -59 213 -226 l7 -87 6 87 c10 122 33 173 93 199
25 11 80 23 123 27 l77 8 -73 8 c-169 18 -202 52 -221 234 -7 68 -9 71 -10 26z"/>
<path d="M11681 12675 c-2 -81 -27 -194 -49 -225 -42 -57 -94 -77 -247 -96
l-60 -8 86 -8 c168 -15 227 -58 254 -183 8 -39 15 -97 16 -130 1 -53 3 -48 15
50 17 133 43 190 99 222 42 23 135 43 205 43 67 0 42 10 -54 20 -187 22 -224
62 -250 270 -13 96 -14 100 -15 45z"/>
<path d="M2887 10263 c-26 -389 -91 -472 -395 -503 -179 -19 -189 -23 -77 -31
206 -16 327 -56 379 -124 52 -68 78 -177 93 -385 l7 -115 8 105 c14 218 39
326 91 393 53 70 175 111 368 124 100 6 119 23 27 23 -26 0 -81 5 -123 11
-278 38 -337 121 -363 509 l-7 105 -8 -112z"/>
<path d="M33537 10327 c-4 -10 -7 -35 -7 -56 0 -47 -25 -145 -46 -176 -26 -40
-109 -74 -196 -81 -43 -4 -78 -10 -78 -14 0 -4 35 -10 78 -14 87 -7 170 -41
196 -81 21 -32 46 -129 46 -180 0 -74 17 -70 23 7 8 97 22 142 58 182 38 44
92 65 185 73 41 3 74 9 74 13 0 4 -34 10 -76 13 -169 15 -226 75 -243 262 -4
45 -9 64 -14 52z"/>
<path d="M15187 8838 c-20 -224 -73 -276 -300 -295 l-92 -7 88 -7 c130 -11
184 -26 228 -66 46 -42 57 -73 74 -211 10 -86 13 -96 14 -52 3 154 39 250 106
287 43 24 138 42 225 44 44 1 34 4 -52 14 -138 17 -169 28 -211 74 -39 44 -57
103 -66 226 l-7 80 -7 -87z"/>
<path d="M14067 7870 c-3 -8 -10 -37 -17 -64 -15 -66 -43 -118 -80 -149 -31
-26 -142 -67 -184 -67 -32 -1 -3 -14 79 -35 57 -15 77 -26 115 -65 39 -38 50
-58 65 -115 21 -82 34 -111 35 -79 0 12 9 53 21 90 33 106 84 148 229 185 l45
11 -75 19 c-131 34 -175 78 -209 211 -11 40 -21 66 -24 58z"/>
<path d="M14990 6798 c0 -12 -9 -41 -21 -65 -23 -47 -66 -76 -134 -89 l-39 -7
53 -14 c29 -7 66 -22 81 -33 26 -19 60 -83 60 -115 0 -8 5 -15 10 -15 6 0 10
7 10 15 0 32 34 96 60 115 15 11 52 26 81 33 l53 14 -39 7 c-68 13 -111 42
-134 89 -12 24 -21 53 -21 65 0 12 -4 22 -10 22 -5 0 -10 -10 -10 -22z"/>
<path d="M21136 6685 c-43 -121 -61 -140 -148 -160 l-53 -12 40 -7 c22 -4 58
-17 80 -29 38 -21 50 -42 80 -132 6 -16 10 -9 22 30 23 77 66 115 148 131 l39
7 -53 14 c-29 7 -66 22 -81 33 -26 18 -53 72 -63 125 l-4 20 -7 -20z"/>
<path d="M2511 5840 c-7 -88 -52 -145 -133 -167 l-59 -17 53 -13 c70 -18 113
-61 131 -131 l13 -52 13 50 c21 81 53 112 141 135 l45 12 -53 12 c-70 17 -113
60 -134 132 -9 30 -16 47 -17 39z"/>
<path d="M27485 5820 c-20 -90 -65 -135 -155 -155 -19 -5 -30 -9 -25 -11 6 -2
29 -8 52 -14 65 -16 101 -53 120 -122 l17 -59 13 50 c22 88 56 119 149 139
l39 8 -52 13 c-84 20 -123 61 -141 148 l-9 38 -8 -35z"/>
<path d="M28640 4780 c-1 -38 -34 -104 -64 -127 -14 -12 -50 -27 -79 -34 l-52
-13 39 -8 c92 -20 129 -53 151 -138 l12 -45 16 57 c23 77 85 124 167 129 8 0
-8 8 -37 18 -77 26 -99 45 -118 98 -9 26 -21 57 -25 68 -8 18 -9 18 -10 -5z"/>
<path d="M27681 4644 c-1 -12 -10 -52 -22 -89 -35 -114 -107 -170 -244 -191
l-50 -7 70 -17 c91 -22 114 -32 153 -65 41 -35 59 -68 81 -157 l18 -70 17 67
c21 83 48 137 82 164 31 25 113 56 174 66 l45 8 -70 17 c-156 37 -188 69 -238
245 -8 28 -15 40 -16 29z"/>
<path d="M1518 4420 c-4 -25 -10 -67 -14 -95 -18 -142 -71 -185 -255 -207
l-104 -12 90 -8 c201 -18 251 -64 275 -254 6 -49 12 -90 14 -91 2 -2 6 34 9
79 14 196 68 248 279 267 l83 7 -70 7 c-159 17 -217 41 -252 104 -21 37 -40
123 -46 208 l-3 40 -6 -45z"/>
<path d="M2627 3810 c-28 -231 -65 -270 -274 -294 l-108 -12 90 -7 c212 -15
261 -60 287 -264 l13 -98 7 81 c12 145 40 209 106 243 44 22 138 40 222 42 43
1 30 4 -59 15 -140 17 -192 39 -226 97 -23 41 -42 127 -48 217 -2 43 -3 42
-10 -20z"/>
</g>
</svg>
