<svg xmlns="http://www.w3.org/2000/svg" viewBox="0 0 300 150">
  <g transform="translate(30, 20)">
    <circle cx="30" cy="30" r="10" fill="#FFE0BD"/>
    <path d="M20,30 Q20,20 30,20 Q40,20 40,30 Z" fill="#8B4513"/> <path d="M25,12 L30,5 L35,12 Z" fill="#FFD700"/> <path d="M30,40 L10,90 L50,90 Z" fill="#FF69B4" stroke="#FF1493" stroke-width="1.5"/> </g>

  <g transform="translate(120, 10)">
    <circle cx="30" cy="30" r="12" fill="#F5DEB3"/>
    <path d="M18,30 Q18,15 30,15 Q42,15 42,30 Z" fill="#FFD700"/> <path d="M20,10 L30,2 L40,10 Z" fill="#FFD700"/> <circle cx="30" cy="8" r="1.5" fill="#0000FF"/>
    <path d="M30,42 L5,100 L55,100 Z" fill="#1E90FF" stroke="#0000CD" stroke-width="2"/> </g>

  <g transform="translate(210, 25)">
    <circle cx="30" cy="30" r="10" fill="#D2B48C"/>
    <path d="M20,30 Q20,20 30,20 Q40,20 40,30 Q40,40 30,40 Q20,40 20,30 Z" fill="#000000"/> <path d="M25,15 L30,8 L35,15 Z" fill="#FFD700"/> <path d="M30,40 L15,85 L45,85 Z" fill="#3CB371" stroke="#008000" stroke-width="1.5"/> <path d="M30,40 L20,60 L40,60 Z" fill="#9370DB"/> </g>
</svg>