<svg xmlns="http://www.w3.org/2000/svg" viewBox="0 0 100 120">
  <defs>
    <linearGradient id="pelogradient" x1="0%" y1="0%" x2="0%" y2="100%">
      <stop offset="0%" style="stop-color:#FFD700;stop-opacity:1" />
      <stop offset="100%" style="stop-color:#FFA500;stop-opacity:1" />
    </linearGradient>
  </defs>

  <path d="M30,110 C30,90 40,70 50,70 C55,70 60,75 60,85 C60,95 55,100 50,100 C45,100 40,95 40,85 C40,75 45,70 50,70 Z" fill="#FFE0BD"/>

  <path d="M50,70 C30,70 20,90 20,110 L80,110 C80,90 70,70 50,70 Z" fill="#4169E1"/>

  <path d="M60,20 C80,20 90,40 90,60 C90,80 70,100 50,100 C30,100 10,80 10,60 C10,40 20,20 40,20 C45,10 55,10 60,20 Z" fill="url(#pelogradient)"/>

  <path d="M45,15 L50,5 L55,15 Z" fill="#FFD700"/>
  <circle cx="50" cy="11" r="1" fill="#FF0000"/>
</svg>